OpenSans-CondensedBold.ufo
<glyph name="quotedbl" format="2">
  <advance width="907"/>
  <unicode hex="0022"/>
  <outline>
    <contour>
      <point x="387" y="1462" type="line"/>
      <point x="94" y="1462" type="line"/>
      <point x="133" y="934" type="line"/>
      <point x="348" y="934" type="line"/>
    </contour>
    <contour>
      <point x="813" y="1462" type="line"/>
      <point x="520" y="1462" type="line"/>
      <point x="559" y="934" type="line"/>
      <point x="774" y="934" type="line"/>
    </contour>
  </outline>
</glyph>
<glyph name="percent" format="2">
  <advance width="1579"/>
  <unicode hex="0025"/>
  <outline>
    <contour>
      <point x="350" y="1483" type="curve" smooth="yes"/>
      <point x="166" y="1483"/>
      <point x="61" y="1319"/>
      <point x="61" y="1026" type="curve" smooth="yes"/>
      <point x="61" y="741"/>
      <point x="170" y="565"/>
      <point x="350" y="565" type="curve" smooth="yes"/>
      <point x="537" y="565"/>
      <point x="643" y="733"/>
      <point x="643" y="1026" type="curve" smooth="yes"/>
      <point x="643" y="1311"/>
      <point x="530" y="1483"/>
    </contour>
    <contour>
      <point x="352" y="1294" type="curve" smooth="yes"/>
      <point x="408" y="1294"/>
      <point x="434" y="1208"/>
      <point x="434" y="1024" type="curve" smooth="yes"/>
      <point x="434" y="836"/>
      <point x="410" y="752"/>
      <point x="354" y="752" type="curve" smooth="yes"/>
      <point x="297" y="752"/>
      <point x="270" y="838"/>
      <point x="270" y="1024" type="curve" smooth="yes"/>
      <point x="270" y="1206"/>
      <point x="297" y="1294"/>
    </contour>
    <contour>
      <point x="1171" y="1462" type="line"/>
      <point x="969" y="1462" type="line"/>
      <point x="403" y="0" type="line"/>
      <point x="606" y="0" type="line"/>
    </contour>
    <contour>
      <point x="1225" y="899" type="curve" smooth="yes"/>
      <point x="1040" y="899"/>
      <point x="936" y="739"/>
      <point x="936" y="442" type="curve" smooth="yes"/>
      <point x="936" y="160"/>
      <point x="1042" y="-18"/>
      <point x="1225" y="-18" type="curve" smooth="yes"/>
      <point x="1411" y="-18"/>
      <point x="1518" y="150"/>
      <point x="1518" y="442" type="curve" smooth="yes"/>
      <point x="1518" y="727"/>
      <point x="1405" y="899"/>
    </contour>
    <contour>
      <point x="1225" y="713" type="curve" smooth="yes"/>
      <point x="1284" y="713"/>
      <point x="1307" y="610"/>
      <point x="1307" y="440" type="curve" smooth="yes"/>
      <point x="1307" y="270"/>
      <point x="1286" y="170"/>
      <point x="1227" y="170" type="curve" smooth="yes"/>
      <point x="1169" y="170"/>
      <point x="1145" y="256"/>
      <point x="1145" y="440" type="curve" smooth="yes"/>
      <point x="1145" y="623"/>
      <point x="1169" y="713"/>
    </contour>
  </outline>
</glyph>
<glyph name="comma" format="2">
  <advance width="522"/>
  <unicode hex="002C"/>
  <outline>
    <contour>
      <point x="414" y="272" type="line"/>
      <point x="150" y="272" type="line"/>
      <point x="139" y="123"/>
      <point x="102" y="-119"/>
      <point x="68" y="-279" type="curve"/>
      <point x="285" y="-279" type="line"/>
      <point x="346" y="-129"/>
      <point x="391" y="45"/>
      <point x="426" y="250" type="curve"/>
    </contour>
  </outline>
</glyph>
<glyph name="hyphen" format="2">
  <advance width="625"/>
  <unicode hex="002D"/>
  <outline>
    <contour>
      <point x="57" y="422" type="line"/>
      <point x="567" y="422" type="line"/>
      <point x="567" y="678" type="line"/>
      <point x="57" y="678" type="line"/>
    </contour>
  </outline>
</glyph>
<glyph name="one" format="2">
  <advance width="961"/>
  <unicode hex="0031"/>
  <outline>
    <contour>
      <point x="733" y="0" type="line"/>
      <point x="733" y="1462" type="line"/>
      <point x="489" y="1462" type="line"/>
      <point x="96" y="1053" type="line"/>
      <point x="260" y="891" type="line"/>
      <point x="387" y="1022" type="line"/>
      <point x="422" y="1061"/>
      <point x="446" y="1092"/>
      <point x="465" y="1118" type="curve"/>
      <point x="461" y="1034"/>
      <point x="459" y="946"/>
      <point x="459" y="854" type="curve" smooth="yes"/>
      <point x="459" y="0" type="line"/>
    </contour>
  </outline>
</glyph>
<glyph name="three" format="2">
  <advance width="961"/>
  <unicode hex="0033"/>
  <outline>
    <contour>
      <point x="842" y="1112" type="curve" smooth="yes"/>
      <point x="842" y="1352"/>
      <point x="696" y="1483"/>
      <point x="461" y="1483" type="curve" smooth="yes"/>
      <point x="303" y="1483"/>
      <point x="188" y="1446"/>
      <point x="68" y="1348" type="curve"/>
      <point x="176" y="1147" type="line"/>
      <point x="256" y="1212"/>
      <point x="328" y="1245"/>
      <point x="408" y="1245" type="curve" smooth="yes"/>
      <point x="514" y="1245"/>
      <point x="571" y="1188"/>
      <point x="571" y="1081" type="curve" smooth="yes"/>
      <point x="571" y="946"/>
      <point x="481" y="866"/>
      <point x="311" y="866" type="curve" smooth="yes"/>
      <point x="236" y="866" type="line"/>
      <point x="236" y="635" type="line"/>
      <point x="309" y="635" type="line" smooth="yes"/>
      <point x="500" y="635"/>
      <point x="582" y="569"/>
      <point x="582" y="424" type="curve" smooth="yes"/>
      <point x="582" y="293"/>
      <point x="514" y="217"/>
      <point x="365" y="217" type="curve" smooth="yes"/>
      <point x="272" y="217"/>
      <point x="168" y="248"/>
      <point x="68" y="307" type="curve"/>
      <point x="68" y="49" type="line"/>
      <point x="184" y="-4"/>
      <point x="279" y="-20"/>
      <point x="406" y="-20" type="curve" smooth="yes"/>
      <point x="696" y="-20"/>
      <point x="870" y="147"/>
      <point x="870" y="412" type="curve" smooth="yes"/>
      <point x="870" y="602"/>
      <point x="776" y="723"/>
      <point x="594" y="762" type="curve"/>
      <point x="594" y="768" type="line"/>
      <point x="756" y="827"/>
      <point x="842" y="954"/>
    </contour>
  </outline>
</glyph>
<glyph name="four" format="2">
  <advance width="961"/>
  <unicode hex="0034"/>
  <outline>
    <contour>
      <point x="936" y="297" type="line"/>
      <point x="936" y="524" type="line"/>
      <point x="788" y="524" type="line"/>
      <point x="788" y="1466" type="line"/>
      <point x="516" y="1466" type="line"/>
      <point x="35" y="518" type="line"/>
      <point x="35" y="297" type="line"/>
      <point x="518" y="297" type="line"/>
      <point x="518" y="0" type="line"/>
      <point x="788" y="0" type="line"/>
      <point x="788" y="297" type="line"/>
    </contour>
    <contour>
      <point x="516" y="524" type="line"/>
      <point x="258" y="524" type="line"/>
      <point x="451" y="926" type="line" smooth="yes"/>
      <point x="475" y="973"/>
      <point x="496" y="1024"/>
      <point x="514" y="1083" type="curve"/>
      <point x="522" y="1083" type="line"/>
      <point x="520" y="1057"/>
      <point x="516" y="903"/>
      <point x="516" y="862" type="curve" smooth="yes"/>
    </contour>
  </outline>
</glyph>
<glyph name="seven" format="2">
  <advance width="961"/>
  <unicode hex="0037"/>
  <outline>
    <contour>
      <point x="178" y="0" type="line"/>
      <point x="469" y="0" type="line"/>
      <point x="887" y="1272" type="line"/>
      <point x="887" y="1462" type="line"/>
      <point x="70" y="1462" type="line"/>
      <point x="70" y="1219" type="line"/>
      <point x="606" y="1219" type="line"/>
    </contour>
  </outline>
</glyph>
<glyph name="colon" format="2">
  <advance width="532"/>
  <unicode hex="003A"/>
  <outline>
    <contour>
      <point x="109" y="145" type="curve" smooth="yes"/>
      <point x="109" y="37"/>
      <point x="168" y="-23"/>
      <point x="268" y="-23" type="curve" smooth="yes"/>
      <point x="362" y="-23"/>
      <point x="422" y="37"/>
      <point x="422" y="145" type="curve" smooth="yes"/>
      <point x="422" y="256"/>
      <point x="367" y="313"/>
      <point x="268" y="313" type="curve" smooth="yes"/>
      <point x="164" y="313"/>
      <point x="109" y="254"/>
    </contour>
    <contour>
      <point x="109" y="963" type="curve" smooth="yes"/>
      <point x="109" y="856"/>
      <point x="168" y="795"/>
      <point x="268" y="795" type="curve" smooth="yes"/>
      <point x="362" y="795"/>
      <point x="422" y="854"/>
      <point x="422" y="963" type="curve" smooth="yes"/>
      <point x="422" y="1071"/>
      <point x="369" y="1133"/>
      <point x="268" y="1133" type="curve" smooth="yes"/>
      <point x="164" y="1133"/>
      <point x="109" y="1071"/>
    </contour>
  </outline>
</glyph>
<glyph name="less" format="2">
  <advance width="969"/>
  <unicode hex="003C"/>
  <outline>
    <contour>
      <point x="901" y="246" type="line"/>
      <point x="901" y="487" type="line"/>
      <point x="371" y="735" type="line"/>
      <point x="901" y="979" type="line"/>
      <point x="901" y="1223" type="line"/>
      <point x="59" y="807" type="line"/>
      <point x="59" y="664" type="line"/>
    </contour>
  </outline>
</glyph>
<glyph name="A" format="2">
  <advance width="1077"/>
  <unicode hex="0041"/>
  <anchor x="535" y="0" name="bottom"/>
  <anchor x="539" y="1462" name="top"/>
  <anchor x="954" y="1462" name="topright"/>
  <outline>
    <contour>
      <point x="778" y="0" type="line"/>
      <point x="1077" y="0" type="line"/>
      <point x="717" y="1462" type="line"/>
      <point x="354" y="1462" type="line"/>
      <point x="0" y="0" type="line"/>
      <point x="301" y="0" type="line"/>
      <point x="377" y="352" type="line"/>
      <point x="702" y="352" type="line"/>
    </contour>
    <contour>
      <point x="659" y="596" type="line"/>
      <point x="420" y="596" type="line"/>
      <point x="498" y="987" type="line" smooth="yes"/>
      <point x="518" y="1081"/>
      <point x="532" y="1174"/>
      <point x="539" y="1245" type="curve"/>
      <point x="549" y="1171"/>
      <point x="563" y="1079"/>
      <point x="580" y="983" type="curve"/>
    </contour>
  </outline>
</glyph>
<glyph name="C" format="2">
  <advance width="989"/>
  <unicode hex="0043"/>
  <anchor x="567" y="0" name="bottom"/>
  <anchor x="588" y="1462" name="top"/>
  <anchor x="948" y="1462" name="topright"/>
  <outline>
    <contour>
      <point x="633" y="1241" type="curve" smooth="yes"/>
      <point x="717" y="1241"/>
      <point x="788" y="1210"/>
      <point x="860" y="1161" type="curve"/>
      <point x="940" y="1393" type="line"/>
      <point x="838" y="1454"/>
      <point x="729" y="1483"/>
      <point x="612" y="1483" type="curve" smooth="yes"/>
      <point x="276" y="1483"/>
      <point x="88" y="1165"/>
      <point x="88" y="729" type="curve"/>
      <point x="88" y="250"/>
      <point x="276" y="-20"/>
      <point x="606" y="-20" type="curve"/>
      <point x="717" y="-20"/>
      <point x="813" y="4"/>
      <point x="897" y="51" type="curve"/>
      <point x="897" y="301" type="line"/>
      <point x="817" y="258"/>
      <point x="737" y="223"/>
      <point x="647" y="223" type="curve" smooth="yes"/>
      <point x="475" y="223"/>
      <point x="379" y="401"/>
      <point x="379" y="727" type="curve"/>
      <point x="379" y="1024"/>
      <point x="461" y="1241"/>
    </contour>
  </outline>
</glyph>
<glyph name="D" format="2">
  <advance width="1145"/>
  <unicode hex="0044"/>
  <anchor x="532" y="0" name="bottom"/>
  <anchor x="567" y="737" name="center"/>
  <anchor x="565" y="1462" name="top"/>
  <anchor x="1104" y="1462" name="topright"/>
  <outline>
    <contour>
      <point x="1057" y="758" type="curve" smooth="yes"/>
      <point x="1057" y="1214"/>
      <point x="856" y="1462"/>
      <point x="496" y="1462" type="curve" smooth="yes"/>
      <point x="131" y="1462" type="line"/>
      <point x="131" y="0" type="line"/>
      <point x="475" y="0" type="line" smooth="yes"/>
      <point x="850" y="0"/>
      <point x="1057" y="268"/>
    </contour>
    <contour>
      <point x="768" y="745" type="curve" smooth="yes"/>
      <point x="768" y="408"/>
      <point x="676" y="246"/>
      <point x="473" y="246" type="curve" smooth="yes"/>
      <point x="412" y="246" type="line"/>
      <point x="412" y="1219" type="line"/>
      <point x="492" y="1219" type="line" smooth="yes"/>
      <point x="674" y="1219"/>
      <point x="768" y="1073"/>
    </contour>
  </outline>
</glyph>
<glyph name="F" format="2">
  <advance width="848"/>
  <unicode hex="0046"/>
  <anchor x="424" y="0" name="bottom"/>
  <anchor x="465" y="1462" name="top"/>
  <anchor x="807" y="1462" name="topright"/>
  <outline>
    <contour>
      <point x="412" y="0" type="line"/>
      <point x="412" y="586" type="line"/>
      <point x="760" y="586" type="line"/>
      <point x="760" y="825" type="line"/>
      <point x="412" y="825" type="line"/>
      <point x="412" y="1223" type="line"/>
      <point x="784" y="1223" type="line"/>
      <point x="784" y="1462" type="line"/>
      <point x="131" y="1462" type="line"/>
      <point x="131" y="0" type="line"/>
    </contour>
  </outline>
</glyph>
<glyph name="G" format="2">
  <advance width="1176"/>
  <unicode hex="0047"/>
  <anchor x="653" y="0" name="bottom"/>
  <anchor x="657" y="1462" name="top"/>
  <anchor x="1135" y="1462" name="topright"/>
  <outline>
    <contour>
      <point x="614" y="823" type="line"/>
      <point x="614" y="586" type="line"/>
      <point x="797" y="586" type="line"/>
      <point x="797" y="246" type="line"/>
      <point x="754" y="231"/>
      <point x="705" y="223"/>
      <point x="653" y="223" type="curve" smooth="yes"/>
      <point x="465" y="223"/>
      <point x="379" y="420"/>
      <point x="379" y="727" type="curve" smooth="yes"/>
      <point x="379" y="1059"/>
      <point x="487" y="1241"/>
      <point x="698" y="1241" type="curve" smooth="yes"/>
      <point x="795" y="1241"/>
      <point x="885" y="1212"/>
      <point x="969" y="1159" type="curve"/>
      <point x="1051" y="1391" type="line"/>
      <point x="954" y="1446"/>
      <point x="829" y="1483"/>
      <point x="688" y="1483" type="curve" smooth="yes"/>
      <point x="301" y="1483"/>
      <point x="88" y="1192"/>
      <point x="88" y="735" type="curve" smooth="yes"/>
      <point x="88" y="272"/>
      <point x="274" y="-20"/>
      <point x="635" y="-20" type="curve" smooth="yes"/>
      <point x="786" y="-20"/>
      <point x="932" y="6"/>
      <point x="1071" y="61" type="curve"/>
      <point x="1071" y="823" type="line"/>
    </contour>
  </outline>
</glyph>
<glyph name="H" format="2">
  <advance width="1186"/>
  <unicode hex="0048"/>
  <anchor x="592" y="0" name="bottom"/>
  <anchor x="592" y="731" name="center"/>
  <anchor x="594" y="1462" name="top"/>
  <anchor x="1145" y="1462" name="topright"/>
  <outline>
    <contour>
      <point x="1055" y="0" type="line"/>
      <point x="1055" y="1462" type="line"/>
      <point x="774" y="1462" type="line"/>
      <point x="774" y="883" type="line"/>
      <point x="412" y="883" type="line"/>
      <point x="412" y="1462" type="line"/>
      <point x="131" y="1462" type="line"/>
      <point x="131" y="0" type="line"/>
      <point x="412" y="0" type="line"/>
      <point x="412" y="639" type="line"/>
      <point x="774" y="639" type="line"/>
      <point x="774" y="0" type="line"/>
    </contour>
  </outline>
</glyph>
<glyph name="I" format="2">
  <advance width="543"/>
  <unicode hex="0049"/>
  <anchor x="270" y="0" name="bottom"/>
  <anchor x="270" y="1462" name="top"/>
  <anchor x="502" y="1462" name="topright"/>
  <outline>
    <contour>
      <point x="131" y="0" type="line"/>
      <point x="412" y="0" type="line"/>
      <point x="412" y="1462" type="line"/>
      <point x="131" y="1462" type="line"/>
    </contour>
  </outline>
</glyph>
<glyph name="K" format="2">
  <advance width="1047"/>
  <unicode hex="004B"/>
  <anchor x="573" y="0" name="bottom"/>
  <anchor x="578" y="1462" name="top"/>
  <anchor x="1006" y="1462" name="topright"/>
  <outline>
    <contour>
      <point x="1061" y="0" type="line"/>
      <point x="700" y="811" type="line"/>
      <point x="1057" y="1462" type="line"/>
      <point x="756" y="1462" type="line"/>
      <point x="500" y="985" type="line" smooth="yes"/>
      <point x="457" y="903"/>
      <point x="424" y="840"/>
      <point x="412" y="788" type="curve"/>
      <point x="412" y="1462" type="line"/>
      <point x="131" y="1462" type="line"/>
      <point x="131" y="0" type="line"/>
      <point x="412" y="0" type="line"/>
      <point x="412" y="514" type="line"/>
      <point x="502" y="596" type="line"/>
      <point x="750" y="0" type="line"/>
    </contour>
  </outline>
</glyph>
<glyph name="M" format="2">
  <advance width="1581"/>
  <unicode hex="004D"/>
  <anchor x="791" y="0" name="bottom"/>
  <anchor x="795" y="1462" name="top"/>
  <anchor x="1540" y="1462" name="topright"/>
  <outline>
    <contour>
      <point x="676" y="0" type="line"/>
      <point x="895" y="0" type="line"/>
      <point x="1186" y="1077" type="line"/>
      <point x="1194" y="1077" type="line"/>
      <point x="1186" y="948"/>
      <point x="1182" y="846"/>
      <point x="1182" y="756" type="curve" smooth="yes"/>
      <point x="1182" y="0" type="line"/>
      <point x="1450" y="0" type="line"/>
      <point x="1450" y="1462" type="line"/>
      <point x="1065" y="1462" type="line"/>
      <point x="795" y="461" type="line"/>
      <point x="788" y="461" type="line"/>
      <point x="518" y="1462" type="line"/>
      <point x="131" y="1462" type="line"/>
      <point x="131" y="0" type="line"/>
      <point x="393" y="0" type="line"/>
      <point x="393" y="754" type="line" smooth="yes"/>
      <point x="393" y="834"/>
      <point x="389" y="944"/>
      <point x="379" y="1079" type="curve"/>
      <point x="387" y="1079" type="line"/>
    </contour>
  </outline>
</glyph>
<glyph name="O" format="2">
  <advance width="1214"/>
  <unicode hex="004F"/>
  <anchor x="608" y="0" name="bottom"/>
  <anchor x="608" y="731" name="center"/>
  <anchor x="608" y="1462" name="top"/>
  <anchor x="1174" y="1462" name="topright"/>
  <outline>
    <contour>
      <point x="1126" y="733" type="curve" smooth="yes"/>
      <point x="1126" y="1198"/>
      <point x="961" y="1485"/>
      <point x="608" y="1485" type="curve" smooth="yes"/>
      <point x="268" y="1485"/>
      <point x="88" y="1227"/>
      <point x="88" y="735" type="curve" smooth="yes"/>
      <point x="88" y="272"/>
      <point x="256" y="-20"/>
      <point x="608" y="-20" type="curve" smooth="yes"/>
      <point x="958" y="-20"/>
      <point x="1126" y="268"/>
    </contour>
    <contour>
      <point x="379" y="733" type="curve" smooth="yes"/>
      <point x="379" y="1069"/>
      <point x="457" y="1241"/>
      <point x="608" y="1241" type="curve" smooth="yes"/>
      <point x="760" y="1241"/>
      <point x="836" y="1075"/>
      <point x="836" y="733" type="curve" smooth="yes"/>
      <point x="836" y="389"/>
      <point x="760" y="227"/>
      <point x="608" y="227" type="curve" smooth="yes"/>
      <point x="457" y="227"/>
      <point x="379" y="397"/>
    </contour>
  </outline>
</glyph>
<glyph name="P" format="2">
  <advance width="1004"/>
  <unicode hex="0050"/>
  <anchor x="502" y="0" name="bottom"/>
  <anchor x="532" y="1462" name="top"/>
  <anchor x="963" y="1462" name="topright"/>
  <outline>
    <contour>
      <point x="502" y="1462" type="curve" smooth="yes"/>
      <point x="131" y="1462" type="line"/>
      <point x="131" y="0" type="line"/>
      <point x="412" y="0" type="line"/>
      <point x="412" y="518" type="line"/>
      <point x="489" y="518" type="line" smooth="yes"/>
      <point x="797" y="518"/>
      <point x="942" y="715"/>
      <point x="942" y="1010" type="curve" smooth="yes"/>
      <point x="942" y="1305"/>
      <point x="799" y="1462"/>
    </contour>
    <contour>
      <point x="481" y="1223" type="line" smooth="yes"/>
      <point x="604" y="1223"/>
      <point x="664" y="1157"/>
      <point x="664" y="1008" type="curve" smooth="yes"/>
      <point x="664" y="827"/>
      <point x="594" y="758"/>
      <point x="461" y="758" type="curve" smooth="yes"/>
      <point x="412" y="758" type="line"/>
      <point x="412" y="1223" type="line"/>
    </contour>
  </outline>
</glyph>
<glyph name="Y" format="2">
  <advance width="971"/>
  <unicode hex="0059"/>
  <anchor x="485" y="0" name="bottom"/>
  <anchor x="485" y="1462" name="top"/>
  <anchor x="930" y="1462" name="topright"/>
  <outline>
    <contour>
      <point x="487" y="868" type="line"/>
      <point x="291" y="1462" type="line"/>
      <point x="0" y="1462" type="line"/>
      <point x="346" y="555" type="line"/>
      <point x="346" y="0" type="line"/>
      <point x="625" y="0" type="line"/>
      <point x="625" y="563" type="line"/>
      <point x="971" y="1462" type="line"/>
      <point x="682" y="1462" type="line"/>
    </contour>
  </outline>
</glyph>
<glyph name="backslash" format="2">
  <advance width="827"/>
  <unicode hex="005C"/>
  <outline>
    <contour>
      <point x="254" y="1477" type="line"/>
      <point x="16" y="1477" type="line"/>
      <point x="573" y="-14" type="line"/>
      <point x="811" y="-14" type="line"/>
    </contour>
  </outline>
</glyph>
<glyph name="bracketright" format="2">
  <advance width="627"/>
  <unicode hex="005D"/>
  <outline>
    <contour>
      <point x="47" y="-129" type="line"/>
      <point x="47" y="-338" type="line"/>
      <point x="518" y="-338" type="line"/>
      <point x="518" y="1491" type="line"/>
      <point x="47" y="1491" type="line"/>
      <point x="47" y="1282" type="line"/>
      <point x="270" y="1282" type="line"/>
      <point x="270" y="-129" type="line"/>
    </contour>
  </outline>
</glyph>
<glyph name="asciicircum" format="2">
  <advance width="1028"/>
  <unicode hex="005E"/>
  <outline>
    <contour>
      <point x="18" y="567" type="line"/>
      <point x="264" y="567" type="line"/>
      <point x="514" y="1106" type="line"/>
      <point x="764" y="567" type="line"/>
      <point x="1010" y="567" type="line"/>
      <point x="584" y="1462" type="line"/>
      <point x="442" y="1462" type="line"/>
    </contour>
  </outline>
</glyph>
<glyph name="a" format="2">
  <advance width="950"/>
  <unicode hex="0061"/>
  <anchor x="475" y="0" name="bottom"/>
  <anchor x="492" y="1120" name="top"/>
  <anchor x="883" y="1120" name="topright"/>
  <outline>
    <contour>
      <point x="504" y="1141" type="curve" smooth="yes"/>
      <point x="369" y="1141"/>
      <point x="246" y="1108"/>
      <point x="145" y="1047" type="curve"/>
      <point x="219" y="848" type="line"/>
      <point x="309" y="901"/>
      <point x="385" y="926"/>
      <point x="449" y="926" type="curve" smooth="yes"/>
      <point x="535" y="926"/>
      <point x="571" y="866"/>
      <point x="571" y="743" type="curve" smooth="yes"/>
      <point x="571" y="698" type="line"/>
      <point x="432" y="692" type="line" smooth="yes"/>
      <point x="193" y="682"/>
      <point x="59" y="563"/>
      <point x="59" y="330" type="curve" smooth="yes"/>
      <point x="59" y="150"/>
      <point x="133" y="-20"/>
      <point x="319" y="-20" type="curve" smooth="yes"/>
      <point x="451" y="-20"/>
      <point x="526" y="35"/>
      <point x="594" y="150" type="curve"/>
      <point x="600" y="150" type="line"/>
      <point x="643" y="0" type="line"/>
      <point x="838" y="0" type="line"/>
      <point x="838" y="741" type="line" smooth="yes"/>
      <point x="838" y="1006"/>
      <point x="721" y="1141"/>
    </contour>
    <contour>
      <point x="571" y="520" type="line"/>
      <point x="571" y="418" type="line" smooth="yes"/>
      <point x="571" y="281"/>
      <point x="512" y="193"/>
      <point x="428" y="193" type="curve" smooth="yes"/>
      <point x="362" y="193"/>
      <point x="328" y="242"/>
      <point x="328" y="342" type="curve" smooth="yes"/>
      <point x="328" y="453"/>
      <point x="383" y="510"/>
      <point x="496" y="516" type="curve" smooth="yes"/>
    </contour>
  </outline>
</glyph>
<glyph name="c" format="2">
  <advance width="817"/>
  <unicode hex="0063"/>
  <anchor x="492" y="0" name="bottom"/>
  <anchor x="475" y="1120" name="top"/>
  <anchor x="776" y="1120" name="topright"/>
  <outline>
    <contour>
      <point x="494" y="-20" type="curve" smooth="yes"/>
      <point x="586" y="-20"/>
      <point x="678" y="6"/>
      <point x="750" y="63" type="curve"/>
      <point x="750" y="291" type="line"/>
      <point x="676" y="238"/>
      <point x="598" y="209"/>
      <point x="522" y="209" type="curve" smooth="yes"/>
      <point x="406" y="209"/>
      <point x="344" y="324"/>
      <point x="344" y="555" type="curve" smooth="yes"/>
      <point x="344" y="786"/>
      <point x="408" y="909"/>
      <point x="518" y="909" type="curve" smooth="yes"/>
      <point x="578" y="909"/>
      <point x="637" y="891"/>
      <point x="698" y="854" type="curve"/>
      <point x="772" y="1067" type="line"/>
      <point x="694" y="1116"/>
      <point x="608" y="1141"/>
      <point x="498" y="1141" type="curve" smooth="yes"/>
      <point x="205" y="1141"/>
      <point x="74" y="895"/>
      <point x="74" y="555" type="curve" smooth="yes"/>
      <point x="74" y="164"/>
      <point x="213" y="-20"/>
    </contour>
  </outline>
</glyph>
<glyph name="e" format="2">
  <advance width="936"/>
  <unicode hex="0065"/>
  <anchor x="510" y="0" name="bottom"/>
  <anchor x="477" y="1120" name="top"/>
  <anchor x="895" y="1120" name="topright"/>
  <outline>
    <contour>
      <point x="479" y="1139" type="curve" smooth="yes"/>
      <point x="211" y="1139"/>
      <point x="74" y="930"/>
      <point x="74" y="553" type="curve" smooth="yes"/>
      <point x="74" y="199"/>
      <point x="203" y="-20"/>
      <point x="512" y="-20" type="curve" smooth="yes"/>
      <point x="629" y="-20"/>
      <point x="729" y="4"/>
      <point x="819" y="57" type="curve"/>
      <point x="819" y="279" type="line"/>
      <point x="723" y="219"/>
      <point x="643" y="197"/>
      <point x="549" y="197" type="curve" smooth="yes"/>
      <point x="406" y="197"/>
      <point x="338" y="287"/>
      <point x="336" y="483" type="curve"/>
      <point x="870" y="483" type="line"/>
      <point x="870" y="633" type="line" smooth="yes"/>
      <point x="870" y="942"/>
      <point x="731" y="1139"/>
    </contour>
    <contour>
      <point x="485" y="930" type="curve" smooth="yes"/>
      <point x="573" y="930"/>
      <point x="623" y="834"/>
      <point x="623" y="676" type="curve"/>
      <point x="338" y="676" type="line"/>
      <point x="342" y="856"/>
      <point x="397" y="930"/>
    </contour>
  </outline>
</glyph>
<glyph name="g" format="2">
  <advance width="936"/>
  <unicode hex="0067"/>
  <anchor x="478" y="-492" name="bottom"/>
  <anchor x="468" y="1120" name="top"/>
  <anchor x="941" y="1120" name="topright"/>
  <outline>
    <contour>
      <point x="598" y="1112" type="line"/>
      <point x="567" y="1123"/>
      <point x="497" y="1135"/>
      <point x="452" y="1135" type="curve" smooth="yes"/>
      <point x="214" y="1135"/>
      <point x="82" y="996"/>
      <point x="82" y="753" type="curve" smooth="yes"/>
      <point x="82" y="612"/>
      <point x="139" y="486"/>
      <point x="231" y="430" type="curve"/>
      <point x="160" y="371"/>
      <point x="117" y="327"/>
      <point x="117" y="245" type="curve" smooth="yes"/>
      <point x="117" y="169"/>
      <point x="165" y="110"/>
      <point x="233" y="84" type="curve"/>
      <point x="97" y="41"/>
      <point x="18" y="-58"/>
      <point x="18" y="-182" type="curve" smooth="yes"/>
      <point x="18" y="-381"/>
      <point x="156" y="-492"/>
      <point x="403" y="-492" type="curve" smooth="yes"/>
      <point x="728" y="-492"/>
      <point x="907" y="-345"/>
      <point x="907" y="-85" type="curve" smooth="yes"/>
      <point x="907" y="119"/>
      <point x="800" y="221"/>
      <point x="612" y="221" type="curve" smooth="yes"/>
      <point x="450" y="221" type="line" smooth="yes"/>
      <point x="369" y="221"/>
      <point x="329" y="244"/>
      <point x="329" y="292" type="curve" smooth="yes"/>
      <point x="329" y="332"/>
      <point x="354" y="358"/>
      <point x="383" y="381" type="curve"/>
      <point x="399" y="376"/>
      <point x="424" y="373"/>
      <point x="456" y="373" type="curve" smooth="yes"/>
      <point x="686" y="373"/>
      <point x="821" y="513"/>
      <point x="821" y="750" type="curve" smooth="yes"/>
      <point x="821" y="821"/>
      <point x="807" y="879"/>
      <point x="783" y="926" type="curve"/>
      <point x="915" y="956" type="line"/>
      <point x="915" y="1112" type="line"/>
    </contour>
    <contour>
      <point x="260" y="-162" type="curve" smooth="yes"/>
      <point x="260" y="-70"/>
      <point x="307" y="-12"/>
      <point x="379" y="-12" type="curve" smooth="yes"/>
      <point x="508" y="-12" type="line" smooth="yes"/>
      <point x="627" y="-12"/>
      <point x="662" y="-43"/>
      <point x="662" y="-127" type="curve" smooth="yes"/>
      <point x="662" y="-234"/>
      <point x="581" y="-299"/>
      <point x="420" y="-299" type="curve" smooth="yes"/>
      <point x="318" y="-299"/>
      <point x="260" y="-250"/>
    </contour>
    <contour>
      <point x="342" y="751" type="curve" smooth="yes"/>
      <point x="342" y="887"/>
      <point x="379" y="957"/>
      <point x="453" y="957" type="curve" smooth="yes"/>
      <point x="525" y="957"/>
      <point x="561" y="888"/>
      <point x="561" y="752" type="curve" smooth="yes"/>
      <point x="561" y="619"/>
      <point x="525" y="553"/>
      <point x="453" y="553" type="curve" smooth="yes"/>
      <point x="379" y="553"/>
      <point x="342" y="619"/>
    </contour>
  </outline>
</glyph>
<glyph name="i" format="2">
  <advance width="500"/>
  <unicode hex="0069"/>
  <anchor x="254" y="0" name="bottom"/>
  <anchor x="250" y="1561" name="top"/>
  <anchor x="459" y="1561" name="topright"/>
  <outline>
    <contour>
      <point x="383" y="1120" type="line"/>
      <point x="117" y="1120" type="line"/>
      <point x="117" y="0" type="line"/>
      <point x="383" y="0" type="line"/>
    </contour>
    <contour>
      <point x="250" y="1561" type="curve" smooth="yes"/>
      <point x="150" y="1561"/>
      <point x="104" y="1509"/>
      <point x="104" y="1407" type="curve" smooth="yes"/>
      <point x="104" y="1309"/>
      <point x="156" y="1257"/>
      <point x="250" y="1257" type="curve" smooth="yes"/>
      <point x="346" y="1257"/>
      <point x="395" y="1309"/>
      <point x="395" y="1407" type="curve" smooth="yes"/>
      <point x="395" y="1507"/>
      <point x="350" y="1561"/>
    </contour>
  </outline>
</glyph>
<glyph name="k" format="2">
  <advance width="969"/>
  <unicode hex="006B"/>
  <anchor x="514" y="0" name="bottom"/>
  <anchor x="248" y="1556" name="top"/>
  <anchor x="956" y="1556" name="topright"/>
  <outline>
    <contour>
      <point x="381" y="1556" type="line"/>
      <point x="115" y="1556" type="line"/>
      <point x="115" y="0" type="line"/>
      <point x="381" y="0" type="line"/>
      <point x="381" y="360" type="line"/>
      <point x="485" y="463" type="line"/>
      <point x="682" y="0" type="line"/>
      <point x="973" y="0" type="line"/>
      <point x="668" y="662" type="line"/>
      <point x="958" y="1120" type="line"/>
      <point x="672" y="1120" type="line"/>
      <point x="455" y="758" type="line"/>
      <point x="432" y="717"/>
      <point x="401" y="664"/>
      <point x="377" y="606" type="curve"/>
      <point x="369" y="606" type="line"/>
      <point x="379" y="694"/>
      <point x="381" y="784"/>
      <point x="381" y="879" type="curve" smooth="yes"/>
    </contour>
  </outline>
</glyph>
<glyph name="p" format="2">
  <advance width="1024"/>
  <unicode hex="0070"/>
  <anchor x="248" y="-492" name="bottom"/>
  <anchor x="563" y="1120" name="top"/>
  <anchor x="983" y="1120" name="topright"/>
  <outline>
    <contour>
      <point x="621" y="1141" type="curve" smooth="yes"/>
      <point x="520" y="1141"/>
      <point x="451" y="1104"/>
      <point x="383" y="973" type="curve"/>
      <point x="369" y="973" type="line"/>
      <point x="330" y="1120" type="line"/>
      <point x="115" y="1120" type="line"/>
      <point x="115" y="-492" type="line"/>
      <point x="381" y="-492" type="line"/>
      <point x="381" y="-43" type="line" smooth="yes"/>
      <point x="381" y="-2"/>
      <point x="379" y="61"/>
      <point x="373" y="147" type="curve"/>
      <point x="383" y="147" type="line"/>
      <point x="440" y="33"/>
      <point x="526" y="-20"/>
      <point x="629" y="-20" type="curve" smooth="yes"/>
      <point x="829" y="-20"/>
      <point x="950" y="197"/>
      <point x="950" y="557" type="curve" smooth="yes"/>
      <point x="950" y="930"/>
      <point x="831" y="1141"/>
    </contour>
    <contour>
      <point x="537" y="915" type="curve" smooth="yes"/>
      <point x="635" y="915"/>
      <point x="680" y="797"/>
      <point x="680" y="555" type="curve" smooth="yes"/>
      <point x="680" y="324"/>
      <point x="633" y="211"/>
      <point x="537" y="211" type="curve" smooth="yes"/>
      <point x="430" y="211"/>
      <point x="381" y="309"/>
      <point x="381" y="532" type="curve" smooth="yes"/>
      <point x="381" y="588" type="line" smooth="yes"/>
      <point x="381" y="817"/>
      <point x="428" y="915"/>
    </contour>
  </outline>
</glyph>
<glyph name="v" format="2">
  <advance width="909"/>
  <unicode hex="0076"/>
  <anchor x="455" y="0" name="bottom"/>
  <anchor x="457" y="1120" name="top"/>
  <anchor x="868" y="1120" name="topright"/>
  <outline>
    <contour>
      <point x="309" y="0" type="line"/>
      <point x="598" y="0" type="line"/>
      <point x="903" y="1120" type="line"/>
      <point x="627" y="1120" type="line"/>
      <point x="492" y="512" type="line" smooth="yes"/>
      <point x="473" y="424"/>
      <point x="459" y="348"/>
      <point x="457" y="287" type="curve"/>
      <point x="449" y="287" type="line"/>
      <point x="440" y="373"/>
      <point x="428" y="451"/>
      <point x="410" y="528" type="curve" smooth="yes"/>
      <point x="283" y="1120" type="line"/>
      <point x="6" y="1120" type="line"/>
    </contour>
  </outline>
</glyph>
<glyph name="x" format="2">
  <advance width="891"/>
  <unicode hex="0078"/>
  <anchor x="446" y="0" name="bottom"/>
  <anchor x="451" y="1120" name="top"/>
  <anchor x="850" y="1120" name="topright"/>
  <outline>
    <contour>
      <point x="276" y="573" type="line"/>
      <point x="16" y="0" type="line"/>
      <point x="299" y="0" type="line"/>
      <point x="440" y="360" type="line"/>
      <point x="586" y="0" type="line"/>
      <point x="874" y="0" type="line"/>
      <point x="614" y="569" type="line"/>
      <point x="862" y="1120" type="line"/>
      <point x="575" y="1120" type="line"/>
      <point x="446" y="784" type="line"/>
      <point x="315" y="1120" type="line"/>
      <point x="27" y="1120" type="line"/>
    </contour>
  </outline>
</glyph>
<glyph name="bar" format="2">
  <advance width="848"/>
  <unicode hex="007C"/>
  <outline>
    <contour>
      <point x="305" y="1573" type="line"/>
      <point x="305" y="-475" type="line"/>
      <point x="541" y="-475" type="line"/>
      <point x="541" y="1573" type="line"/>
    </contour>
  </outline>
</glyph>
<glyph name="braceright" format="2">
  <advance width="748"/>
  <unicode hex="007D"/>
  <outline>
    <contour>
      <point x="57" y="-338" type="line"/>
      <point x="395" y="-338"/>
      <point x="489" y="-240"/>
      <point x="489" y="-2" type="curve" smooth="yes"/>
      <point x="489" y="281" type="line" smooth="yes"/>
      <point x="489" y="401"/>
      <point x="553" y="463"/>
      <point x="698" y="463" type="curve"/>
      <point x="698" y="674" type="line"/>
      <point x="547" y="674"/>
      <point x="489" y="739"/>
      <point x="489" y="856" type="curve" smooth="yes"/>
      <point x="489" y="1143" type="line" smooth="yes"/>
      <point x="489" y="1395"/>
      <point x="373" y="1475"/>
      <point x="57" y="1477" type="curve"/>
      <point x="57" y="1264" type="line"/>
      <point x="162" y="1260"/>
      <point x="238" y="1237"/>
      <point x="238" y="1122" type="curve" smooth="yes"/>
      <point x="238" y="829" type="line" smooth="yes"/>
      <point x="238" y="678"/>
      <point x="289" y="598"/>
      <point x="422" y="575" type="curve"/>
      <point x="422" y="563" type="line"/>
      <point x="289" y="539"/>
      <point x="238" y="461"/>
      <point x="238" y="315" type="curve" smooth="yes"/>
      <point x="238" y="18" type="line" smooth="yes"/>
      <point x="238" y="-86"/>
      <point x="188" y="-121"/>
      <point x="57" y="-125" type="curve"/>
    </contour>
  </outline>
</glyph>
<glyph name="copyright" format="2">
  <advance width="1692"/>
  <unicode hex="00A9"/>
  <outline>
    <contour>
      <point x="838" y="-20" type="curve" smooth="yes"/>
      <point x="1278" y="-20"/>
      <point x="1606" y="289"/>
      <point x="1606" y="727" type="curve" smooth="yes"/>
      <point x="1606" y="1159"/>
      <point x="1288" y="1483"/>
      <point x="848" y="1483" type="curve" smooth="yes"/>
      <point x="422" y="1483"/>
      <point x="86" y="1178"/>
      <point x="86" y="729" type="curve" smooth="yes"/>
      <point x="86" y="305"/>
      <point x="385" y="-20"/>
    </contour>
    <contour>
      <point x="879" y="266" type="curve" smooth="yes"/>
      <point x="971" y="266"/>
      <point x="1055" y="287"/>
      <point x="1135" y="326" type="curve"/>
      <point x="1135" y="502" type="line"/>
      <point x="1057" y="463"/>
      <point x="973" y="442"/>
      <point x="897" y="442" type="curve" smooth="yes"/>
      <point x="741" y="442"/>
      <point x="666" y="530"/>
      <point x="666" y="723" type="curve" smooth="yes"/>
      <point x="666" y="924"/>
      <point x="750" y="1018"/>
      <point x="895" y="1018" type="curve" smooth="yes"/>
      <point x="956" y="1018"/>
      <point x="1026" y="1001"/>
      <point x="1096" y="967" type="curve"/>
      <point x="1174" y="1122" type="line"/>
      <point x="1077" y="1169"/>
      <point x="979" y="1194"/>
      <point x="877" y="1194" type="curve" smooth="yes"/>
      <point x="608" y="1194"/>
      <point x="451" y="1020"/>
      <point x="451" y="729" type="curve" smooth="yes"/>
      <point x="451" y="436"/>
      <point x="608" y="266"/>
    </contour>
    <contour>
      <point x="852" y="115" type="curve" smooth="yes"/>
      <point x="506" y="115"/>
      <point x="240" y="356"/>
      <point x="240" y="725" type="curve" smooth="yes"/>
      <point x="240" y="1077"/>
      <point x="481" y="1348"/>
      <point x="844" y="1348" type="curve" smooth="yes"/>
      <point x="1190" y="1348"/>
      <point x="1450" y="1100"/>
      <point x="1450" y="727" type="curve" smooth="yes"/>
      <point x="1450" y="367"/>
      <point x="1204" y="115"/>
    </contour>
  </outline>
</glyph>
<glyph name="guillemotleft" format="2">
  <advance width="1067"/>
  <unicode hex="00AB"/>
  <outline>
    <contour>
      <point x="55" y="575" type="line"/>
      <point x="55" y="547" type="line"/>
      <point x="365" y="102" type="line"/>
      <point x="555" y="205" type="line"/>
      <point x="344" y="561" type="line"/>
      <point x="555" y="920" type="line"/>
      <point x="365" y="1020" type="line"/>
    </contour>
    <contour>
      <point x="506" y="575" type="line"/>
      <point x="506" y="547" type="line"/>
      <point x="815" y="102" type="line"/>
      <point x="1006" y="205" type="line"/>
      <point x="797" y="561" type="line"/>
      <point x="1006" y="920" type="line"/>
      <point x="815" y="1020" type="line"/>
    </contour>
  </outline>
</glyph>
<glyph name="logicalnot" format="2">
  <advance width="969"/>
  <unicode hex="00AC"/>
  <outline>
    <contour>
      <point x="889" y="831" type="line"/>
      <point x="68" y="831" type="line"/>
      <point x="68" y="614" type="line"/>
      <point x="668" y="614" type="line"/>
      <point x="668" y="242" type="line"/>
      <point x="889" y="242" type="line"/>
    </contour>
  </outline>
</glyph>
<glyph name="twosuperior" format="2">
  <advance width="686"/>
  <unicode hex="00B2"/>
  <outline>
    <contour>
      <point x="606" y="850" type="line"/>
      <point x="606" y="1022" type="line"/>
      <point x="279" y="1022" type="line"/>
      <point x="319" y="1073" type="line" smooth="yes"/>
      <point x="516" y="1280"/>
      <point x="584" y="1364"/>
      <point x="584" y="1513" type="curve" smooth="yes"/>
      <point x="584" y="1649"/>
      <point x="487" y="1749"/>
      <point x="319" y="1749" type="curve" smooth="yes"/>
      <point x="205" y="1749"/>
      <point x="102" y="1692"/>
      <point x="51" y="1622" type="curve"/>
      <point x="145" y="1493" type="line"/>
      <point x="193" y="1550"/>
      <point x="240" y="1579"/>
      <point x="293" y="1579" type="curve" smooth="yes"/>
      <point x="350" y="1579"/>
      <point x="383" y="1544"/>
      <point x="383" y="1493" type="curve" smooth="yes"/>
      <point x="383" y="1417"/>
      <point x="344" y="1362"/>
      <point x="244" y="1239" type="curve" smooth="yes"/>
      <point x="59" y="1022" type="line"/>
      <point x="59" y="850" type="line"/>
    </contour>
  </outline>
</glyph>
<glyph name="threesuperior" format="2">
  <advance width="686"/>
  <unicode hex="00B3"/>
  <outline>
    <contour>
      <point x="317" y="1747" type="curve" smooth="yes"/>
      <point x="221" y="1747"/>
      <point x="131" y="1708"/>
      <point x="53" y="1634" type="curve"/>
      <point x="139" y="1505" type="line"/>
      <point x="195" y="1556"/>
      <point x="242" y="1577"/>
      <point x="299" y="1577" type="curve" smooth="yes"/>
      <point x="367" y="1577"/>
      <point x="395" y="1542"/>
      <point x="395" y="1483" type="curve" smooth="yes"/>
      <point x="395" y="1415"/>
      <point x="350" y="1374"/>
      <point x="260" y="1374" type="curve" smooth="yes"/>
      <point x="190" y="1374" type="line"/>
      <point x="190" y="1219" type="line"/>
      <point x="272" y="1219" type="line" smooth="yes"/>
      <point x="369" y="1219"/>
      <point x="414" y="1182"/>
      <point x="414" y="1106" type="curve" smooth="yes"/>
      <point x="414" y="1047"/>
      <point x="375" y="1012"/>
      <point x="295" y="1012" type="curve" smooth="yes"/>
      <point x="205" y="1012"/>
      <point x="127" y="1036"/>
      <point x="63" y="1085" type="curve"/>
      <point x="63" y="897" type="line"/>
      <point x="129" y="854"/>
      <point x="207" y="834"/>
      <point x="297" y="834" type="curve" smooth="yes"/>
      <point x="477" y="834"/>
      <point x="606" y="930"/>
      <point x="606" y="1087" type="curve" smooth="yes"/>
      <point x="606" y="1202"/>
      <point x="551" y="1274"/>
      <point x="449" y="1305" type="curve"/>
      <point x="449" y="1313" type="line"/>
      <point x="537" y="1354"/>
      <point x="584" y="1425"/>
      <point x="584" y="1528" type="curve" smooth="yes"/>
      <point x="584" y="1665"/>
      <point x="475" y="1747"/>
    </contour>
  </outline>
</glyph>
<glyph name="micro" format="2">
  <advance width="1026"/>
  <unicode hex="00B5"/>
  <outline>
    <contour>
      <point x="911" y="1120" type="line"/>
      <point x="645" y="1120" type="line"/>
      <point x="645" y="580" type="line" smooth="yes"/>
      <point x="645" y="367"/>
      <point x="618" y="217"/>
      <point x="485" y="217" type="curve" smooth="yes"/>
      <point x="410" y="217"/>
      <point x="379" y="301"/>
      <point x="379" y="463" type="curve" smooth="yes"/>
      <point x="379" y="1120" type="line"/>
      <point x="113" y="1120" type="line"/>
      <point x="113" y="-492" type="line"/>
      <point x="379" y="-492" type="line"/>
      <point x="379" y="-152" type="line" smooth="yes"/>
      <point x="379" y="-74"/>
      <point x="377" y="4"/>
      <point x="371" y="70" type="curve"/>
      <point x="377" y="70" type="line"/>
      <point x="403" y="8"/>
      <point x="436" y="-20"/>
      <point x="494" y="-20" type="curve" smooth="yes"/>
      <point x="563" y="-20"/>
      <point x="625" y="41"/>
      <point x="659" y="143" type="curve"/>
      <point x="672" y="143" type="line"/>
      <point x="702" y="0" type="line"/>
      <point x="911" y="0" type="line"/>
    </contour>
  </outline>
</glyph>
<glyph name="paragraph" format="2">
  <advance width="1024"/>
  <unicode hex="00B6"/>
  <outline>
    <contour>
      <point x="895" y="-260" type="line"/>
      <point x="895" y="1556" type="line"/>
      <point x="410" y="1556" type="line" smooth="yes"/>
      <point x="186" y="1556"/>
      <point x="88" y="1382"/>
      <point x="88" y="1042" type="curve" smooth="yes"/>
      <point x="88" y="705"/>
      <point x="180" y="541"/>
      <point x="379" y="541" type="curve" smooth="yes"/>
      <point x="414" y="541"/>
      <point x="442" y="547"/>
      <point x="467" y="559" type="curve"/>
      <point x="467" y="-260" type="line"/>
      <point x="618" y="-260" type="line"/>
      <point x="618" y="1413" type="line"/>
      <point x="743" y="1413" type="line"/>
      <point x="743" y="-260" type="line"/>
    </contour>
  </outline>
</glyph>
<glyph name="cedilla" format="2">
  <advance width="340"/>
  <unicode hex="00B8"/>
  <outline>
    <contour>
      <point x="369" y="-266" type="curve" smooth="yes"/>
      <point x="369" y="-168"/>
      <point x="303" y="-102"/>
      <point x="188" y="-82" type="curve"/>
      <point x="223" y="0" type="line"/>
      <point x="88" y="0" type="line"/>
      <point x="18" y="-168" type="line"/>
      <point x="109" y="-174"/>
      <point x="162" y="-205"/>
      <point x="162" y="-260" type="curve" smooth="yes"/>
      <point x="162" y="-307"/>
      <point x="129" y="-334"/>
      <point x="66" y="-334" type="curve" smooth="yes"/>
      <point x="35" y="-334"/>
      <point x="0" y="-330"/>
      <point x="-37" y="-319" type="curve"/>
      <point x="-37" y="-475" type="line"/>
      <point x="4" y="-485"/>
      <point x="55" y="-492"/>
      <point x="115" y="-492" type="curve" smooth="yes"/>
      <point x="279" y="-492"/>
      <point x="369" y="-408"/>
    </contour>
  </outline>
</glyph>
<glyph name="onesuperior" format="2">
  <advance width="686"/>
  <unicode hex="00B9"/>
  <outline>
    <contour>
      <point x="510" y="1726" type="line"/>
      <point x="348" y="1726" type="line"/>
      <point x="70" y="1493" type="line"/>
      <point x="166" y="1362" type="line"/>
      <point x="268" y="1444" type="line" smooth="yes"/>
      <point x="283" y="1454"/>
      <point x="299" y="1468"/>
      <point x="317" y="1489" type="curve"/>
      <point x="311" y="1415"/>
      <point x="311" y="1348"/>
      <point x="311" y="1278" type="curve" smooth="yes"/>
      <point x="311" y="850" type="line"/>
      <point x="510" y="850" type="line"/>
    </contour>
  </outline>
</glyph>
<glyph name="ordmasculine" format="2">
  <advance width="678"/>
  <unicode hex="00BA"/>
  <anchor x="336" y="737" name="bottom"/>
  <anchor x="348" y="1485" name="top"/>
  <outline>
    <contour>
      <point x="627" y="1114" type="curve" smooth="yes"/>
      <point x="627" y="1348"/>
      <point x="514" y="1479"/>
      <point x="340" y="1479" type="curve" smooth="yes"/>
      <point x="162" y="1479"/>
      <point x="51" y="1343"/>
      <point x="51" y="1114" type="curve" smooth="yes"/>
      <point x="51" y="893"/>
      <point x="158" y="750"/>
      <point x="340" y="750" type="curve" smooth="yes"/>
      <point x="522" y="750"/>
      <point x="627" y="887"/>
    </contour>
    <contour>
      <point x="244" y="1114" type="curve" smooth="yes"/>
      <point x="244" y="1253"/>
      <point x="276" y="1321"/>
      <point x="340" y="1321" type="curve" smooth="yes"/>
      <point x="406" y="1321"/>
      <point x="436" y="1253"/>
      <point x="436" y="1114" type="curve" smooth="yes"/>
      <point x="436" y="975"/>
      <point x="408" y="909"/>
      <point x="340" y="909" type="curve" smooth="yes"/>
      <point x="274" y="909"/>
      <point x="244" y="975"/>
    </contour>
  </outline>
</glyph>
<glyph name="onequarter" format="2">
  <advance width="1634"/>
  <unicode hex="00BC"/>
  <outline>
    <contour>
      <point x="371" y="0" type="line"/>
      <point x="584" y="0" type="line"/>
      <point x="1309" y="1462" type="line"/>
      <point x="1094" y="1462" type="line"/>
    </contour>
    <contour>
      <point x="303" y="586" type="line"/>
      <point x="502" y="586" type="line"/>
      <point x="502" y="1462" type="line"/>
      <point x="340" y="1462" type="line"/>
      <point x="61" y="1227" type="line"/>
      <point x="158" y="1098" type="line"/>
      <point x="260" y="1178" type="line" smooth="yes"/>
      <point x="274" y="1188"/>
      <point x="291" y="1204"/>
      <point x="309" y="1225" type="curve"/>
      <point x="303" y="1149"/>
      <point x="303" y="1081"/>
      <point x="303" y="1014" type="curve" smooth="yes"/>
    </contour>
    <contour>
      <point x="1305" y="0" type="line"/>
      <point x="1499" y="0" type="line"/>
      <point x="1499" y="158" type="line"/>
      <point x="1606" y="158" type="line"/>
      <point x="1606" y="319" type="line"/>
      <point x="1499" y="319" type="line"/>
      <point x="1499" y="879" type="line"/>
      <point x="1286" y="879" type="line"/>
      <point x="977" y="305" type="line"/>
      <point x="977" y="158" type="line"/>
      <point x="1305" y="158" type="line"/>
    </contour>
    <contour>
      <point x="1141" y="319" type="line"/>
      <point x="1260" y="545" type="line" smooth="yes"/>
      <point x="1276" y="575"/>
      <point x="1292" y="614"/>
      <point x="1311" y="664" type="curve"/>
      <point x="1307" y="625"/>
      <point x="1305" y="575"/>
      <point x="1305" y="520" type="curve" smooth="yes"/>
      <point x="1305" y="319" type="line"/>
    </contour>
  </outline>
</glyph>
<glyph name="onehalf" format="2">
  <advance width="1657"/>
  <unicode hex="00BD"/>
  <outline>
    <contour>
      <point x="340" y="0" type="line"/>
      <point x="553" y="0" type="line"/>
      <point x="1278" y="1462" type="line"/>
      <point x="1063" y="1462" type="line"/>
    </contour>
    <contour>
      <point x="303" y="586" type="line"/>
      <point x="502" y="586" type="line"/>
      <point x="502" y="1462" type="line"/>
      <point x="340" y="1462" type="line"/>
      <point x="61" y="1227" type="line"/>
      <point x="158" y="1098" type="line"/>
      <point x="260" y="1178" type="line" smooth="yes"/>
      <point x="274" y="1188"/>
      <point x="291" y="1204"/>
      <point x="309" y="1225" type="curve"/>
      <point x="303" y="1149"/>
      <point x="303" y="1081"/>
      <point x="303" y="1014" type="curve" smooth="yes"/>
    </contour>
    <contour>
      <point x="1030" y="0" type="line"/>
      <point x="1577" y="0" type="line"/>
      <point x="1577" y="172" type="line"/>
      <point x="1249" y="172" type="line"/>
      <point x="1391" y="326" type="line" smooth="yes"/>
      <point x="1483" y="428"/>
      <point x="1554" y="514"/>
      <point x="1554" y="664" type="curve" smooth="yes"/>
      <point x="1554" y="799"/>
      <point x="1458" y="899"/>
      <point x="1290" y="899" type="curve" smooth="yes"/>
      <point x="1176" y="899"/>
      <point x="1073" y="842"/>
      <point x="1022" y="772" type="curve"/>
      <point x="1116" y="641" type="line"/>
      <point x="1163" y="700"/>
      <point x="1210" y="727"/>
      <point x="1264" y="727" type="curve" smooth="yes"/>
      <point x="1321" y="727"/>
      <point x="1356" y="690"/>
      <point x="1356" y="637" type="curve" smooth="yes"/>
      <point x="1356" y="559"/>
      <point x="1321" y="502"/>
      <point x="1214" y="381" type="curve" smooth="yes"/>
      <point x="1030" y="172" type="line"/>
    </contour>
  </outline>
</glyph>
<glyph name="AE" format="2">
  <advance width="1417"/>
  <unicode hex="00C6"/>
  <anchor x="709" y="0" name="bottom"/>
  <anchor x="715" y="1462" name="top"/>
  <outline>
    <contour>
      <point x="1331" y="0" type="line"/>
      <point x="1331" y="244" type="line"/>
      <point x="954" y="244" type="line"/>
      <point x="954" y="639" type="line"/>
      <point x="1305" y="639" type="line"/>
      <point x="1305" y="879" type="line"/>
      <point x="954" y="879" type="line"/>
      <point x="954" y="1221" type="line"/>
      <point x="1331" y="1221" type="line"/>
      <point x="1331" y="1462" type="line"/>
      <point x="440" y="1462" type="line"/>
      <point x="-6" y="0" type="line"/>
      <point x="299" y="0" type="line"/>
      <point x="397" y="352" type="line"/>
      <point x="678" y="352" type="line"/>
      <point x="678" y="0" type="line"/>
    </contour>
    <contour>
      <point x="463" y="596" type="line"/>
      <point x="633" y="1221" type="line"/>
      <point x="678" y="1221" type="line"/>
      <point x="678" y="596" type="line"/>
    </contour>
  </outline>
</glyph>
<glyph name="multiply" format="2">
  <advance width="969"/>
  <unicode hex="00D7"/>
  <outline>
    <contour>
      <point x="745" y="1137" type="line"/>
      <point x="481" y="877" type="line"/>
      <point x="219" y="1135" type="line"/>
      <point x="72" y="983" type="line"/>
      <point x="330" y="723" type="line"/>
      <point x="72" y="463" type="line"/>
      <point x="217" y="311" type="line"/>
      <point x="481" y="571" type="line"/>
      <point x="743" y="311" type="line"/>
      <point x="893" y="461" type="line"/>
      <point x="633" y="723" type="line"/>
      <point x="897" y="987" type="line"/>
    </contour>
  </outline>
</glyph>
<glyph name="Oslash" format="2">
  <advance width="1214"/>
  <unicode hex="00D8"/>
  <anchor x="608" y="0" name="bottom"/>
  <anchor x="608" y="1462" name="top"/>
  <outline>
    <contour>
      <point x="1126" y="733" type="curve" smooth="yes"/>
      <point x="1126" y="985"/>
      <point x="1079" y="1178"/>
      <point x="983" y="1303" type="curve"/>
      <point x="1071" y="1481" type="line"/>
      <point x="932" y="1546" type="line"/>
      <point x="864" y="1409" type="line"/>
      <point x="793" y="1458"/>
      <point x="707" y="1485"/>
      <point x="608" y="1485" type="curve" smooth="yes"/>
      <point x="268" y="1485"/>
      <point x="88" y="1227"/>
      <point x="88" y="735" type="curve" smooth="yes"/>
      <point x="88" y="492"/>
      <point x="129" y="301"/>
      <point x="242" y="150" type="curve"/>
      <point x="147" y="-39" type="line"/>
      <point x="289" y="-104" type="line"/>
      <point x="360" y="47" type="line"/>
      <point x="430" y="2"/>
      <point x="512" y="-20"/>
      <point x="608" y="-20" type="curve" smooth="yes"/>
      <point x="946" y="-20"/>
      <point x="1126" y="244"/>
    </contour>
    <contour>
      <point x="844" y="733" type="curve" smooth="yes"/>
      <point x="844" y="389"/>
      <point x="764" y="217"/>
      <point x="608" y="217" type="curve" smooth="yes"/>
      <point x="553" y="217"/>
      <point x="506" y="238"/>
      <point x="471" y="281" type="curve"/>
      <point x="821" y="987" type="line"/>
      <point x="836" y="918"/>
      <point x="844" y="831"/>
    </contour>
    <contour>
      <point x="373" y="733" type="curve" smooth="yes"/>
      <point x="373" y="1073"/>
      <point x="451" y="1247"/>
      <point x="610" y="1247" type="curve" smooth="yes"/>
      <point x="670" y="1247"/>
      <point x="717" y="1223"/>
      <point x="756" y="1169" type="curve"/>
      <point x="399" y="455" type="line"/>
      <point x="381" y="528"/>
      <point x="373" y="621"/>
    </contour>
  </outline>
</glyph>
<glyph name="Thorn" format="2">
  <advance width="973"/>
  <unicode hex="00DE"/>
  <anchor x="487" y="0" name="bottom"/>
  <anchor x="487" y="1462" name="top"/>
  <outline>
    <contour>
      <point x="928" y="784" type="curve" smooth="yes"/>
      <point x="928" y="1077"/>
      <point x="788" y="1233"/>
      <point x="498" y="1233" type="curve" smooth="yes"/>
      <point x="412" y="1233" type="line"/>
      <point x="412" y="1462" type="line"/>
      <point x="131" y="1462" type="line"/>
      <point x="131" y="0" type="line"/>
      <point x="412" y="0" type="line"/>
      <point x="412" y="289" type="line"/>
      <point x="492" y="289" type="line" smooth="yes"/>
      <point x="797" y="289"/>
      <point x="928" y="498"/>
    </contour>
    <contour>
      <point x="412" y="528" type="line"/>
      <point x="412" y="993" type="line"/>
      <point x="483" y="993" type="line" smooth="yes"/>
      <point x="598" y="993"/>
      <point x="651" y="926"/>
      <point x="651" y="780" type="curve" smooth="yes"/>
      <point x="651" y="602"/>
      <point x="592" y="528"/>
      <point x="465" y="528" type="curve" smooth="yes"/>
    </contour>
  </outline>
</glyph>
<glyph name="ae" format="2">
  <advance width="1423"/>
  <unicode hex="00E6"/>
  <anchor x="713" y="0" name="bottom"/>
  <anchor x="725" y="1120" name="top"/>
  <outline>
    <contour>
      <point x="971" y="1139" type="curve" smooth="yes"/>
      <point x="858" y="1139"/>
      <point x="776" y="1100"/>
      <point x="717" y="1022" type="curve"/>
      <point x="668" y="1102"/>
      <point x="590" y="1141"/>
      <point x="473" y="1141" type="curve" smooth="yes"/>
      <point x="354" y="1141"/>
      <point x="240" y="1106"/>
      <point x="145" y="1047" type="curve"/>
      <point x="219" y="848" type="line"/>
      <point x="309" y="901"/>
      <point x="385" y="926"/>
      <point x="449" y="926" type="curve" smooth="yes"/>
      <point x="532" y="926"/>
      <point x="571" y="864"/>
      <point x="571" y="743" type="curve" smooth="yes"/>
      <point x="571" y="698" type="line"/>
      <point x="432" y="692" type="line" smooth="yes"/>
      <point x="193" y="682"/>
      <point x="59" y="563"/>
      <point x="59" y="330" type="curve" smooth="yes"/>
      <point x="59" y="150"/>
      <point x="143" y="-20"/>
      <point x="342" y="-20" type="curve" smooth="yes"/>
      <point x="473" y="-20"/>
      <point x="573" y="41"/>
      <point x="655" y="174" type="curve"/>
      <point x="723" y="43"/>
      <point x="856" y="-20"/>
      <point x="1004" y="-20" type="curve" smooth="yes"/>
      <point x="1122" y="-20"/>
      <point x="1217" y="4"/>
      <point x="1305" y="57" type="curve"/>
      <point x="1305" y="279" type="line"/>
      <point x="1212" y="219"/>
      <point x="1128" y="195"/>
      <point x="1034" y="195" type="curve" smooth="yes"/>
      <point x="893" y="195"/>
      <point x="825" y="287"/>
      <point x="823" y="483" type="curve"/>
      <point x="1356" y="483" type="line"/>
      <point x="1356" y="633" type="line" smooth="yes"/>
      <point x="1356" y="942"/>
      <point x="1225" y="1139"/>
    </contour>
    <contour>
      <point x="571" y="520" type="line"/>
      <point x="571" y="418" type="line" smooth="yes"/>
      <point x="571" y="281"/>
      <point x="512" y="193"/>
      <point x="428" y="193" type="curve" smooth="yes"/>
      <point x="362" y="193"/>
      <point x="328" y="242"/>
      <point x="328" y="342" type="curve" smooth="yes"/>
      <point x="328" y="455"/>
      <point x="383" y="510"/>
      <point x="496" y="516" type="curve" smooth="yes"/>
    </contour>
    <contour>
      <point x="969" y="928" type="curve" smooth="yes"/>
      <point x="1059" y="928"/>
      <point x="1108" y="836"/>
      <point x="1108" y="676" type="curve"/>
      <point x="823" y="676" type="line"/>
      <point x="827" y="854"/>
      <point x="885" y="928"/>
    </contour>
  </outline>
</glyph>
<glyph name="oslash" format="2">
  <advance width="999"/>
  <unicode hex="00F8"/>
  <anchor x="500" y="0" name="bottom"/>
  <anchor x="504" y="1120" name="top"/>
  <outline>
    <contour>
      <point x="926" y="563" type="curve" smooth="yes"/>
      <point x="926" y="743"/>
      <point x="883" y="893"/>
      <point x="805" y="993" type="curve"/>
      <point x="881" y="1151" type="line"/>
      <point x="748" y="1214" type="line"/>
      <point x="684" y="1090" type="line"/>
      <point x="631" y="1124"/>
      <point x="571" y="1141"/>
      <point x="502" y="1141" type="curve" smooth="yes"/>
      <point x="229" y="1141"/>
      <point x="74" y="932"/>
      <point x="74" y="563" type="curve" smooth="yes"/>
      <point x="74" y="381"/>
      <point x="111" y="240"/>
      <point x="201" y="119" type="curve"/>
      <point x="111" y="-61" type="line"/>
      <point x="246" y="-125" type="line"/>
      <point x="317" y="25" type="line"/>
      <point x="371" y="-6"/>
      <point x="430" y="-20"/>
      <point x="498" y="-20" type="curve" smooth="yes"/>
      <point x="772" y="-20"/>
      <point x="926" y="197"/>
    </contour>
    <contour>
      <point x="332" y="559" type="curve" smooth="yes"/>
      <point x="332" y="807"/>
      <point x="381" y="928"/>
      <point x="500" y="928" type="curve" smooth="yes"/>
      <point x="539" y="928"/>
      <point x="571" y="915"/>
      <point x="596" y="887" type="curve"/>
      <point x="346" y="387" type="line"/>
      <point x="336" y="432"/>
      <point x="332" y="489"/>
    </contour>
    <contour>
      <point x="668" y="563" type="curve" smooth="yes"/>
      <point x="668" y="317"/>
      <point x="621" y="190"/>
      <point x="498" y="190" type="curve" smooth="yes"/>
      <point x="463" y="190"/>
      <point x="432" y="203"/>
      <point x="410" y="227" type="curve"/>
      <point x="657" y="723" type="line"/>
      <point x="664" y="680"/>
      <point x="668" y="627"/>
    </contour>
  </outline>
</glyph>
<glyph name="thorn" format="2">
  <advance width="1024"/>
  <unicode hex="00FE"/>
  <anchor x="512" y="-492" name="bottom"/>
  <anchor x="512" y="1556" name="top"/>
  <outline>
    <contour>
      <point x="950" y="557" type="curve" smooth="yes"/>
      <point x="950" y="928"/>
      <point x="831" y="1141"/>
      <point x="621" y="1141" type="curve" smooth="yes"/>
      <point x="520" y="1141"/>
      <point x="451" y="1104"/>
      <point x="381" y="973" type="curve"/>
      <point x="373" y="973" type="line"/>
      <point x="379" y="1040"/>
      <point x="381" y="1108"/>
      <point x="381" y="1178" type="curve" smooth="yes"/>
      <point x="381" y="1556" type="line"/>
      <point x="115" y="1556" type="line"/>
      <point x="115" y="-492" type="line"/>
      <point x="383" y="-492" type="line"/>
      <point x="383" y="-43" type="line" smooth="yes"/>
      <point x="383" y="-2"/>
      <point x="379" y="61"/>
      <point x="373" y="147" type="curve"/>
      <point x="381" y="147" type="line"/>
      <point x="438" y="35"/>
      <point x="524" y="-20"/>
      <point x="629" y="-20" type="curve" smooth="yes"/>
      <point x="829" y="-20"/>
      <point x="950" y="197"/>
    </contour>
    <contour>
      <point x="680" y="555" type="curve" smooth="yes"/>
      <point x="680" y="346"/>
      <point x="643" y="211"/>
      <point x="537" y="211" type="curve" smooth="yes"/>
      <point x="430" y="211"/>
      <point x="381" y="309"/>
      <point x="381" y="532" type="curve" smooth="yes"/>
      <point x="381" y="588" type="line" smooth="yes"/>
      <point x="381" y="817"/>
      <point x="428" y="915"/>
      <point x="537" y="915" type="curve" smooth="yes"/>
      <point x="633" y="915"/>
      <point x="680" y="801"/>
    </contour>
  </outline>
</glyph>
<glyph name="dcroat" format="2">
  <advance width="1024"/>
  <unicode hex="0111"/>
  <anchor x="512" y="0" name="bottom"/>
  <anchor x="512" y="1556" name="top"/>
  <outline>
    <contour>
      <point x="406" y="-20" type="curve" smooth="yes"/>
      <point x="514" y="-20"/>
      <point x="575" y="23"/>
      <point x="643" y="123" type="curve"/>
      <point x="657" y="123" type="line"/>
      <point x="696" y="0" type="line"/>
      <point x="909" y="0" type="line"/>
      <point x="909" y="1204" type="line"/>
      <point x="1032" y="1204" type="line"/>
      <point x="1032" y="1395" type="line"/>
      <point x="909" y="1395" type="line"/>
      <point x="909" y="1556" type="line"/>
      <point x="643" y="1556" type="line"/>
      <point x="643" y="1395" type="line"/>
      <point x="455" y="1395" type="line"/>
      <point x="455" y="1204" type="line"/>
      <point x="643" y="1204" type="line"/>
      <point x="643" y="1133" type="line" smooth="yes"/>
      <point x="643" y="1092"/>
      <point x="647" y="1026"/>
      <point x="651" y="942" type="curve"/>
      <point x="641" y="942" type="line"/>
      <point x="584" y="1053"/>
      <point x="500" y="1106"/>
      <point x="397" y="1106" type="curve" smooth="yes"/>
      <point x="193" y="1106"/>
      <point x="74" y="899"/>
      <point x="74" y="547" type="curve" smooth="yes"/>
      <point x="74" y="193"/>
      <point x="190" y="-20"/>
    </contour>
    <contour>
      <point x="485" y="203" type="curve" smooth="yes"/>
      <point x="393" y="203"/>
      <point x="344" y="317"/>
      <point x="344" y="547" type="curve" smooth="yes"/>
      <point x="344" y="764"/>
      <point x="389" y="874"/>
      <point x="485" y="874" type="curve" smooth="yes"/>
      <point x="596" y="874"/>
      <point x="643" y="780"/>
      <point x="643" y="569" type="curve" smooth="yes"/>
      <point x="643" y="516" type="line" smooth="yes"/>
      <point x="643" y="299"/>
      <point x="592" y="203"/>
    </contour>
  </outline>
</glyph>
<glyph name="Hbar" format="2">
  <advance width="1186"/>
  <unicode hex="0126"/>
  <anchor x="594" y="0" name="bottom"/>
  <anchor x="594" y="1462" name="top"/>
  <outline>
    <contour>
      <point x="133" y="0" type="line"/>
      <point x="412" y="0" type="line"/>
      <point x="412" y="639" type="line"/>
      <point x="776" y="639" type="line"/>
      <point x="776" y="0" type="line"/>
      <point x="1057" y="0" type="line"/>
      <point x="1057" y="1075" type="line"/>
      <point x="1194" y="1075" type="line"/>
      <point x="1194" y="1268" type="line"/>
      <point x="1057" y="1268" type="line"/>
      <point x="1057" y="1462" type="line"/>
      <point x="776" y="1462" type="line"/>
      <point x="776" y="1268" type="line"/>
      <point x="412" y="1268" type="line"/>
      <point x="412" y="1462" type="line"/>
      <point x="133" y="1462" type="line"/>
      <point x="133" y="1268" type="line"/>
      <point x="-6" y="1268" type="line"/>
      <point x="-6" y="1075" type="line"/>
      <point x="133" y="1075" type="line"/>
    </contour>
    <contour>
      <point x="412" y="883" type="line"/>
      <point x="412" y="1075" type="line"/>
      <point x="776" y="1075" type="line"/>
      <point x="776" y="883" type="line"/>
    </contour>
  </outline>
</glyph>
<glyph name="hbar" format="2">
  <advance width="1026"/>
  <unicode hex="0127"/>
  <anchor x="514" y="0" name="bottom"/>
  <anchor x="248" y="1556" name="top"/>
  <outline>
    <contour>
      <point x="381" y="1556" type="line"/>
      <point x="113" y="1556" type="line"/>
      <point x="113" y="1393" type="line"/>
      <point x="-4" y="1393" type="line"/>
      <point x="-4" y="1202" type="line"/>
      <point x="113" y="1202" type="line"/>
      <point x="113" y="0" type="line"/>
      <point x="381" y="0" type="line"/>
      <point x="381" y="504" type="line" smooth="yes"/>
      <point x="381" y="774"/>
      <point x="422" y="868"/>
      <point x="537" y="868" type="curve" smooth="yes"/>
      <point x="612" y="868"/>
      <point x="645" y="793"/>
      <point x="645" y="629" type="curve" smooth="yes"/>
      <point x="645" y="0" type="line"/>
      <point x="913" y="0" type="line"/>
      <point x="913" y="707" type="line" smooth="yes"/>
      <point x="913" y="963"/>
      <point x="811" y="1106"/>
      <point x="616" y="1106" type="curve" smooth="yes"/>
      <point x="504" y="1106"/>
      <point x="420" y="1051"/>
      <point x="375" y="944" type="curve"/>
      <point x="360" y="944" type="line"/>
      <point x="375" y="1018"/>
      <point x="381" y="1081"/>
      <point x="381" y="1130" type="curve" smooth="yes"/>
      <point x="381" y="1202" type="line"/>
      <point x="584" y="1202" type="line"/>
      <point x="584" y="1393" type="line"/>
      <point x="381" y="1393" type="line"/>
    </contour>
  </outline>
</glyph>
<glyph name="idotless" format="2">
  <advance width="500"/>
  <unicode hex="0131"/>
  <anchor x="252" y="0" name="bottom"/>
  <anchor x="248" y="1120" name="top"/>
  <outline>
    <contour>
      <point x="383" y="0" type="line"/>
      <point x="383" y="1120" type="line"/>
      <point x="117" y="1120" type="line"/>
      <point x="117" y="0" type="line"/>
    </contour>
  </outline>
</glyph>
<glyph name="kgreenlandic" format="2">
  <advance width="969"/>
  <unicode hex="0138"/>
  <anchor x="485" y="0" name="bottom"/>
  <anchor x="485" y="1120" name="top"/>
  <outline>
    <contour>
      <point x="958" y="1120" type="line"/>
      <point x="672" y="1120" type="line"/>
      <point x="451" y="748" type="line" smooth="yes"/>
      <point x="428" y="711"/>
      <point x="401" y="659"/>
      <point x="377" y="606" type="curve"/>
      <point x="369" y="606" type="line"/>
      <point x="379" y="692"/>
      <point x="381" y="782"/>
      <point x="381" y="879" type="curve" smooth="yes"/>
      <point x="381" y="1120" type="line"/>
      <point x="115" y="1120" type="line"/>
      <point x="115" y="0" type="line"/>
      <point x="381" y="0" type="line"/>
      <point x="381" y="360" type="line"/>
      <point x="485" y="463" type="line"/>
      <point x="682" y="0" type="line"/>
      <point x="973" y="0" type="line"/>
      <point x="668" y="662" type="line"/>
    </contour>
  </outline>
</glyph>
<glyph name="lslash" format="2">
  <advance width="584"/>
  <unicode hex="0142"/>
  <anchor x="293" y="0" name="bottom"/>
  <anchor x="293" y="1556" name="top"/>
  <outline>
    <contour>
      <point x="160" y="0" type="line"/>
      <point x="426" y="0" type="line"/>
      <point x="426" y="731" type="line"/>
      <point x="637" y="899" type="line"/>
      <point x="506" y="1065" type="line"/>
      <point x="426" y="1004" type="line"/>
      <point x="426" y="1556" type="line"/>
      <point x="160" y="1556" type="line"/>
      <point x="160" y="805" type="line"/>
      <point x="-51" y="639" type="line"/>
      <point x="80" y="471" type="line"/>
      <point x="160" y="535" type="line"/>
    </contour>
  </outline>
</glyph>
<glyph name="Uogonek" format="2">
  <advance width="1151"/>
  <unicode hex="0172"/>
  <anchor x="575" y="-479" name="bottom"/>
  <anchor x="575" y="1462" name="top"/>
  <outline>
    <contour>
      <point x="698" y="-215" type="curve" smooth="yes"/>
      <point x="698" y="-141"/>
      <point x="745" y="-59"/>
      <point x="895" y="90" type="curve"/>
      <point x="647" y="0" type="line"/>
      <point x="545" y="-82"/>
      <point x="492" y="-166"/>
      <point x="492" y="-262" type="curve" smooth="yes"/>
      <point x="492" y="-397"/>
      <point x="561" y="-479"/>
      <point x="717" y="-479" type="curve" smooth="yes"/>
      <point x="764" y="-479"/>
      <point x="823" y="-471"/>
      <point x="864" y="-457" type="curve"/>
      <point x="864" y="-276" type="line"/>
      <point x="846" y="-285"/>
      <point x="803" y="-295"/>
      <point x="776" y="-295" type="curve" smooth="yes"/>
      <point x="731" y="-295"/>
      <point x="698" y="-268"/>
    </contour>
    <component base="U"/>
  </outline>
</glyph>
<glyph name="longs" format="2">
  <advance width="575"/>
  <unicode hex="017F"/>
  <anchor x="289" y="0" name="bottom"/>
  <anchor x="371" y="1567" name="top"/>
  <outline>
    <contour>
      <point x="485" y="1341" type="curve" smooth="yes"/>
      <point x="518" y="1341"/>
      <point x="555" y="1333"/>
      <point x="590" y="1321" type="curve"/>
      <point x="645" y="1522" type="line"/>
      <point x="563" y="1554"/>
      <point x="506" y="1567"/>
      <point x="430" y="1567" type="curve" smooth="yes"/>
      <point x="221" y="1567"/>
      <point x="137" y="1438"/>
      <point x="137" y="1155" type="curve" smooth="yes"/>
      <point x="137" y="0" type="line"/>
      <point x="406" y="0" type="line"/>
      <point x="406" y="1174" type="line" smooth="yes"/>
      <point x="408" y="1294"/>
      <point x="426" y="1341"/>
    </contour>
  </outline>
</glyph>
<glyph name="uni0181" format="2">
  <advance width="1309"/>
  <unicode hex="0181"/>
  <anchor x="653" y="0" name="bottom"/>
  <anchor x="653" y="1462" name="top"/>
  <outline>
    <contour>
      <point x="360" y="0" type="line"/>
      <point x="788" y="0" type="line" smooth="yes"/>
      <point x="1061" y="0"/>
      <point x="1223" y="164"/>
      <point x="1223" y="424" type="curve" smooth="yes"/>
      <point x="1223" y="610"/>
      <point x="1153" y="723"/>
      <point x="999" y="766" type="curve"/>
      <point x="999" y="776" type="line"/>
      <point x="1120" y="809"/>
      <point x="1196" y="930"/>
      <point x="1196" y="1102" type="curve" smooth="yes"/>
      <point x="1196" y="1346"/>
      <point x="1047" y="1462"/>
      <point x="743" y="1462" type="curve" smooth="yes"/>
      <point x="358" y="1462" type="line" smooth="yes"/>
      <point x="94" y="1462"/>
      <point x="12" y="1317"/>
      <point x="12" y="1147" type="curve" smooth="yes"/>
      <point x="12" y="1075"/>
      <point x="20" y="1020"/>
      <point x="29" y="999" type="curve"/>
      <point x="254" y="999" type="line"/>
      <point x="248" y="1020"/>
      <point x="238" y="1061"/>
      <point x="238" y="1122" type="curve" smooth="yes"/>
      <point x="238" y="1174"/>
      <point x="264" y="1233"/>
      <point x="319" y="1233" type="curve" smooth="yes"/>
      <point x="360" y="1233" type="line"/>
    </contour>
    <contour>
      <point x="639" y="236" type="line"/>
      <point x="639" y="647" type="line"/>
      <point x="756" y="647" type="line" smooth="yes"/>
      <point x="870" y="647"/>
      <point x="934" y="575"/>
      <point x="934" y="446" type="curve" smooth="yes"/>
      <point x="934" y="305"/>
      <point x="879" y="236"/>
      <point x="766" y="236" type="curve" smooth="yes"/>
    </contour>
    <contour>
      <point x="639" y="870" type="line"/>
      <point x="639" y="1233" type="line"/>
      <point x="739" y="1233" type="line" smooth="yes"/>
      <point x="854" y="1233"/>
      <point x="911" y="1174"/>
      <point x="911" y="1063" type="curve" smooth="yes"/>
      <point x="911" y="936"/>
      <point x="856" y="870"/>
      <point x="743" y="870" type="curve" smooth="yes"/>
    </contour>
  </outline>
</glyph>
<glyph name="uni0183" format="2">
  <advance width="1024"/>
  <unicode hex="0183"/>
  <anchor x="512" y="0" name="bottom"/>
  <anchor x="512" y="1556" name="top"/>
  <outline>
    <contour>
      <point x="623" y="-20" type="curve" smooth="yes"/>
      <point x="831" y="-20"/>
      <point x="950" y="188"/>
      <point x="950" y="545" type="curve" smooth="yes"/>
      <point x="950" y="903"/>
      <point x="829" y="1106"/>
      <point x="627" y="1106" type="curve" smooth="yes"/>
      <point x="524" y="1106"/>
      <point x="442" y="1057"/>
      <point x="383" y="942" type="curve"/>
      <point x="373" y="942" type="line"/>
      <point x="379" y="1028"/>
      <point x="381" y="1094"/>
      <point x="381" y="1137" type="curve" smooth="yes"/>
      <point x="381" y="1333" type="line"/>
      <point x="848" y="1333" type="line"/>
      <point x="848" y="1556" type="line"/>
      <point x="115" y="1556" type="line"/>
      <point x="115" y="0" type="line"/>
      <point x="330" y="0" type="line"/>
      <point x="369" y="121" type="line"/>
      <point x="383" y="121" type="line"/>
      <point x="455" y="14"/>
      <point x="522" y="-20"/>
    </contour>
    <contour>
      <point x="539" y="205" type="curve" smooth="yes"/>
      <point x="430" y="205"/>
      <point x="381" y="315"/>
      <point x="381" y="537" type="curve" smooth="yes"/>
      <point x="381" y="573" type="line" smooth="yes"/>
      <point x="381" y="768"/>
      <point x="418" y="877"/>
      <point x="537" y="877" type="curve" smooth="yes"/>
      <point x="635" y="877"/>
      <point x="680" y="768"/>
      <point x="680" y="547" type="curve" smooth="yes"/>
      <point x="680" y="311"/>
      <point x="631" y="205"/>
    </contour>
  </outline>
</glyph>
<glyph name="uni0184" format="2">
  <advance width="1055"/>
  <unicode hex="0184"/>
  <anchor x="528" y="0" name="bottom"/>
  <anchor x="528" y="1462" name="top"/>
  <outline>
    <contour>
      <point x="553" y="-20" type="curve" smooth="yes"/>
      <point x="850" y="-20"/>
      <point x="993" y="158"/>
      <point x="993" y="444" type="curve" smooth="yes"/>
      <point x="993" y="713"/>
      <point x="850" y="899"/>
      <point x="516" y="899" type="curve" smooth="yes"/>
      <point x="403" y="899" type="line"/>
      <point x="403" y="1462" type="line"/>
      <point x="123" y="1462" type="line"/>
      <point x="123" y="428" type="line" smooth="yes"/>
      <point x="123" y="111"/>
      <point x="279" y="-20"/>
    </contour>
    <contour>
      <point x="545" y="221" type="curve" smooth="yes"/>
      <point x="455" y="221"/>
      <point x="403" y="287"/>
      <point x="403" y="446" type="curve" smooth="yes"/>
      <point x="403" y="655" type="line"/>
      <point x="479" y="655" type="line" smooth="yes"/>
      <point x="621" y="655"/>
      <point x="711" y="614"/>
      <point x="711" y="444" type="curve" smooth="yes"/>
      <point x="711" y="285"/>
      <point x="639" y="221"/>
    </contour>
  </outline>
</glyph>
<glyph name="uni0186" format="2">
  <advance width="989"/>
  <unicode hex="0186"/>
  <anchor x="414" y="0" name="bottom"/>
  <anchor x="414" y="1462" name="top"/>
  <outline>
    <contour>
      <point x="379" y="-20" type="curve"/>
      <point x="709" y="-20"/>
      <point x="901" y="266"/>
      <point x="901" y="745" type="curve"/>
      <point x="901" y="1196"/>
      <point x="729" y="1483"/>
      <point x="389" y="1483" type="curve" smooth="yes"/>
      <point x="272" y="1483"/>
      <point x="154" y="1454"/>
      <point x="49" y="1393" type="curve"/>
      <point x="129" y="1161" type="line"/>
      <point x="201" y="1210"/>
      <point x="276" y="1241"/>
      <point x="358" y="1241" type="curve" smooth="yes"/>
      <point x="530" y="1241"/>
      <point x="610" y="1024"/>
      <point x="610" y="727" type="curve"/>
      <point x="610" y="401"/>
      <point x="514" y="223"/>
      <point x="342" y="223" type="curve" smooth="yes"/>
      <point x="254" y="223"/>
      <point x="172" y="258"/>
      <point x="92" y="301" type="curve"/>
      <point x="92" y="51" type="line"/>
      <point x="176" y="4"/>
      <point x="268" y="-20"/>
    </contour>
  </outline>
</glyph>
<glyph name="uni0187" format="2">
  <advance width="989"/>
  <unicode hex="0187"/>
  <anchor x="567" y="0" name="bottom"/>
  <anchor x="588" y="1729" name="top"/>
  <outline>
    <contour>
      <point x="969" y="1796" type="curve" smooth="yes"/>
      <point x="846" y="1796"/>
      <point x="715" y="1716"/>
      <point x="715" y="1513" type="curve" smooth="yes"/>
      <point x="715" y="1473" type="line"/>
      <point x="682" y="1479"/>
      <point x="647" y="1483"/>
      <point x="612" y="1483" type="curve" smooth="yes"/>
      <point x="276" y="1483"/>
      <point x="88" y="1165"/>
      <point x="88" y="729" type="curve" smooth="yes"/>
      <point x="88" y="250"/>
      <point x="276" y="-20"/>
      <point x="606" y="-20" type="curve" smooth="yes"/>
      <point x="717" y="-20"/>
      <point x="813" y="4"/>
      <point x="897" y="51" type="curve"/>
      <point x="897" y="301" type="line"/>
      <point x="817" y="258"/>
      <point x="737" y="223"/>
      <point x="647" y="223" type="curve" smooth="yes"/>
      <point x="475" y="223"/>
      <point x="379" y="401"/>
      <point x="379" y="727" type="curve" smooth="yes"/>
      <point x="379" y="1024"/>
      <point x="461" y="1241"/>
      <point x="633" y="1241" type="curve" smooth="yes"/>
      <point x="717" y="1241"/>
      <point x="788" y="1210"/>
      <point x="860" y="1161" type="curve"/>
      <point x="940" y="1393" type="line"/>
      <point x="940" y="1450" type="line" smooth="yes"/>
      <point x="940" y="1534"/>
      <point x="969" y="1561"/>
      <point x="1014" y="1561" type="curve" smooth="yes"/>
      <point x="1051" y="1561"/>
      <point x="1083" y="1546"/>
      <point x="1102" y="1538" type="curve"/>
      <point x="1102" y="1769" type="line"/>
      <point x="1079" y="1782"/>
      <point x="1032" y="1796"/>
    </contour>
  </outline>
</glyph>
<glyph name="uni0188" format="2">
  <advance width="817"/>
  <unicode hex="0188"/>
  <anchor x="492" y="0" name="bottom"/>
  <anchor x="475" y="1567" name="top"/>
  <outline>
    <contour>
      <point x="494" y="-20" type="curve" smooth="yes"/>
      <point x="586" y="-20"/>
      <point x="678" y="6"/>
      <point x="750" y="63" type="curve"/>
      <point x="750" y="291" type="line"/>
      <point x="676" y="238"/>
      <point x="598" y="209"/>
      <point x="522" y="209" type="curve" smooth="yes"/>
      <point x="406" y="209"/>
      <point x="344" y="324"/>
      <point x="344" y="555" type="curve" smooth="yes"/>
      <point x="344" y="786"/>
      <point x="408" y="909"/>
      <point x="518" y="909" type="curve" smooth="yes"/>
      <point x="578" y="909"/>
      <point x="637" y="891"/>
      <point x="698" y="854" type="curve"/>
      <point x="774" y="1067" type="line"/>
      <point x="774" y="1233" type="line" smooth="yes"/>
      <point x="774" y="1315"/>
      <point x="803" y="1341"/>
      <point x="850" y="1341" type="curve" smooth="yes"/>
      <point x="887" y="1341"/>
      <point x="915" y="1329"/>
      <point x="934" y="1321" type="curve"/>
      <point x="934" y="1538" type="line"/>
      <point x="915" y="1550"/>
      <point x="868" y="1567"/>
      <point x="805" y="1567" type="curve" smooth="yes"/>
      <point x="662" y="1567"/>
      <point x="549" y="1473"/>
      <point x="549" y="1260" type="curve" smooth="yes"/>
      <point x="549" y="1137" type="line"/>
      <point x="537" y="1139"/>
      <point x="518" y="1141"/>
      <point x="498" y="1141" type="curve" smooth="yes"/>
      <point x="205" y="1141"/>
      <point x="74" y="895"/>
      <point x="74" y="555" type="curve" smooth="yes"/>
      <point x="74" y="164"/>
      <point x="213" y="-20"/>
    </contour>
  </outline>
</glyph>
<glyph name="uni018A" format="2">
  <advance width="1374"/>
  <unicode hex="018A"/>
  <anchor x="686" y="0" name="bottom"/>
  <anchor x="686" y="1462" name="top"/>
  <outline>
    <contour>
      <point x="360" y="0" type="line"/>
      <point x="705" y="0" type="line" smooth="yes"/>
      <point x="1077" y="0"/>
      <point x="1286" y="268"/>
      <point x="1286" y="758" type="curve" smooth="yes"/>
      <point x="1286" y="1214"/>
      <point x="1085" y="1462"/>
      <point x="725" y="1462" type="curve" smooth="yes"/>
      <point x="354" y="1462" type="line" smooth="yes"/>
      <point x="94" y="1462"/>
      <point x="12" y="1305"/>
      <point x="12" y="1116" type="curve" smooth="yes"/>
      <point x="12" y="1063"/>
      <point x="27" y="1020"/>
      <point x="35" y="999" type="curve"/>
      <point x="254" y="999" type="line"/>
      <point x="248" y="1020"/>
      <point x="238" y="1057"/>
      <point x="238" y="1102" type="curve" smooth="yes"/>
      <point x="238" y="1167"/>
      <point x="264" y="1219"/>
      <point x="319" y="1219" type="curve" smooth="yes"/>
      <point x="360" y="1219" type="line"/>
    </contour>
    <contour>
      <point x="639" y="246" type="line"/>
      <point x="639" y="1219" type="line"/>
      <point x="719" y="1219" type="line" smooth="yes"/>
      <point x="901" y="1219"/>
      <point x="995" y="1073"/>
      <point x="995" y="745" type="curve" smooth="yes"/>
      <point x="995" y="408"/>
      <point x="903" y="246"/>
      <point x="700" y="246" type="curve" smooth="yes"/>
    </contour>
  </outline>
</glyph>
<glyph name="uni018C" format="2">
  <advance width="1024"/>
  <unicode hex="018C"/>
  <anchor x="512" y="0" name="bottom"/>
  <anchor x="512" y="1556" name="top"/>
  <outline>
    <contour>
      <point x="406" y="-20" type="curve" smooth="yes"/>
      <point x="514" y="-20"/>
      <point x="578" y="23"/>
      <point x="643" y="123" type="curve"/>
      <point x="659" y="123" type="line"/>
      <point x="696" y="0" type="line"/>
      <point x="909" y="0" type="line"/>
      <point x="909" y="1556" type="line"/>
      <point x="174" y="1556" type="line"/>
      <point x="174" y="1333" type="line"/>
      <point x="643" y="1333" type="line"/>
      <point x="643" y="1143" type="line" smooth="yes"/>
      <point x="643" y="1102"/>
      <point x="647" y="1038"/>
      <point x="651" y="952" type="curve"/>
      <point x="641" y="952" type="line"/>
      <point x="584" y="1065"/>
      <point x="500" y="1116"/>
      <point x="397" y="1116" type="curve" smooth="yes"/>
      <point x="193" y="1116"/>
      <point x="74" y="903"/>
      <point x="74" y="553" type="curve" smooth="yes"/>
      <point x="74" y="188"/>
      <point x="190" y="-20"/>
    </contour>
    <contour>
      <point x="485" y="203" type="curve" smooth="yes"/>
      <point x="393" y="203"/>
      <point x="344" y="313"/>
      <point x="344" y="555" type="curve" smooth="yes"/>
      <point x="344" y="774"/>
      <point x="389" y="885"/>
      <point x="485" y="885" type="curve" smooth="yes"/>
      <point x="596" y="885"/>
      <point x="643" y="795"/>
      <point x="643" y="580" type="curve" smooth="yes"/>
      <point x="643" y="516" type="line" smooth="yes"/>
      <point x="643" y="295"/>
      <point x="592" y="203"/>
    </contour>
  </outline>
</glyph>
<glyph name="uni018E" format="2">
  <advance width="874"/>
  <unicode hex="018E"/>
  <anchor x="422" y="0" name="bottom"/>
  <anchor x="414" y="1462" name="top"/>
  <anchor x="788" y="1462" name="topright"/>
  <outline>
    <contour>
      <point x="86" y="0" type="line"/>
      <point x="743" y="0" type="line"/>
      <point x="743" y="1462" type="line"/>
      <point x="86" y="1462" type="line"/>
      <point x="86" y="1223" type="line"/>
      <point x="463" y="1223" type="line"/>
      <point x="463" y="879" type="line"/>
      <point x="113" y="879" type="line"/>
      <point x="113" y="639" type="line"/>
      <point x="463" y="639" type="line"/>
      <point x="463" y="244" type="line"/>
      <point x="86" y="244" type="line"/>
    </contour>
  </outline>
</glyph>
<glyph name="uni0190" format="2">
  <advance width="991"/>
  <unicode hex="0190"/>
  <anchor x="496" y="0" name="bottom"/>
  <anchor x="496" y="1462" name="top"/>
  <outline>
    <contour>
      <point x="557" y="1483" type="curve" smooth="yes"/>
      <point x="301" y="1483"/>
      <point x="139" y="1321"/>
      <point x="139" y="1104" type="curve" smooth="yes"/>
      <point x="139" y="913"/>
      <point x="221" y="799"/>
      <point x="393" y="760" type="curve"/>
      <point x="393" y="752" type="line"/>
      <point x="199" y="729"/>
      <point x="96" y="602"/>
      <point x="96" y="399" type="curve" smooth="yes"/>
      <point x="96" y="152"/>
      <point x="233" y="-20"/>
      <point x="578" y="-20" type="curve" smooth="yes"/>
      <point x="715" y="-20"/>
      <point x="842" y="12"/>
      <point x="938" y="57" type="curve"/>
      <point x="938" y="311" type="line"/>
      <point x="858" y="258"/>
      <point x="725" y="223"/>
      <point x="627" y="223" type="curve" smooth="yes"/>
      <point x="455" y="223"/>
      <point x="383" y="285"/>
      <point x="383" y="432" type="curve" smooth="yes"/>
      <point x="383" y="573"/>
      <point x="471" y="641"/>
      <point x="651" y="641" type="curve" smooth="yes"/>
      <point x="772" y="641" type="line"/>
      <point x="772" y="881" type="line"/>
      <point x="662" y="881" type="line" smooth="yes"/>
      <point x="485" y="881"/>
      <point x="420" y="944"/>
      <point x="420" y="1073" type="curve" smooth="yes"/>
      <point x="420" y="1184"/>
      <point x="487" y="1239"/>
      <point x="602" y="1239" type="curve" smooth="yes"/>
      <point x="696" y="1239"/>
      <point x="776" y="1202"/>
      <point x="840" y="1145" type="curve"/>
      <point x="948" y="1360" type="line"/>
      <point x="844" y="1436"/>
      <point x="735" y="1483"/>
    </contour>
  </outline>
</glyph>
<glyph name="uni0191" format="2">
  <advance width="1055"/>
  <unicode hex="0191"/>
  <anchor x="301" y="0" name="bottom"/>
  <anchor x="690" y="1462" name="top"/>
  <anchor x="1047" y="1462" name="topright"/>
  <outline>
    <contour>
      <point x="301" y="-31" type="curve" smooth="yes"/>
      <point x="526" y="-31"/>
      <point x="657" y="115"/>
      <point x="657" y="348" type="curve" smooth="yes"/>
      <point x="657" y="647" type="line"/>
      <point x="965" y="647" type="line"/>
      <point x="965" y="887" type="line"/>
      <point x="657" y="887" type="line"/>
      <point x="657" y="1223" type="line"/>
      <point x="991" y="1223" type="line"/>
      <point x="991" y="1462" type="line"/>
      <point x="377" y="1462" type="line"/>
      <point x="377" y="348" type="line" smooth="yes"/>
      <point x="377" y="250"/>
      <point x="342" y="195"/>
      <point x="285" y="195" type="curve" smooth="yes"/>
      <point x="229" y="195"/>
      <point x="195" y="233"/>
      <point x="195" y="303" type="curve" smooth="yes"/>
      <point x="195" y="336"/>
      <point x="199" y="358"/>
      <point x="207" y="381" type="curve"/>
      <point x="-2" y="451" type="line"/>
      <point x="-18" y="416"/>
      <point x="-31" y="356"/>
      <point x="-31" y="297" type="curve" smooth="yes"/>
      <point x="-31" y="92"/>
      <point x="84" y="-31"/>
    </contour>
  </outline>
</glyph>
<glyph name="uni0194" format="2">
  <advance width="1051"/>
  <unicode hex="0194"/>
  <anchor x="526" y="-492" name="bottom"/>
  <anchor x="526" y="1462" name="top"/>
  <outline>
    <contour>
      <point x="526" y="-492" type="curve" smooth="yes"/>
      <point x="735" y="-492"/>
      <point x="821" y="-373"/>
      <point x="821" y="-176" type="curve" smooth="yes"/>
      <point x="821" y="-61"/>
      <point x="766" y="100"/>
      <point x="680" y="276" type="curve"/>
      <point x="1051" y="1462" type="line"/>
      <point x="760" y="1462" type="line"/>
      <point x="584" y="842" type="line" smooth="yes"/>
      <point x="555" y="750"/>
      <point x="535" y="604"/>
      <point x="524" y="504" type="curve"/>
      <point x="514" y="590"/>
      <point x="489" y="762"/>
      <point x="465" y="854" type="curve" smooth="yes"/>
      <point x="293" y="1462" type="line"/>
      <point x="0" y="1462" type="line"/>
      <point x="369" y="281" type="line"/>
      <point x="289" y="113"/>
      <point x="233" y="-47"/>
      <point x="233" y="-178" type="curve" smooth="yes"/>
      <point x="233" y="-381"/>
      <point x="319" y="-492"/>
    </contour>
    <contour>
      <point x="528" y="-313" type="curve" smooth="yes"/>
      <point x="496" y="-313"/>
      <point x="469" y="-276"/>
      <point x="469" y="-197" type="curve" smooth="yes"/>
      <point x="469" y="-125"/>
      <point x="483" y="-23"/>
      <point x="528" y="84" type="curve"/>
      <point x="571" y="-23"/>
      <point x="590" y="-125"/>
      <point x="590" y="-201" type="curve" smooth="yes"/>
      <point x="590" y="-279"/>
      <point x="565" y="-313"/>
    </contour>
  </outline>
</glyph>
<glyph name="uni0199" format="2">
  <advance width="969"/>
  <unicode hex="0199"/>
  <anchor x="485" y="0" name="bottom"/>
  <anchor x="485" y="1567" name="top"/>
  <outline>
    <contour>
      <point x="412" y="1567" type="curve" smooth="yes"/>
      <point x="219" y="1567"/>
      <point x="115" y="1434"/>
      <point x="115" y="1210" type="curve" smooth="yes"/>
      <point x="115" y="0" type="line"/>
      <point x="381" y="0" type="line"/>
      <point x="381" y="360" type="line"/>
      <point x="485" y="463" type="line"/>
      <point x="682" y="0" type="line"/>
      <point x="973" y="0" type="line"/>
      <point x="668" y="662" type="line"/>
      <point x="958" y="1120" type="line"/>
      <point x="672" y="1120" type="line"/>
      <point x="455" y="758" type="line" smooth="yes"/>
      <point x="432" y="717"/>
      <point x="401" y="664"/>
      <point x="377" y="606" type="curve"/>
      <point x="369" y="606" type="line"/>
      <point x="379" y="694"/>
      <point x="381" y="784"/>
      <point x="381" y="879" type="curve" smooth="yes"/>
      <point x="381" y="1198" type="line" smooth="yes"/>
      <point x="381" y="1294"/>
      <point x="408" y="1333"/>
      <point x="471" y="1333" type="curve" smooth="yes"/>
      <point x="498" y="1333"/>
      <point x="524" y="1327"/>
      <point x="555" y="1315" type="curve"/>
      <point x="555" y="1544" type="line"/>
      <point x="524" y="1556"/>
      <point x="455" y="1567"/>
    </contour>
  </outline>
</glyph>
<glyph name="uni019C" format="2">
  <advance width="1794"/>
  <unicode hex="019C"/>
  <anchor x="897" y="0" name="bottom"/>
  <anchor x="897" y="1462" name="top"/>
  <outline>
    <contour>
      <point x="438" y="-23" type="curve" smooth="yes"/>
      <point x="567" y="-18"/>
      <point x="682" y="29"/>
      <point x="768" y="168" type="curve"/>
      <point x="776" y="168" type="line"/>
      <point x="819" y="37"/>
      <point x="913" y="-23"/>
      <point x="1067" y="-23" type="curve" smooth="yes"/>
      <point x="1196" y="-18"/>
      <point x="1300" y="35"/>
      <point x="1380" y="150" type="curve"/>
      <point x="1389" y="150" type="line"/>
      <point x="1423" y="0" type="line"/>
      <point x="1661" y="0" type="line"/>
      <point x="1661" y="1462" type="line"/>
      <point x="1380" y="1462" type="line"/>
      <point x="1380" y="500" type="line" smooth="yes"/>
      <point x="1380" y="313"/>
      <point x="1280" y="225"/>
      <point x="1186" y="223" type="curve" smooth="yes"/>
      <point x="1067" y="223"/>
      <point x="1032" y="297"/>
      <point x="1032" y="440" type="curve" smooth="yes"/>
      <point x="1032" y="1462" type="line"/>
      <point x="752" y="1462" type="line"/>
      <point x="752" y="500" type="line" smooth="yes"/>
      <point x="752" y="313"/>
      <point x="649" y="225"/>
      <point x="557" y="223" type="curve" smooth="yes"/>
      <point x="438" y="223"/>
      <point x="403" y="297"/>
      <point x="403" y="440" type="curve" smooth="yes"/>
      <point x="403" y="1462" type="line"/>
      <point x="123" y="1462" type="line"/>
      <point x="123" y="362" type="line" smooth="yes"/>
      <point x="123" y="92"/>
      <point x="223" y="-25"/>
    </contour>
  </outline>
</glyph>
<glyph name="uni019D" format="2">
  <advance width="1274"/>
  <unicode hex="019D"/>
  <anchor x="637" y="-434" name="bottom"/>
  <anchor x="637" y="1462" name="top"/>
  <outline>
    <contour>
      <point x="39" y="-434" type="curve" smooth="yes"/>
      <point x="276" y="-434"/>
      <point x="393" y="-313"/>
      <point x="393" y="14" type="curve" smooth="yes"/>
      <point x="393" y="678" type="line" smooth="yes"/>
      <point x="393" y="762"/>
      <point x="389" y="877"/>
      <point x="377" y="1020" type="curve"/>
      <point x="385" y="1020" type="line"/>
      <point x="813" y="0" type="line"/>
      <point x="1143" y="0" type="line"/>
      <point x="1143" y="1462" type="line"/>
      <point x="879" y="1462" type="line"/>
      <point x="879" y="797" type="line" smooth="yes"/>
      <point x="879" y="713"/>
      <point x="885" y="602"/>
      <point x="891" y="465" type="curve"/>
      <point x="885" y="465" type="line"/>
      <point x="459" y="1462" type="line"/>
      <point x="131" y="1462" type="line"/>
      <point x="131" y="63" type="line" smooth="yes"/>
      <point x="131" y="-131"/>
      <point x="96" y="-193"/>
      <point x="-4" y="-193" type="curve" smooth="yes"/>
      <point x="-47" y="-193"/>
      <point x="-80" y="-184"/>
      <point x="-113" y="-172" type="curve"/>
      <point x="-113" y="-412" type="line"/>
      <point x="-66" y="-428"/>
      <point x="-16" y="-434"/>
    </contour>
  </outline>
</glyph>
<glyph name="Ohorn" format="2">
  <advance width="1249"/>
  <unicode hex="01A0"/>
  <anchor x="608" y="0" name="bottom"/>
  <anchor x="610" y="1462" name="top"/>
  <outline>
    <contour>
      <point x="1126" y="733" type="curve" smooth="yes"/>
      <point x="1126" y="879"/>
      <point x="1110" y="1001"/>
      <point x="1079" y="1102" type="curve"/>
      <point x="1221" y="1169"/>
      <point x="1298" y="1286"/>
      <point x="1321" y="1532" type="curve"/>
      <point x="1309" y="1556" type="line"/>
      <point x="1061" y="1556" type="line"/>
      <point x="1061" y="1448"/>
      <point x="1047" y="1368"/>
      <point x="991" y="1294" type="curve"/>
      <point x="903" y="1421"/>
      <point x="776" y="1485"/>
      <point x="608" y="1485" type="curve" smooth="yes"/>
      <point x="268" y="1485"/>
      <point x="88" y="1227"/>
      <point x="88" y="735" type="curve" smooth="yes"/>
      <point x="88" y="272"/>
      <point x="256" y="-20"/>
      <point x="608" y="-20" type="curve" smooth="yes"/>
      <point x="958" y="-20"/>
      <point x="1126" y="268"/>
    </contour>
    <contour>
      <point x="379" y="733" type="curve" smooth="yes"/>
      <point x="379" y="1069"/>
      <point x="457" y="1241"/>
      <point x="608" y="1241" type="curve" smooth="yes"/>
      <point x="760" y="1241"/>
      <point x="836" y="1075"/>
      <point x="836" y="733" type="curve" smooth="yes"/>
      <point x="836" y="389"/>
      <point x="760" y="227"/>
      <point x="608" y="227" type="curve" smooth="yes"/>
      <point x="457" y="227"/>
      <point x="379" y="397"/>
    </contour>
  </outline>
</glyph>
<glyph name="uni01A2" format="2">
  <advance width="1823"/>
  <unicode hex="01A2"/>
  <anchor x="911" y="0" name="bottom"/>
  <anchor x="911" y="1462" name="top"/>
  <outline>
    <contour>
      <point x="1126" y="733" type="curve" smooth="yes"/>
      <point x="1126" y="881"/>
      <point x="1108" y="1010"/>
      <point x="1075" y="1118" type="curve"/>
      <point x="1124" y="1194"/>
      <point x="1190" y="1237"/>
      <point x="1249" y="1239" type="curve" smooth="yes"/>
      <point x="1368" y="1241"/>
      <point x="1419" y="1165"/>
      <point x="1419" y="1022" type="curve" smooth="yes"/>
      <point x="1419" y="0" type="line"/>
      <point x="1698" y="0" type="line"/>
      <point x="1698" y="1100" type="line" smooth="yes"/>
      <point x="1698" y="1370"/>
      <point x="1559" y="1485"/>
      <point x="1348" y="1483" type="curve" smooth="yes"/>
      <point x="1217" y="1481"/>
      <point x="1106" y="1417"/>
      <point x="1001" y="1272" type="curve"/>
      <point x="913" y="1409"/>
      <point x="782" y="1485"/>
      <point x="608" y="1485" type="curve" smooth="yes"/>
      <point x="268" y="1485"/>
      <point x="88" y="1227"/>
      <point x="88" y="735" type="curve" smooth="yes"/>
      <point x="88" y="272"/>
      <point x="256" y="-20"/>
      <point x="608" y="-20" type="curve" smooth="yes"/>
      <point x="958" y="-20"/>
      <point x="1126" y="268"/>
    </contour>
    <contour>
      <point x="379" y="733" type="curve" smooth="yes"/>
      <point x="379" y="1069"/>
      <point x="457" y="1241"/>
      <point x="608" y="1241" type="curve" smooth="yes"/>
      <point x="760" y="1241"/>
      <point x="836" y="1075"/>
      <point x="836" y="733" type="curve" smooth="yes"/>
      <point x="836" y="389"/>
      <point x="760" y="227"/>
      <point x="608" y="227" type="curve" smooth="yes"/>
      <point x="457" y="227"/>
      <point x="379" y="397"/>
    </contour>
  </outline>
</glyph>
<glyph name="uni01A3" format="2">
  <advance width="1561"/>
  <unicode hex="01A3"/>
  <anchor x="780" y="-492" name="bottom"/>
  <anchor x="780" y="1120" name="top"/>
  <outline>
    <contour>
      <point x="926" y="563" type="curve" smooth="yes"/>
      <point x="926" y="662"/>
      <point x="913" y="748"/>
      <point x="895" y="821" type="curve"/>
      <point x="932" y="868"/>
      <point x="983" y="901"/>
      <point x="1051" y="901" type="curve" smooth="yes"/>
      <point x="1143" y="901"/>
      <point x="1180" y="844"/>
      <point x="1180" y="692" type="curve" smooth="yes"/>
      <point x="1180" y="-492" type="line"/>
      <point x="1448" y="-492" type="line"/>
      <point x="1448" y="741" type="line" smooth="yes"/>
      <point x="1448" y="1001"/>
      <point x="1333" y="1141"/>
      <point x="1130" y="1141" type="curve" smooth="yes"/>
      <point x="997" y="1141"/>
      <point x="895" y="1073"/>
      <point x="831" y="963" type="curve"/>
      <point x="758" y="1077"/>
      <point x="643" y="1141"/>
      <point x="502" y="1141" type="curve" smooth="yes"/>
      <point x="201" y="1141"/>
      <point x="74" y="901"/>
      <point x="74" y="563" type="curve" smooth="yes"/>
      <point x="74" y="246"/>
      <point x="207" y="-20"/>
      <point x="498" y="-20" type="curve" smooth="yes"/>
      <point x="809" y="-20"/>
      <point x="926" y="252"/>
    </contour>
    <contour>
      <point x="344" y="559" type="curve" smooth="yes"/>
      <point x="344" y="801"/>
      <point x="391" y="915"/>
      <point x="500" y="915" type="curve" smooth="yes"/>
      <point x="610" y="915"/>
      <point x="653" y="799"/>
      <point x="653" y="563" type="curve" smooth="yes"/>
      <point x="653" y="324"/>
      <point x="610" y="205"/>
      <point x="500" y="205" type="curve" smooth="yes"/>
      <point x="391" y="205"/>
      <point x="344" y="326"/>
    </contour>
  </outline>
</glyph>
<glyph name="uni01A4" format="2">
  <advance width="1227"/>
  <unicode hex="01A4"/>
  <anchor x="612" y="0" name="bottom"/>
  <anchor x="612" y="1462" name="top"/>
  <outline>
    <contour>
      <point x="354" y="0" type="line"/>
      <point x="633" y="0" type="line"/>
      <point x="633" y="518" type="line"/>
      <point x="711" y="518" type="line" smooth="yes"/>
      <point x="1020" y="518"/>
      <point x="1165" y="715"/>
      <point x="1165" y="1010" type="curve" smooth="yes"/>
      <point x="1165" y="1305"/>
      <point x="1020" y="1462"/>
      <point x="725" y="1462" type="curve" smooth="yes"/>
      <point x="354" y="1462" type="line" smooth="yes"/>
      <point x="94" y="1462"/>
      <point x="12" y="1305"/>
      <point x="12" y="1116" type="curve" smooth="yes"/>
      <point x="12" y="1063"/>
      <point x="27" y="1020"/>
      <point x="35" y="999" type="curve"/>
      <point x="254" y="999" type="line"/>
      <point x="248" y="1020"/>
      <point x="238" y="1057"/>
      <point x="238" y="1102" type="curve" smooth="yes"/>
      <point x="238" y="1167"/>
      <point x="264" y="1219"/>
      <point x="319" y="1219" type="curve" smooth="yes"/>
      <point x="354" y="1219" type="line"/>
    </contour>
    <contour>
      <point x="633" y="758" type="line"/>
      <point x="633" y="1223" type="line"/>
      <point x="702" y="1223" type="line" smooth="yes"/>
      <point x="825" y="1223"/>
      <point x="885" y="1157"/>
      <point x="885" y="1008" type="curve" smooth="yes"/>
      <point x="885" y="827"/>
      <point x="815" y="758"/>
      <point x="682" y="758" type="curve" smooth="yes"/>
    </contour>
  </outline>
</glyph>
<glyph name="uni01A5" format="2">
  <advance width="1024"/>
  <unicode hex="01A5"/>
  <anchor x="512" y="-492" name="bottom"/>
  <anchor x="512" y="1567" name="top"/>
  <outline>
    <contour>
      <point x="412" y="1567" type="curve" smooth="yes"/>
      <point x="219" y="1567"/>
      <point x="115" y="1434"/>
      <point x="115" y="1210" type="curve" smooth="yes"/>
      <point x="115" y="-492" type="line"/>
      <point x="381" y="-492" type="line"/>
      <point x="381" y="-43" type="line" smooth="yes"/>
      <point x="381" y="-2"/>
      <point x="379" y="61"/>
      <point x="373" y="147" type="curve"/>
      <point x="383" y="147" type="line"/>
      <point x="440" y="33"/>
      <point x="526" y="-20"/>
      <point x="629" y="-20" type="curve" smooth="yes"/>
      <point x="829" y="-20"/>
      <point x="950" y="197"/>
      <point x="950" y="557" type="curve" smooth="yes"/>
      <point x="950" y="930"/>
      <point x="831" y="1141"/>
      <point x="621" y="1141" type="curve" smooth="yes"/>
      <point x="520" y="1141"/>
      <point x="451" y="1104"/>
      <point x="383" y="973" type="curve"/>
      <point x="369" y="973" type="line"/>
      <point x="377" y="1024"/>
      <point x="381" y="1073"/>
      <point x="381" y="1108" type="curve" smooth="yes"/>
      <point x="381" y="1198" type="line" smooth="yes"/>
      <point x="381" y="1294"/>
      <point x="408" y="1333"/>
      <point x="471" y="1333" type="curve" smooth="yes"/>
      <point x="498" y="1333"/>
      <point x="524" y="1327"/>
      <point x="555" y="1315" type="curve"/>
      <point x="555" y="1544" type="line"/>
      <point x="524" y="1556"/>
      <point x="455" y="1567"/>
    </contour>
    <contour>
      <point x="537" y="915" type="curve" smooth="yes"/>
      <point x="635" y="915"/>
      <point x="680" y="797"/>
      <point x="680" y="555" type="curve" smooth="yes"/>
      <point x="680" y="324"/>
      <point x="633" y="211"/>
      <point x="537" y="211" type="curve" smooth="yes"/>
      <point x="430" y="211"/>
      <point x="381" y="309"/>
      <point x="381" y="532" type="curve" smooth="yes"/>
      <point x="381" y="588" type="line" smooth="yes"/>
      <point x="381" y="817"/>
      <point x="428" y="915"/>
    </contour>
  </outline>
</glyph>
<glyph name="uni01A8" format="2">
  <advance width="766"/>
  <unicode hex="01A8"/>
  <anchor x="383" y="0" name="bottom"/>
  <anchor x="383" y="1120" name="top"/>
  <outline>
    <contour>
      <point x="383" y="1141" type="curve" smooth="yes"/>
      <point x="274" y="1141"/>
      <point x="164" y="1110"/>
      <point x="68" y="1053" type="curve"/>
      <point x="139" y="848" type="line"/>
      <point x="203" y="891"/>
      <point x="279" y="924"/>
      <point x="350" y="924" type="curve" smooth="yes"/>
      <point x="416" y="924"/>
      <point x="453" y="891"/>
      <point x="453" y="836" type="curve" smooth="yes"/>
      <point x="453" y="778"/>
      <point x="422" y="750"/>
      <point x="287" y="666" type="curve" smooth="yes"/>
      <point x="150" y="584"/>
      <point x="55" y="496"/>
      <point x="55" y="309" type="curve" smooth="yes"/>
      <point x="55" y="96"/>
      <point x="184" y="-20"/>
      <point x="395" y="-20" type="curve" smooth="yes"/>
      <point x="520" y="-20"/>
      <point x="618" y="2"/>
      <point x="707" y="43" type="curve"/>
      <point x="707" y="297" type="line"/>
      <point x="633" y="250"/>
      <point x="535" y="211"/>
      <point x="436" y="211" type="curve" smooth="yes"/>
      <point x="362" y="211"/>
      <point x="322" y="242"/>
      <point x="322" y="313" type="curve" smooth="yes"/>
      <point x="322" y="369"/>
      <point x="356" y="412"/>
      <point x="475" y="481" type="curve" smooth="yes"/>
      <point x="627" y="569"/>
      <point x="709" y="668"/>
      <point x="709" y="831" type="curve" smooth="yes"/>
      <point x="709" y="1014"/>
      <point x="596" y="1141"/>
    </contour>
  </outline>
</glyph>
<glyph name="uni01AA" format="2">
  <advance width="680"/>
  <unicode hex="01AA"/>
  <anchor x="340" y="-492" name="bottom"/>
  <anchor x="340" y="1575" name="top"/>
  <outline>
    <contour>
      <point x="248" y="1575" type="curve" smooth="yes"/>
      <point x="59" y="1575"/>
      <point x="-20" y="1462"/>
      <point x="-20" y="1329" type="curve" smooth="yes"/>
      <point x="-20" y="1192"/>
      <point x="53" y="1087"/>
      <point x="238" y="1085" type="curve" smooth="yes"/>
      <point x="272" y="1085" type="line"/>
      <point x="272" y="-150" type="line" smooth="yes"/>
      <point x="272" y="-393"/>
      <point x="356" y="-492"/>
      <point x="541" y="-492" type="curve" smooth="yes"/>
      <point x="616" y="-492"/>
      <point x="686" y="-475"/>
      <point x="741" y="-440" type="curve"/>
      <point x="741" y="-223" type="line"/>
      <point x="702" y="-244"/>
      <point x="662" y="-258"/>
      <point x="618" y="-258" type="curve" smooth="yes"/>
      <point x="563" y="-258"/>
      <point x="539" y="-223"/>
      <point x="539" y="-145" type="curve" smooth="yes"/>
      <point x="539" y="1214" type="line" smooth="yes"/>
      <point x="539" y="1440"/>
      <point x="463" y="1575"/>
    </contour>
    <contour>
      <point x="203" y="1413" type="curve" smooth="yes"/>
      <point x="248" y="1413"/>
      <point x="272" y="1378"/>
      <point x="272" y="1305" type="curve" smooth="yes"/>
      <point x="272" y="1241" type="line"/>
      <point x="236" y="1241" type="line" smooth="yes"/>
      <point x="170" y="1241"/>
      <point x="141" y="1268"/>
      <point x="141" y="1335" type="curve" smooth="yes"/>
      <point x="141" y="1376"/>
      <point x="160" y="1413"/>
    </contour>
  </outline>
</glyph>
<glyph name="uni01AC" format="2">
  <advance width="985"/>
  <unicode hex="01AC"/>
  <anchor x="494" y="0" name="bottom"/>
  <anchor x="494" y="1462" name="top"/>
  <outline>
    <contour>
      <point x="408" y="0" type="line"/>
      <point x="686" y="0" type="line"/>
      <point x="686" y="1219" type="line"/>
      <point x="956" y="1219" type="line"/>
      <point x="956" y="1462" type="line"/>
      <point x="354" y="1462" type="line" smooth="yes"/>
      <point x="94" y="1462"/>
      <point x="12" y="1305"/>
      <point x="12" y="1116" type="curve" smooth="yes"/>
      <point x="12" y="1063"/>
      <point x="27" y="1020"/>
      <point x="35" y="999" type="curve"/>
      <point x="254" y="999" type="line"/>
      <point x="248" y="1020"/>
      <point x="238" y="1057"/>
      <point x="238" y="1102" type="curve" smooth="yes"/>
      <point x="238" y="1167"/>
      <point x="264" y="1219"/>
      <point x="319" y="1219" type="curve" smooth="yes"/>
      <point x="408" y="1219" type="line"/>
    </contour>
  </outline>
</glyph>
<glyph name="uni01AE" format="2">
  <advance width="879"/>
  <unicode hex="01AE"/>
  <anchor x="440" y="-434" name="bottom"/>
  <anchor x="440" y="1462" name="top"/>
  <outline>
    <contour>
      <point x="655" y="-434" type="curve" smooth="yes"/>
      <point x="711" y="-434"/>
      <point x="758" y="-428"/>
      <point x="805" y="-412" type="curve"/>
      <point x="805" y="-172" type="line"/>
      <point x="772" y="-184"/>
      <point x="739" y="-193"/>
      <point x="696" y="-193" type="curve" smooth="yes"/>
      <point x="596" y="-193"/>
      <point x="578" y="-131"/>
      <point x="578" y="-6" type="curve" smooth="yes"/>
      <point x="578" y="1219" type="line"/>
      <point x="848" y="1219" type="line"/>
      <point x="848" y="1462" type="line"/>
      <point x="29" y="1462" type="line"/>
      <point x="29" y="1219" type="line"/>
      <point x="301" y="1219" type="line"/>
      <point x="301" y="-23" type="line" smooth="yes"/>
      <point x="301" y="-313"/>
      <point x="418" y="-434"/>
    </contour>
  </outline>
</glyph>
<glyph name="Uhorn" format="2">
  <advance width="1352"/>
  <unicode hex="01AF"/>
  <anchor x="573" y="0" name="bottom"/>
  <anchor x="586" y="1462" name="top"/>
  <outline>
    <contour>
      <point x="1028" y="1462" type="line"/>
      <point x="750" y="1462" type="line"/>
      <point x="750" y="543" type="line" smooth="yes"/>
      <point x="750" y="319"/>
      <point x="692" y="227"/>
      <point x="575" y="227" type="curve" smooth="yes"/>
      <point x="463" y="227"/>
      <point x="403" y="322"/>
      <point x="403" y="541" type="curve" smooth="yes"/>
      <point x="403" y="1462" type="line"/>
      <point x="123" y="1462" type="line"/>
      <point x="123" y="532" type="line" smooth="yes"/>
      <point x="123" y="166"/>
      <point x="283" y="-20"/>
      <point x="573" y="-20" type="curve" smooth="yes"/>
      <point x="870" y="-20"/>
      <point x="1028" y="170"/>
      <point x="1028" y="539" type="curve" smooth="yes"/>
      <point x="1028" y="1075" type="line"/>
      <point x="1266" y="1081"/>
      <point x="1393" y="1202"/>
      <point x="1423" y="1532" type="curve"/>
      <point x="1411" y="1556" type="line"/>
      <point x="1165" y="1556" type="line"/>
      <point x="1165" y="1409"/>
      <point x="1141" y="1266"/>
      <point x="1028" y="1257" type="curve"/>
    </contour>
  </outline>
</glyph>
<glyph name="uhorn" format="2">
  <advance width="1225"/>
  <unicode hex="01B0"/>
  <anchor x="510" y="0" name="bottom"/>
  <anchor x="516" y="1120" name="top"/>
  <outline>
    <contour>
      <point x="1284" y="1282" type="line"/>
      <point x="1038" y="1282" type="line"/>
      <point x="1038" y="1133"/>
      <point x="1010" y="1004"/>
      <point x="911" y="985" type="curve"/>
      <point x="911" y="1120" type="line"/>
      <point x="645" y="1120" type="line"/>
      <point x="645" y="580" type="line" smooth="yes"/>
      <point x="645" y="309"/>
      <point x="600" y="217"/>
      <point x="485" y="217" type="curve" smooth="yes"/>
      <point x="410" y="217"/>
      <point x="379" y="301"/>
      <point x="379" y="469" type="curve" smooth="yes"/>
      <point x="379" y="1120" type="line"/>
      <point x="113" y="1120" type="line"/>
      <point x="113" y="389" type="line" smooth="yes"/>
      <point x="113" y="133"/>
      <point x="211" y="-20"/>
      <point x="410" y="-20" type="curve" smooth="yes"/>
      <point x="524" y="-20"/>
      <point x="606" y="35"/>
      <point x="657" y="143" type="curve"/>
      <point x="672" y="143" type="line"/>
      <point x="702" y="0" type="line"/>
      <point x="911" y="0" type="line"/>
      <point x="911" y="801" type="line"/>
      <point x="1137" y="815"/>
      <point x="1266" y="926"/>
      <point x="1294" y="1260" type="curve"/>
    </contour>
  </outline>
</glyph>
<glyph name="uni01B1" format="2">
  <advance width="1223"/>
  <unicode hex="01B1"/>
  <anchor x="612" y="0" name="bottom"/>
  <anchor x="612" y="1462" name="top"/>
  <outline>
    <contour>
      <point x="612" y="221" type="curve" smooth="yes"/>
      <point x="453" y="221"/>
      <point x="375" y="393"/>
      <point x="375" y="649" type="curve" smooth="yes"/>
      <point x="375" y="909"/>
      <point x="416" y="1069"/>
      <point x="547" y="1200" type="curve"/>
      <point x="547" y="1462" type="line"/>
      <point x="47" y="1462" type="line"/>
      <point x="47" y="1219" type="line"/>
      <point x="330" y="1219" type="line"/>
      <point x="176" y="1096"/>
      <point x="92" y="891"/>
      <point x="92" y="612" type="curve" smooth="yes"/>
      <point x="92" y="231"/>
      <point x="307" y="-23"/>
      <point x="612" y="-23" type="curve" smooth="yes"/>
      <point x="928" y="-23"/>
      <point x="1133" y="217"/>
      <point x="1133" y="612" type="curve" smooth="yes"/>
      <point x="1133" y="877"/>
      <point x="1051" y="1102"/>
      <point x="901" y="1219" type="curve"/>
      <point x="1178" y="1219" type="line"/>
      <point x="1178" y="1462" type="line"/>
      <point x="682" y="1462" type="line"/>
      <point x="682" y="1200" type="line"/>
      <point x="805" y="1081"/>
      <point x="850" y="911"/>
      <point x="850" y="651" type="curve" smooth="yes"/>
      <point x="850" y="379"/>
      <point x="764" y="221"/>
    </contour>
  </outline>
</glyph>
<glyph name="uni01B2" format="2">
  <advance width="1151"/>
  <unicode hex="01B2"/>
  <anchor x="586" y="0" name="bottom"/>
  <anchor x="586" y="1462" name="top"/>
  <anchor x="1110" y="1462" name="topright"/>
  <outline>
    <contour>
      <point x="573" y="-20" type="curve" smooth="yes"/>
      <point x="870" y="-20"/>
      <point x="1028" y="145"/>
      <point x="1028" y="481" type="curve" smooth="yes"/>
      <point x="1028" y="1200" type="line" smooth="yes"/>
      <point x="1028" y="1376"/>
      <point x="954" y="1483"/>
      <point x="791" y="1483" type="curve" smooth="yes"/>
      <point x="713" y="1483"/>
      <point x="614" y="1458"/>
      <point x="575" y="1434" type="curve"/>
      <point x="575" y="1200" type="line"/>
      <point x="610" y="1223"/>
      <point x="643" y="1233"/>
      <point x="674" y="1233" type="curve" smooth="yes"/>
      <point x="713" y="1233"/>
      <point x="750" y="1206"/>
      <point x="750" y="1149" type="curve" smooth="yes"/>
      <point x="750" y="487" type="line" smooth="yes"/>
      <point x="750" y="297"/>
      <point x="692" y="227"/>
      <point x="575" y="227" type="curve" smooth="yes"/>
      <point x="463" y="227"/>
      <point x="403" y="299"/>
      <point x="403" y="485" type="curve" smooth="yes"/>
      <point x="403" y="1462" type="line"/>
      <point x="123" y="1462" type="line"/>
      <point x="123" y="475" type="line" smooth="yes"/>
      <point x="123" y="141"/>
      <point x="283" y="-20"/>
    </contour>
  </outline>
</glyph>
<glyph name="uni01B3" format="2">
  <advance width="1044"/>
  <unicode hex="01B3"/>
  <anchor x="502" y="0" name="bottom"/>
  <anchor x="502" y="1462" name="top"/>
  <outline>
    <contour>
      <point x="346" y="0" type="line"/>
      <point x="625" y="0" type="line"/>
      <point x="625" y="563" type="line"/>
      <point x="838" y="1143" type="line" smooth="yes"/>
      <point x="864" y="1214"/>
      <point x="891" y="1241"/>
      <point x="936" y="1241" type="curve" smooth="yes"/>
      <point x="969" y="1241"/>
      <point x="997" y="1231"/>
      <point x="1016" y="1223" type="curve"/>
      <point x="1016" y="1456" type="line"/>
      <point x="987" y="1468"/>
      <point x="936" y="1483"/>
      <point x="879" y="1483" type="curve" smooth="yes"/>
      <point x="733" y="1483"/>
      <point x="657" y="1415"/>
      <point x="604" y="1243" type="curve" smooth="yes"/>
      <point x="487" y="868" type="line"/>
      <point x="291" y="1462" type="line"/>
      <point x="0" y="1462" type="line"/>
      <point x="346" y="557" type="line"/>
    </contour>
  </outline>
</glyph>
<glyph name="uni01B4" format="2">
  <advance width="979"/>
  <unicode hex="01B4"/>
  <anchor x="489" y="-492" name="bottom"/>
  <anchor x="489" y="1120" name="top"/>
  <outline>
    <contour>
      <point x="825" y="1137" type="curve" smooth="yes"/>
      <point x="668" y="1137"/>
      <point x="608" y="1032"/>
      <point x="575" y="891" type="curve" smooth="yes"/>
      <point x="504" y="575" type="line" smooth="yes"/>
      <point x="483" y="489"/>
      <point x="469" y="420"/>
      <point x="463" y="365" type="curve"/>
      <point x="455" y="365" type="line"/>
      <point x="449" y="426"/>
      <point x="434" y="504"/>
      <point x="416" y="578" type="curve" smooth="yes"/>
      <point x="285" y="1120" type="line"/>
      <point x="6" y="1120" type="line"/>
      <point x="328" y="12" type="line"/>
      <point x="311" y="-55" type="line"/>
      <point x="264" y="-217"/>
      <point x="238" y="-254"/>
      <point x="156" y="-254" type="curve" smooth="yes"/>
      <point x="131" y="-254"/>
      <point x="102" y="-248"/>
      <point x="76" y="-240" type="curve"/>
      <point x="76" y="-475" type="line"/>
      <point x="117" y="-485"/>
      <point x="158" y="-492"/>
      <point x="203" y="-492" type="curve" smooth="yes"/>
      <point x="387" y="-492"/>
      <point x="496" y="-387"/>
      <point x="569" y="-109" type="curve" smooth="yes"/>
      <point x="782" y="688" type="line" smooth="yes"/>
      <point x="827" y="858"/>
      <point x="866" y="887"/>
      <point x="918" y="887" type="curve" smooth="yes"/>
      <point x="932" y="887"/>
      <point x="952" y="883"/>
      <point x="973" y="877" type="curve"/>
      <point x="973" y="1106" type="line"/>
      <point x="942" y="1122"/>
      <point x="874" y="1137"/>
    </contour>
  </outline>
</glyph>
<glyph name="uni01B5" format="2">
  <advance width="877"/>
  <unicode hex="01B5"/>
  <anchor x="438" y="0" name="bottom"/>
  <anchor x="438" y="1462" name="top"/>
  <outline>
    <contour>
      <point x="88" y="868" type="line"/>
      <point x="88" y="657" type="line"/>
      <point x="256" y="657" type="line"/>
      <point x="47" y="201" type="line"/>
      <point x="47" y="0" type="line"/>
      <point x="834" y="0" type="line"/>
      <point x="834" y="244" type="line"/>
      <point x="348" y="244" type="line"/>
      <point x="537" y="657" type="line"/>
      <point x="801" y="657" type="line"/>
      <point x="801" y="868" type="line"/>
      <point x="643" y="868" type="line"/>
      <point x="821" y="1262" type="line"/>
      <point x="821" y="1462" type="line"/>
      <point x="55" y="1462" type="line"/>
      <point x="55" y="1221" type="line"/>
      <point x="520" y="1221" type="line"/>
      <point x="362" y="868" type="line"/>
    </contour>
  </outline>
</glyph>
<glyph name="uni01B6" format="2">
  <advance width="739"/>
  <unicode hex="01B6"/>
  <anchor x="371" y="0" name="bottom"/>
  <anchor x="371" y="1120" name="top"/>
  <outline>
    <contour>
      <point x="684" y="1120" type="line"/>
      <point x="61" y="1120" type="line"/>
      <point x="61" y="895" type="line"/>
      <point x="389" y="895" type="line"/>
      <point x="283" y="662" type="line"/>
      <point x="66" y="662" type="line"/>
      <point x="66" y="467" type="line"/>
      <point x="182" y="467" type="line"/>
      <point x="41" y="166" type="line"/>
      <point x="41" y="0" type="line"/>
      <point x="700" y="0" type="line"/>
      <point x="700" y="223" type="line"/>
      <point x="350" y="223" type="line"/>
      <point x="459" y="467" type="line"/>
      <point x="678" y="467" type="line"/>
      <point x="678" y="662" type="line"/>
      <point x="557" y="662" type="line"/>
      <point x="684" y="940" type="line"/>
    </contour>
  </outline>
</glyph>
<glyph name="uni01BB" format="2">
  <advance width="961"/>
  <unicode hex="01BB"/>
  <anchor x="481" y="0" name="bottom"/>
  <anchor x="481" y="1565" name="top"/>
  <outline>
    <contour>
      <point x="428" y="1565" type="curve" smooth="yes"/>
      <point x="274" y="1565"/>
      <point x="168" y="1532"/>
      <point x="55" y="1378" type="curve"/>
      <point x="174" y="1196" type="line"/>
      <point x="260" y="1298"/>
      <point x="315" y="1323"/>
      <point x="397" y="1323" type="curve" smooth="yes"/>
      <point x="487" y="1323"/>
      <point x="543" y="1251"/>
      <point x="543" y="1143" type="curve" smooth="yes"/>
      <point x="543" y="1034"/>
      <point x="522" y="948"/>
      <point x="475" y="852" type="curve"/>
      <point x="104" y="852" type="line"/>
      <point x="104" y="659" type="line"/>
      <point x="356" y="659" type="line"/>
      <point x="59" y="199" type="line"/>
      <point x="59" y="0" type="line"/>
      <point x="856" y="0" type="line"/>
      <point x="856" y="242" type="line"/>
      <point x="387" y="242" type="line"/>
      <point x="387" y="252" type="line"/>
      <point x="655" y="659" type="line"/>
      <point x="872" y="659" type="line"/>
      <point x="872" y="852" type="line"/>
      <point x="760" y="852" type="line"/>
      <point x="791" y="930"/>
      <point x="817" y="1030"/>
      <point x="817" y="1145" type="curve" smooth="yes"/>
      <point x="817" y="1397"/>
      <point x="659" y="1565"/>
    </contour>
  </outline>
</glyph>
<glyph name="uni01BE" format="2">
  <advance width="780"/>
  <unicode hex="01BE"/>
  <anchor x="391" y="0" name="bottom"/>
  <anchor x="391" y="1356" name="top"/>
  <outline>
    <contour>
      <point x="365" y="-20" type="curve" smooth="yes"/>
      <point x="588" y="-20"/>
      <point x="711" y="113"/>
      <point x="711" y="307" type="curve" smooth="yes"/>
      <point x="713" y="467"/>
      <point x="670" y="549"/>
      <point x="547" y="657" type="curve" smooth="yes"/>
      <point x="473" y="721"/>
      <point x="455" y="768"/>
      <point x="455" y="819" type="curve" smooth="yes"/>
      <point x="455" y="899" type="line"/>
      <point x="666" y="899" type="line"/>
      <point x="666" y="1120" type="line"/>
      <point x="455" y="1120" type="line"/>
      <point x="455" y="1356" type="line"/>
      <point x="274" y="1356" type="line"/>
      <point x="209" y="1112" type="line"/>
      <point x="57" y="1042" type="line"/>
      <point x="57" y="899" type="line"/>
      <point x="190" y="899" type="line"/>
      <point x="190" y="797" type="line" smooth="yes"/>
      <point x="190" y="684"/>
      <point x="213" y="604"/>
      <point x="311" y="526" type="curve" smooth="yes"/>
      <point x="399" y="453"/>
      <point x="440" y="403"/>
      <point x="440" y="332" type="curve" smooth="yes"/>
      <point x="440" y="258"/>
      <point x="395" y="219"/>
      <point x="309" y="219" type="curve" smooth="yes"/>
      <point x="233" y="219"/>
      <point x="143" y="236"/>
      <point x="49" y="291" type="curve"/>
      <point x="49" y="41" type="line"/>
      <point x="137" y="-4"/>
      <point x="236" y="-20"/>
    </contour>
  </outline>
</glyph>
<glyph name="uni01BF" format="2">
  <advance width="1024"/>
  <unicode hex="01BF"/>
  <anchor x="512" y="-492" name="bottom"/>
  <anchor x="512" y="1120" name="top"/>
  <outline>
    <contour>
      <point x="621" y="1141" type="curve" smooth="yes"/>
      <point x="520" y="1141"/>
      <point x="440" y="1106"/>
      <point x="383" y="973" type="curve"/>
      <point x="369" y="973" type="line"/>
      <point x="330" y="1120" type="line"/>
      <point x="115" y="1120" type="line"/>
      <point x="115" y="-492" type="line"/>
      <point x="381" y="-492" type="line"/>
      <point x="381" y="-20" type="line"/>
      <point x="621" y="-6"/>
      <point x="950" y="211"/>
      <point x="950" y="670" type="curve" smooth="yes"/>
      <point x="950" y="981"/>
      <point x="831" y="1141"/>
    </contour>
    <contour>
      <point x="537" y="915" type="curve" smooth="yes"/>
      <point x="635" y="915"/>
      <point x="680" y="823"/>
      <point x="680" y="662" type="curve" smooth="yes"/>
      <point x="680" y="358"/>
      <point x="508" y="221"/>
      <point x="381" y="211" type="curve"/>
      <point x="381" y="588" type="line" smooth="yes"/>
      <point x="381" y="817"/>
      <point x="428" y="915"/>
    </contour>
  </outline>
</glyph>
<glyph name="uni01F6" format="2">
  <advance width="1747"/>
  <unicode hex="01F6"/>
  <anchor x="874" y="0" name="bottom"/>
  <anchor x="874" y="1462" name="top"/>
  <outline>
    <contour>
      <point x="131" y="0" type="line"/>
      <point x="412" y="0" type="line"/>
      <point x="412" y="639" type="line"/>
      <point x="774" y="639" type="line"/>
      <point x="774" y="389" type="line" smooth="yes"/>
      <point x="774" y="133"/>
      <point x="899" y="-20"/>
      <point x="1206" y="-20" type="curve" smooth="yes"/>
      <point x="1511" y="-20"/>
      <point x="1636" y="133"/>
      <point x="1636" y="389" type="curve" smooth="yes"/>
      <point x="1636" y="1120" type="line"/>
      <point x="1356" y="1120" type="line"/>
      <point x="1356" y="446" type="line" smooth="yes"/>
      <point x="1356" y="279"/>
      <point x="1315" y="217"/>
      <point x="1206" y="217" type="curve" smooth="yes"/>
      <point x="1098" y="217"/>
      <point x="1055" y="279"/>
      <point x="1055" y="446" type="curve" smooth="yes"/>
      <point x="1055" y="1462" type="line"/>
      <point x="774" y="1462" type="line"/>
      <point x="774" y="883" type="line"/>
      <point x="412" y="883" type="line"/>
      <point x="412" y="1462" type="line"/>
      <point x="131" y="1462" type="line"/>
    </contour>
  </outline>
</glyph>
<glyph name="uni01F7" format="2">
  <advance width="1169"/>
  <unicode hex="01F7"/>
  <anchor x="586" y="-492" name="bottom"/>
  <anchor x="586" y="1462" name="top"/>
  <outline>
    <contour>
      <point x="676" y="1481" type="curve" smooth="yes"/>
      <point x="559" y="1481"/>
      <point x="473" y="1427"/>
      <point x="412" y="1313" type="curve"/>
      <point x="403" y="1313" type="line"/>
      <point x="369" y="1462" type="line"/>
      <point x="131" y="1462" type="line"/>
      <point x="131" y="-492" type="line"/>
      <point x="412" y="-492" type="line"/>
      <point x="412" y="-2" type="line"/>
      <point x="754" y="61"/>
      <point x="1092" y="375"/>
      <point x="1092" y="899" type="curve" smooth="yes"/>
      <point x="1092" y="1272"/>
      <point x="950" y="1481"/>
    </contour>
    <contour>
      <point x="604" y="1239" type="curve" smooth="yes"/>
      <point x="745" y="1239"/>
      <point x="801" y="1118"/>
      <point x="801" y="913" type="curve" smooth="yes"/>
      <point x="801" y="477"/>
      <point x="598" y="289"/>
      <point x="412" y="244" type="curve"/>
      <point x="412" y="956" type="line" smooth="yes"/>
      <point x="412" y="1143"/>
      <point x="487" y="1237"/>
    </contour>
  </outline>
</glyph>
<glyph name="aringacute" format="2">
  <advance width="950"/>
  <unicode hex="01FB"/>
  <anchor x="475" y="0" name="bottom"/>
  <anchor x="475" y="1968" name="top"/>
  <outline>
    <contour>
      <point x="504" y="1141" type="curve" smooth="yes"/>
      <point x="369" y="1141"/>
      <point x="246" y="1108"/>
      <point x="145" y="1047" type="curve"/>
      <point x="219" y="848" type="line"/>
      <point x="309" y="901"/>
      <point x="385" y="926"/>
      <point x="449" y="926" type="curve" smooth="yes"/>
      <point x="535" y="926"/>
      <point x="571" y="866"/>
      <point x="571" y="743" type="curve" smooth="yes"/>
      <point x="571" y="698" type="line"/>
      <point x="432" y="692" type="line" smooth="yes"/>
      <point x="193" y="682"/>
      <point x="59" y="563"/>
      <point x="59" y="330" type="curve" smooth="yes"/>
      <point x="59" y="150"/>
      <point x="133" y="-20"/>
      <point x="319" y="-20" type="curve" smooth="yes"/>
      <point x="451" y="-20"/>
      <point x="526" y="35"/>
      <point x="594" y="150" type="curve"/>
      <point x="600" y="150" type="line"/>
      <point x="643" y="0" type="line"/>
      <point x="838" y="0" type="line"/>
      <point x="838" y="741" type="line" smooth="yes"/>
      <point x="838" y="1006"/>
      <point x="721" y="1141"/>
    </contour>
    <contour>
      <point x="571" y="520" type="line"/>
      <point x="571" y="418" type="line" smooth="yes"/>
      <point x="571" y="281"/>
      <point x="512" y="193"/>
      <point x="428" y="193" type="curve" smooth="yes"/>
      <point x="362" y="193"/>
      <point x="328" y="242"/>
      <point x="328" y="342" type="curve" smooth="yes"/>
      <point x="328" y="453"/>
      <point x="383" y="510"/>
      <point x="496" y="516" type="curve" smooth="yes"/>
    </contour>
    <contour>
      <point x="485" y="1534" type="curve" smooth="yes"/>
      <point x="541" y="1534"/>
      <point x="580" y="1497"/>
      <point x="580" y="1442" type="curve" smooth="yes"/>
      <point x="580" y="1386"/>
      <point x="539" y="1348"/>
      <point x="485" y="1348" type="curve" smooth="yes"/>
      <point x="424" y="1348"/>
      <point x="391" y="1386"/>
      <point x="391" y="1442" type="curve" smooth="yes"/>
      <point x="391" y="1497"/>
      <point x="432" y="1534"/>
    </contour>
    <contour>
      <point x="483" y="1675" type="curve" smooth="yes"/>
      <point x="340" y="1675"/>
      <point x="246" y="1579"/>
      <point x="246" y="1442" type="curve" smooth="yes"/>
      <point x="246" y="1305"/>
      <point x="340" y="1208"/>
      <point x="483" y="1208" type="curve" smooth="yes"/>
      <point x="629" y="1208"/>
      <point x="729" y="1309"/>
      <point x="729" y="1444" type="curve" smooth="yes"/>
      <point x="729" y="1579"/>
      <point x="623" y="1675"/>
    </contour>
    <contour>
      <point x="827" y="1968" type="line"/>
      <point x="506" y="1968" type="line"/>
      <point x="477" y="1913"/>
      <point x="459" y="1882"/>
      <point x="354" y="1745" type="curve"/>
      <point x="354" y="1726" type="line"/>
      <point x="571" y="1726" type="line"/>
      <point x="627" y="1767"/>
      <point x="776" y="1892"/>
      <point x="827" y="1956" type="curve"/>
    </contour>
  </outline>
</glyph>
<glyph name="uni021C" format="2">
  <advance width="922"/>
  <unicode hex="021C"/>
  <anchor x="453" y="-217" name="bottom"/>
  <anchor x="418" y="1462" name="top"/>
  <outline>
    <contour>
      <point x="49" y="-369" type="line"/>
      <point x="594" y="-203"/>
      <point x="838" y="0"/>
      <point x="838" y="375" type="curve" smooth="yes"/>
      <point x="838" y="557"/>
      <point x="752" y="674"/>
      <point x="647" y="745" type="curve"/>
      <point x="756" y="829"/>
      <point x="817" y="940"/>
      <point x="817" y="1096" type="curve" smooth="yes"/>
      <point x="817" y="1368"/>
      <point x="635" y="1483"/>
      <point x="438" y="1483" type="curve" smooth="yes"/>
      <point x="272" y="1483"/>
      <point x="172" y="1440"/>
      <point x="39" y="1331" type="curve"/>
      <point x="150" y="1135" type="line"/>
      <point x="231" y="1208"/>
      <point x="313" y="1239"/>
      <point x="395" y="1239" type="curve" smooth="yes"/>
      <point x="475" y="1239"/>
      <point x="539" y="1182"/>
      <point x="539" y="1067" type="curve" smooth="yes"/>
      <point x="539" y="942"/>
      <point x="463" y="862"/>
      <point x="227" y="797" type="curve"/>
      <point x="289" y="586" type="line"/>
      <point x="346" y="602"/>
      <point x="401" y="621"/>
      <point x="451" y="639" type="curve"/>
      <point x="510" y="580"/>
      <point x="551" y="500"/>
      <point x="551" y="373" type="curve" smooth="yes"/>
      <point x="551" y="156"/>
      <point x="469" y="14"/>
      <point x="49" y="-117" type="curve"/>
    </contour>
  </outline>
</glyph>
<glyph name="uni021D" format="2">
  <advance width="864"/>
  <unicode hex="021D"/>
  <anchor x="408" y="-406" name="bottom"/>
  <anchor x="369" y="1108" name="top"/>
  <outline>
    <contour>
      <point x="72" y="-492" type="line"/>
      <point x="520" y="-387"/>
      <point x="797" y="-236"/>
      <point x="797" y="123" type="curve" smooth="yes"/>
      <point x="797" y="289"/>
      <point x="723" y="399"/>
      <point x="625" y="465" type="curve"/>
      <point x="719" y="543"/>
      <point x="770" y="645"/>
      <point x="770" y="778" type="curve" smooth="yes"/>
      <point x="770" y="1008"/>
      <point x="621" y="1137"/>
      <point x="410" y="1137" type="curve" smooth="yes"/>
      <point x="283" y="1137"/>
      <point x="174" y="1106"/>
      <point x="37" y="1040" type="curve"/>
      <point x="113" y="825" type="line"/>
      <point x="188" y="872"/>
      <point x="260" y="901"/>
      <point x="352" y="901" type="curve" smooth="yes"/>
      <point x="442" y="901"/>
      <point x="512" y="846"/>
      <point x="512" y="741" type="curve" smooth="yes"/>
      <point x="512" y="618"/>
      <point x="418" y="551"/>
      <point x="221" y="502" type="curve"/>
      <point x="276" y="299" type="line"/>
      <point x="338" y="317"/>
      <point x="395" y="336"/>
      <point x="446" y="358" type="curve"/>
      <point x="504" y="303"/>
      <point x="526" y="231"/>
      <point x="526" y="123" type="curve" smooth="yes"/>
      <point x="526" y="-80"/>
      <point x="401" y="-186"/>
      <point x="72" y="-270" type="curve"/>
    </contour>
  </outline>
</glyph>
<glyph name="uni0221" format="2">
  <advance width="1444"/>
  <unicode hex="0221"/>
  <anchor x="723" y="-213" name="bottom"/>
  <anchor x="723" y="1556" name="top"/>
  <outline>
    <contour>
      <point x="997" y="-213" type="line"/>
      <point x="999" y="-139"/>
      <point x="1008" y="-66"/>
      <point x="1018" y="0" type="curve"/>
      <point x="1038" y="-4"/>
      <point x="1081" y="-8"/>
      <point x="1112" y="-8" type="curve" smooth="yes"/>
      <point x="1341" y="-8"/>
      <point x="1436" y="119"/>
      <point x="1436" y="268" type="curve" smooth="yes"/>
      <point x="1436" y="410"/>
      <point x="1339" y="514"/>
      <point x="1188" y="514" type="curve" smooth="yes"/>
      <point x="1081" y="514"/>
      <point x="993" y="461"/>
      <point x="922" y="336" type="curve"/>
      <point x="911" y="367"/>
      <point x="909" y="401"/>
      <point x="909" y="432" type="curve"/>
      <point x="909" y="1556" type="line"/>
      <point x="643" y="1556" type="line"/>
      <point x="643" y="1167" type="line" smooth="yes"/>
      <point x="643" y="1124"/>
      <point x="647" y="1063"/>
      <point x="651" y="977" type="curve"/>
      <point x="641" y="977" type="line"/>
      <point x="584" y="1087"/>
      <point x="500" y="1141"/>
      <point x="397" y="1141" type="curve" smooth="yes"/>
      <point x="193" y="1141"/>
      <point x="74" y="926"/>
      <point x="74" y="561" type="curve" smooth="yes"/>
      <point x="74" y="197"/>
      <point x="190" y="-20"/>
      <point x="406" y="-20" type="curve" smooth="yes"/>
      <point x="541" y="-20"/>
      <point x="641" y="43"/>
      <point x="696" y="190" type="curve"/>
      <point x="707" y="190" type="line"/>
      <point x="713" y="156"/>
      <point x="768" y="80"/>
      <point x="817" y="55" type="curve"/>
      <point x="803" y="-20"/>
      <point x="791" y="-106"/>
      <point x="786" y="-203" type="curve"/>
    </contour>
    <contour>
      <point x="485" y="203" type="curve" smooth="yes"/>
      <point x="393" y="203"/>
      <point x="344" y="322"/>
      <point x="344" y="563" type="curve" smooth="yes"/>
      <point x="344" y="791"/>
      <point x="389" y="909"/>
      <point x="485" y="909" type="curve" smooth="yes"/>
      <point x="596" y="909"/>
      <point x="643" y="811"/>
      <point x="643" y="590" type="curve" smooth="yes"/>
      <point x="643" y="526" type="line" smooth="yes"/>
      <point x="643" y="303"/>
      <point x="592" y="203"/>
    </contour>
    <contour>
      <point x="1126" y="180" type="curve" smooth="yes"/>
      <point x="1100" y="180"/>
      <point x="1073" y="184"/>
      <point x="1059" y="188" type="curve"/>
      <point x="1079" y="268"/>
      <point x="1106" y="317"/>
      <point x="1163" y="317" type="curve" smooth="yes"/>
      <point x="1204" y="317"/>
      <point x="1231" y="291"/>
      <point x="1231" y="252" type="curve" smooth="yes"/>
      <point x="1231" y="211"/>
      <point x="1192" y="180"/>
    </contour>
  </outline>
</glyph>
<glyph name="uni0222" format="2">
  <advance width="1214"/>
  <unicode hex="0222"/>
  <anchor x="608" y="0" name="bottom"/>
  <anchor x="608" y="1462" name="top"/>
  <outline>
    <contour>
      <point x="608" y="-20" type="curve" smooth="yes"/>
      <point x="958" y="-20"/>
      <point x="1126" y="170"/>
      <point x="1126" y="481" type="curve" smooth="yes"/>
      <point x="1126" y="659"/>
      <point x="1061" y="797"/>
      <point x="915" y="866" type="curve"/>
      <point x="1010" y="940"/>
      <point x="1061" y="1061"/>
      <point x="1061" y="1241" type="curve" smooth="yes"/>
      <point x="1061" y="1462" type="line"/>
      <point x="780" y="1462" type="line"/>
      <point x="780" y="1227" type="line" smooth="yes"/>
      <point x="780" y="1036"/>
      <point x="725" y="967"/>
      <point x="608" y="967" type="curve" smooth="yes"/>
      <point x="496" y="967"/>
      <point x="434" y="1038"/>
      <point x="434" y="1223" type="curve" smooth="yes"/>
      <point x="434" y="1462" type="line"/>
      <point x="154" y="1462" type="line"/>
      <point x="154" y="1235" type="line" smooth="yes"/>
      <point x="154" y="1057"/>
      <point x="203" y="936"/>
      <point x="297" y="864" type="curve"/>
      <point x="160" y="799"/>
      <point x="88" y="672"/>
      <point x="88" y="483" type="curve" smooth="yes"/>
      <point x="88" y="174"/>
      <point x="256" y="-20"/>
    </contour>
    <contour>
      <point x="608" y="227" type="curve" smooth="yes"/>
      <point x="457" y="227"/>
      <point x="379" y="313"/>
      <point x="379" y="483" type="curve" smooth="yes"/>
      <point x="379" y="651"/>
      <point x="457" y="737"/>
      <point x="608" y="737" type="curve" smooth="yes"/>
      <point x="760" y="737"/>
      <point x="836" y="655"/>
      <point x="836" y="483" type="curve" smooth="yes"/>
      <point x="836" y="309"/>
      <point x="760" y="227"/>
    </contour>
  </outline>
</glyph>
<glyph name="uni0234" format="2">
  <advance width="805"/>
  <unicode hex="0234"/>
  <anchor x="403" y="0" name="bottom"/>
  <anchor x="283" y="1567" name="top"/>
  <outline>
    <contour>
      <point x="203" y="-80" type="line"/>
      <point x="221" y="-29"/>
      <point x="238" y="16"/>
      <point x="254" y="55" type="curve"/>
      <point x="303" y="8"/>
      <point x="373" y="-20"/>
      <point x="469" y="-20" type="curve" smooth="yes"/>
      <point x="655" y="-20"/>
      <point x="768" y="92"/>
      <point x="768" y="254" type="curve" smooth="yes"/>
      <point x="768" y="414"/>
      <point x="664" y="520"/>
      <point x="510" y="520" type="curve" smooth="yes"/>
      <point x="471" y="520"/>
      <point x="438" y="516"/>
      <point x="408" y="508" type="curve"/>
      <point x="408" y="1567" type="line"/>
      <point x="141" y="1567" type="line"/>
      <point x="141" y="375" type="line" smooth="yes"/>
      <point x="141" y="350"/>
      <point x="141" y="326"/>
      <point x="143" y="301" type="curve"/>
      <point x="96" y="225"/>
      <point x="51" y="123"/>
      <point x="2" y="-8" type="curve"/>
    </contour>
    <contour>
      <point x="487" y="166" type="curve" smooth="yes"/>
      <point x="438" y="166"/>
      <point x="410" y="195"/>
      <point x="406" y="301" type="curve"/>
      <point x="432" y="326"/>
      <point x="459" y="332"/>
      <point x="489" y="332" type="curve" smooth="yes"/>
      <point x="528" y="332"/>
      <point x="559" y="299"/>
      <point x="559" y="250" type="curve" smooth="yes"/>
      <point x="559" y="207"/>
      <point x="537" y="166"/>
    </contour>
  </outline>
</glyph>
<glyph name="uni0235" format="2">
  <advance width="1311"/>
  <unicode hex="0235"/>
  <anchor x="655" y="0" name="bottom"/>
  <anchor x="655" y="1120" name="top"/>
  <outline>
    <contour>
      <point x="709" y="-74" type="line"/>
      <point x="727" y="-25"/>
      <point x="743" y="18"/>
      <point x="760" y="55" type="curve"/>
      <point x="807" y="6"/>
      <point x="877" y="-20"/>
      <point x="975" y="-20" type="curve" smooth="yes"/>
      <point x="1161" y="-20"/>
      <point x="1274" y="92"/>
      <point x="1274" y="254" type="curve" smooth="yes"/>
      <point x="1274" y="422"/>
      <point x="1169" y="524"/>
      <point x="1016" y="524" type="curve" smooth="yes"/>
      <point x="979" y="524"/>
      <point x="944" y="520"/>
      <point x="913" y="510" type="curve"/>
      <point x="913" y="741" type="line" smooth="yes"/>
      <point x="913" y="1001"/>
      <point x="807" y="1141"/>
      <point x="618" y="1141" type="curve" smooth="yes"/>
      <point x="506" y="1141"/>
      <point x="420" y="1083"/>
      <point x="371" y="977" type="curve"/>
      <point x="354" y="977" type="line"/>
      <point x="326" y="1120" type="line"/>
      <point x="115" y="1120" type="line"/>
      <point x="115" y="0" type="line"/>
      <point x="381" y="0" type="line"/>
      <point x="381" y="539" type="line" smooth="yes"/>
      <point x="381" y="805"/>
      <point x="422" y="903"/>
      <point x="539" y="903" type="curve" smooth="yes"/>
      <point x="618" y="903"/>
      <point x="647" y="821"/>
      <point x="647" y="664" type="curve" smooth="yes"/>
      <point x="647" y="373" type="line" smooth="yes"/>
      <point x="647" y="352"/>
      <point x="647" y="326"/>
      <point x="649" y="305" type="curve"/>
      <point x="602" y="229"/>
      <point x="557" y="127"/>
      <point x="508" y="-4" type="curve"/>
    </contour>
    <contour>
      <point x="993" y="166" type="curve" smooth="yes"/>
      <point x="944" y="166"/>
      <point x="913" y="195"/>
      <point x="911" y="303" type="curve"/>
      <point x="938" y="328"/>
      <point x="965" y="336"/>
      <point x="995" y="336" type="curve" smooth="yes"/>
      <point x="1034" y="336"/>
      <point x="1067" y="307"/>
      <point x="1067" y="250" type="curve" smooth="yes"/>
      <point x="1067" y="207"/>
      <point x="1042" y="166"/>
    </contour>
  </outline>
</glyph>
<glyph name="uni0239" format="2">
  <advance width="1552"/>
  <unicode hex="0239"/>
  <anchor x="776" y="-436" name="bottom"/>
  <anchor x="776" y="1120" name="top"/>
  <outline>
    <contour>
      <point x="1053" y="1141" type="curve" smooth="yes"/>
      <point x="920" y="1141"/>
      <point x="831" y="1073"/>
      <point x="776" y="950" type="curve"/>
      <point x="721" y="1073"/>
      <point x="633" y="1141"/>
      <point x="500" y="1141" type="curve" smooth="yes"/>
      <point x="180" y="1141"/>
      <point x="74" y="858"/>
      <point x="74" y="557" type="curve" smooth="yes"/>
      <point x="74" y="193"/>
      <point x="195" y="-16"/>
      <point x="399" y="-16" type="curve" smooth="yes"/>
      <point x="500" y="-16"/>
      <point x="582" y="35"/>
      <point x="641" y="150" type="curve"/>
      <point x="651" y="150" type="line"/>
      <point x="647" y="63"/>
      <point x="643" y="-2"/>
      <point x="643" y="-45" type="curve" smooth="yes"/>
      <point x="643" y="-436" type="line"/>
      <point x="909" y="-436" type="line"/>
      <point x="909" y="-43" type="line" smooth="yes"/>
      <point x="909" y="0"/>
      <point x="907" y="61"/>
      <point x="901" y="147" type="curve"/>
      <point x="911" y="147" type="line"/>
      <point x="969" y="37"/>
      <point x="1053" y="-16"/>
      <point x="1157" y="-16" type="curve" smooth="yes"/>
      <point x="1360" y="-16"/>
      <point x="1479" y="193"/>
      <point x="1479" y="557" type="curve" smooth="yes"/>
      <point x="1479" y="860"/>
      <point x="1372" y="1141"/>
    </contour>
    <contour>
      <point x="483" y="915" type="curve" smooth="yes"/>
      <point x="596" y="915"/>
      <point x="643" y="809"/>
      <point x="643" y="553" type="curve" smooth="yes"/>
      <point x="643" y="332"/>
      <point x="606" y="215"/>
      <point x="487" y="215" type="curve" smooth="yes"/>
      <point x="389" y="215"/>
      <point x="344" y="330"/>
      <point x="344" y="553" type="curve" smooth="yes"/>
      <point x="344" y="801"/>
      <point x="391" y="915"/>
    </contour>
    <contour>
      <point x="1067" y="915" type="curve" smooth="yes"/>
      <point x="1159" y="915"/>
      <point x="1208" y="797"/>
      <point x="1208" y="555" type="curve" smooth="yes"/>
      <point x="1208" y="332"/>
      <point x="1161" y="215"/>
      <point x="1067" y="215" type="curve" smooth="yes"/>
      <point x="956" y="215"/>
      <point x="909" y="313"/>
      <point x="909" y="553" type="curve" smooth="yes"/>
      <point x="909" y="803"/>
      <point x="952" y="915"/>
    </contour>
  </outline>
</glyph>
<glyph name="uni023C" format="2">
  <advance width="817"/>
  <unicode hex="023C"/>
  <anchor x="492" y="-426" name="bottom"/>
  <anchor x="475" y="1556" name="top"/>
  <outline>
    <contour>
      <point x="717" y="1556" type="line"/>
      <point x="610" y="1556" type="line"/>
      <point x="309" y="-426" type="line"/>
      <point x="418" y="-426" type="line"/>
    </contour>
    <component base="c"/>
  </outline>
</glyph>
<glyph name="uni023D" format="2">
  <advance width="831"/>
  <unicode hex="023D"/>
  <anchor x="469" y="0" name="bottom"/>
  <anchor x="274" y="1462" name="top"/>
  <outline>
    <contour>
      <point x="18" y="666" type="line"/>
      <point x="655" y="666" type="line"/>
      <point x="655" y="823" type="line"/>
      <point x="18" y="823" type="line"/>
    </contour>
    <component base="L"/>
  </outline>
</glyph>
<glyph name="uni023E" format="2">
  <advance width="879"/>
  <unicode hex="023E"/>
  <anchor x="440" y="0" name="bottom"/>
  <anchor x="440" y="1462" name="top"/>
  <outline>
    <contour>
      <point x="784" y="1556" type="line"/>
      <point x="670" y="1556" type="line"/>
      <point x="133" y="-154" type="line"/>
      <point x="248" y="-154" type="line"/>
    </contour>
    <component base="T"/>
  </outline>
</glyph>
<glyph name="uni0241" format="2">
  <advance width="809"/>
  <unicode hex="0241"/>
  <anchor x="406" y="0" name="bottom"/>
  <anchor x="406" y="1462" name="top"/>
  <outline>
    <contour>
      <point x="348" y="1483" type="curve" smooth="yes"/>
      <point x="231" y="1483"/>
      <point x="115" y="1462"/>
      <point x="2" y="1374" type="curve"/>
      <point x="92" y="1161" type="line"/>
      <point x="172" y="1221"/>
      <point x="242" y="1239"/>
      <point x="311" y="1239" type="curve" smooth="yes"/>
      <point x="395" y="1239"/>
      <point x="463" y="1176"/>
      <point x="463" y="1055" type="curve" smooth="yes"/>
      <point x="463" y="885"/>
      <point x="399" y="758"/>
      <point x="193" y="614" type="curve"/>
      <point x="193" y="0" type="line"/>
      <point x="461" y="0" type="line"/>
      <point x="461" y="514" type="line"/>
      <point x="662" y="684"/>
      <point x="752" y="848"/>
      <point x="752" y="1077" type="curve" smooth="yes"/>
      <point x="752" y="1329"/>
      <point x="598" y="1483"/>
    </contour>
  </outline>
</glyph>
<glyph name="uni0243" format="2">
  <advance width="1079"/>
  <unicode hex="0243"/>
  <anchor x="541" y="0" name="bottom"/>
  <anchor x="541" y="1462" name="top"/>
  <outline>
    <contour>
      <point x="131" y="0" type="line"/>
      <point x="561" y="0" type="line" smooth="yes"/>
      <point x="831" y="0"/>
      <point x="993" y="164"/>
      <point x="993" y="424" type="curve" smooth="yes"/>
      <point x="993" y="610"/>
      <point x="926" y="723"/>
      <point x="768" y="766" type="curve"/>
      <point x="768" y="776" type="line"/>
      <point x="893" y="809"/>
      <point x="967" y="930"/>
      <point x="967" y="1102" type="curve" smooth="yes"/>
      <point x="967" y="1346"/>
      <point x="817" y="1462"/>
      <point x="516" y="1462" type="curve" smooth="yes"/>
      <point x="131" y="1462" type="line"/>
      <point x="131" y="530" type="line"/>
      <point x="18" y="530" type="line"/>
      <point x="18" y="373" type="line"/>
      <point x="131" y="373" type="line"/>
    </contour>
    <contour>
      <point x="412" y="236" type="line"/>
      <point x="412" y="373" type="line"/>
      <point x="567" y="373" type="line"/>
      <point x="567" y="530" type="line"/>
      <point x="412" y="530" type="line"/>
      <point x="412" y="664" type="line"/>
      <point x="528" y="664" type="line" smooth="yes"/>
      <point x="643" y="664"/>
      <point x="707" y="584"/>
      <point x="707" y="453" type="curve" smooth="yes"/>
      <point x="707" y="311"/>
      <point x="651" y="236"/>
      <point x="539" y="236" type="curve" smooth="yes"/>
    </contour>
    <contour>
      <point x="412" y="870" type="line"/>
      <point x="412" y="1233" type="line"/>
      <point x="512" y="1233" type="line" smooth="yes"/>
      <point x="627" y="1233"/>
      <point x="684" y="1174"/>
      <point x="684" y="1063" type="curve" smooth="yes"/>
      <point x="684" y="936"/>
      <point x="629" y="870"/>
      <point x="516" y="870" type="curve" smooth="yes"/>
    </contour>
  </outline>
</glyph>
<glyph name="uni0246" format="2">
  <advance width="874"/>
  <unicode hex="0246"/>
  <anchor x="467" y="0" name="bottom"/>
  <anchor x="459" y="1462" name="top"/>
  <outline>
    <contour>
      <point x="717" y="1556" type="line"/>
      <point x="614" y="1556" type="line"/>
      <point x="426" y="-154" type="line"/>
      <point x="528" y="-154" type="line"/>
    </contour>
    <component base="E"/>
  </outline>
</glyph>
<glyph name="uni024C" format="2">
  <advance width="1049"/>
  <unicode hex="024C"/>
  <anchor x="547" y="0" name="bottom"/>
  <anchor x="537" y="1462" name="top"/>
  <outline>
    <contour>
      <point x="350" y="573" type="line"/>
      <point x="350" y="795" type="line"/>
      <point x="10" y="795" type="line"/>
      <point x="10" y="573" type="line"/>
    </contour>
    <component base="R"/>
  </outline>
</glyph>
<glyph name="uni0255" format="2">
  <advance width="834"/>
  <unicode hex="0255"/>
  <anchor x="418" y="0" name="bottom"/>
  <anchor x="418" y="1120" name="top"/>
  <outline>
    <contour>
      <point x="500" y="1141" type="curve" smooth="yes"/>
      <point x="205" y="1141"/>
      <point x="76" y="895"/>
      <point x="76" y="555" type="curve" smooth="yes"/>
      <point x="76" y="416"/>
      <point x="92" y="303"/>
      <point x="127" y="217" type="curve"/>
      <point x="96" y="156"/>
      <point x="66" y="82"/>
      <point x="33" y="-4" type="curve"/>
      <point x="233" y="-74" type="line"/>
      <point x="248" y="-35"/>
      <point x="262" y="2"/>
      <point x="276" y="37" type="curve"/>
      <point x="336" y="-2"/>
      <point x="408" y="-20"/>
      <point x="496" y="-20" type="curve" smooth="yes"/>
      <point x="686" y="-20"/>
      <point x="799" y="92"/>
      <point x="799" y="254" type="curve" smooth="yes"/>
      <point x="799" y="422"/>
      <point x="694" y="524"/>
      <point x="541" y="524" type="curve" smooth="yes"/>
      <point x="467" y="524"/>
      <point x="408" y="508"/>
      <point x="352" y="469" type="curve"/>
      <point x="348" y="492"/>
      <point x="346" y="522"/>
      <point x="346" y="555" type="curve" smooth="yes"/>
      <point x="346" y="786"/>
      <point x="410" y="909"/>
      <point x="518" y="909" type="curve" smooth="yes"/>
      <point x="580" y="909"/>
      <point x="639" y="891"/>
      <point x="700" y="854" type="curve"/>
      <point x="774" y="1067" type="line"/>
      <point x="696" y="1116"/>
      <point x="610" y="1141"/>
    </contour>
    <contour>
      <point x="520" y="336" type="curve" smooth="yes"/>
      <point x="559" y="336"/>
      <point x="590" y="307"/>
      <point x="590" y="250" type="curve" smooth="yes"/>
      <point x="590" y="207"/>
      <point x="565" y="166"/>
      <point x="518" y="166" type="curve" smooth="yes"/>
      <point x="461" y="166"/>
      <point x="420" y="193"/>
      <point x="391" y="250" type="curve"/>
      <point x="434" y="315"/>
      <point x="473" y="336"/>
    </contour>
  </outline>
</glyph>
<glyph name="uni0259" format="2">
  <advance width="936"/>
  <unicode hex="0259"/>
  <anchor x="469" y="0" name="bottom"/>
  <anchor x="459" y="1120" name="top"/>
  <outline>
    <contour>
      <point x="426" y="1139" type="curve" smooth="yes"/>
      <point x="309" y="1139"/>
      <point x="209" y="1114"/>
      <point x="119" y="1061" type="curve"/>
      <point x="119" y="840" type="line"/>
      <point x="215" y="899"/>
      <point x="295" y="922"/>
      <point x="389" y="922" type="curve" smooth="yes"/>
      <point x="532" y="922"/>
      <point x="600" y="831"/>
      <point x="600" y="635" type="curve"/>
      <point x="68" y="635" type="line"/>
      <point x="68" y="483" type="line" smooth="yes"/>
      <point x="68" y="176"/>
      <point x="207" y="-20"/>
      <point x="459" y="-20" type="curve" smooth="yes"/>
      <point x="725" y="-20"/>
      <point x="864" y="188"/>
      <point x="864" y="563" type="curve" smooth="yes"/>
      <point x="864" y="920"/>
      <point x="735" y="1139"/>
    </contour>
    <contour>
      <point x="600" y="442" type="line"/>
      <point x="596" y="262"/>
      <point x="539" y="188"/>
      <point x="453" y="188" type="curve" smooth="yes"/>
      <point x="365" y="188"/>
      <point x="315" y="285"/>
      <point x="315" y="442" type="curve"/>
    </contour>
  </outline>
</glyph>
<glyph name="schwahook" format="2">
  <advance width="1319"/>
  <unicode hex="025A"/>
  <anchor x="457" y="0" name="bottom"/>
  <anchor x="457" y="1120" name="top"/>
  <outline>
    <contour>
      <point x="459" y="-20" type="curve" smooth="yes"/>
      <point x="735" y="-20"/>
      <point x="856" y="205"/>
      <point x="862" y="565" type="curve"/>
      <point x="915" y="588" type="line"/>
      <point x="954" y="426"/>
      <point x="1020" y="350"/>
      <point x="1135" y="350" type="curve" smooth="yes"/>
      <point x="1208" y="350"/>
      <point x="1272" y="383"/>
      <point x="1319" y="428" type="curve"/>
      <point x="1247" y="573" type="line"/>
      <point x="1221" y="551"/>
      <point x="1194" y="539"/>
      <point x="1153" y="539" type="curve" smooth="yes"/>
      <point x="1104" y="539"/>
      <point x="1083" y="582"/>
      <point x="1055" y="721" type="curve" smooth="yes"/>
      <point x="1034" y="823" type="line"/>
      <point x="850" y="752" type="line"/>
      <point x="811" y="995"/>
      <point x="676" y="1139"/>
      <point x="426" y="1139" type="curve" smooth="yes"/>
      <point x="309" y="1139"/>
      <point x="209" y="1114"/>
      <point x="119" y="1061" type="curve"/>
      <point x="119" y="840" type="line"/>
      <point x="215" y="899"/>
      <point x="295" y="922"/>
      <point x="389" y="922" type="curve" smooth="yes"/>
      <point x="524" y="922"/>
      <point x="594" y="844"/>
      <point x="598" y="674" type="curve"/>
      <point x="68" y="487" type="line"/>
      <point x="68" y="158"/>
      <point x="211" y="-20"/>
    </contour>
    <contour>
      <point x="453" y="188" type="curve" smooth="yes"/>
      <point x="375" y="188"/>
      <point x="330" y="268"/>
      <point x="319" y="383" type="curve"/>
      <point x="600" y="483" type="line"/>
      <point x="600" y="315"/>
      <point x="559" y="188"/>
    </contour>
  </outline>
</glyph>
<glyph name="eopenreversedhook" format="2">
  <advance width="1155"/>
  <unicode hex="025D"/>
  <anchor x="393" y="0" name="bottom"/>
  <anchor x="393" y="1120" name="top"/>
  <outline>
    <contour>
      <point x="971" y="532" type="curve" smooth="yes"/>
      <point x="1044" y="532"/>
      <point x="1108" y="563"/>
      <point x="1155" y="608" type="curve"/>
      <point x="1083" y="756" type="line"/>
      <point x="1057" y="731"/>
      <point x="1032" y="719"/>
      <point x="989" y="719" type="curve" smooth="yes"/>
      <point x="940" y="719"/>
      <point x="922" y="762"/>
      <point x="893" y="901" type="curve" smooth="yes"/>
      <point x="872" y="999" type="line"/>
      <point x="506" y="870" type="line"/>
      <point x="551" y="698" type="line"/>
      <point x="752" y="770" type="line"/>
      <point x="791" y="608"/>
      <point x="856" y="532"/>
    </contour>
    <component base="afii10073"/>
  </outline>
</glyph>
<glyph name="uni025E" format="2">
  <advance width="1049"/>
  <unicode hex="025E"/>
  <anchor x="524" y="0" name="bottom"/>
  <anchor x="524" y="1120" name="top"/>
  <outline>
    <contour>
      <point x="559" y="1141" type="curve" smooth="yes"/>
      <point x="244" y="1141"/>
      <point x="74" y="938"/>
      <point x="74" y="561" type="curve" smooth="yes"/>
      <point x="74" y="201"/>
      <point x="219" y="-20"/>
      <point x="551" y="-20" type="curve" smooth="yes"/>
      <point x="831" y="-20"/>
      <point x="981" y="119"/>
      <point x="981" y="322" type="curve" smooth="yes"/>
      <point x="981" y="471"/>
      <point x="897" y="555"/>
      <point x="768" y="584" type="curve"/>
      <point x="768" y="594" type="line"/>
      <point x="874" y="629"/>
      <point x="938" y="721"/>
      <point x="938" y="844" type="curve" smooth="yes"/>
      <point x="938" y="1022"/>
      <point x="811" y="1141"/>
    </contour>
    <contour>
      <point x="547" y="920" type="curve" smooth="yes"/>
      <point x="637" y="920"/>
      <point x="680" y="868"/>
      <point x="680" y="803" type="curve" smooth="yes"/>
      <point x="680" y="719"/>
      <point x="625" y="680"/>
      <point x="547" y="680" type="curve" smooth="yes"/>
      <point x="496" y="680" type="line"/>
      <point x="496" y="479" type="line"/>
      <point x="561" y="479" type="line" smooth="yes"/>
      <point x="655" y="479"/>
      <point x="709" y="434"/>
      <point x="709" y="342" type="curve" smooth="yes"/>
      <point x="709" y="256"/>
      <point x="647" y="205"/>
      <point x="557" y="205" type="curve" smooth="yes"/>
      <point x="412" y="205"/>
      <point x="344" y="326"/>
      <point x="344" y="557" type="curve" smooth="yes"/>
      <point x="344" y="801"/>
      <point x="414" y="920"/>
    </contour>
  </outline>
</glyph>
<glyph name="uni025F" format="2">
  <advance width="500"/>
  <unicode hex="025F"/>
  <anchor x="250" y="-492" name="bottom"/>
  <anchor x="250" y="1120" name="top"/>
  <anchor x="418" y="1120" name="topright"/>
  <outline>
    <contour>
      <point x="86" y="-492" type="curve" smooth="yes"/>
      <point x="274" y="-489"/>
      <point x="383" y="-375"/>
      <point x="383" y="-121" type="curve" smooth="yes"/>
      <point x="383" y="500" type="line"/>
      <point x="498" y="500" type="line"/>
      <point x="498" y="694" type="line"/>
      <point x="383" y="694" type="line"/>
      <point x="383" y="1120" type="line"/>
      <point x="117" y="1120" type="line"/>
      <point x="117" y="694" type="line"/>
      <point x="2" y="694" type="line"/>
      <point x="2" y="500" type="line"/>
      <point x="117" y="500" type="line"/>
      <point x="117" y="-106" type="line" smooth="yes"/>
      <point x="117" y="-209"/>
      <point x="88" y="-258"/>
      <point x="27" y="-258" type="curve" smooth="yes"/>
      <point x="0" y="-258"/>
      <point x="-29" y="-252"/>
      <point x="-57" y="-240" type="curve"/>
      <point x="-57" y="-469" type="line"/>
      <point x="-12" y="-485"/>
      <point x="37" y="-492"/>
    </contour>
  </outline>
</glyph>
<glyph name="uni0264" format="2">
  <advance width="958"/>
  <unicode hex="0264"/>
  <anchor x="479" y="0" name="bottom"/>
  <anchor x="479" y="1120" name="top"/>
  <outline>
    <contour>
      <point x="811" y="1135" type="curve" smooth="yes"/>
      <point x="711" y="1135"/>
      <point x="655" y="1112"/>
      <point x="594" y="981" type="curve" smooth="yes"/>
      <point x="530" y="846" type="line" smooth="yes"/>
      <point x="508" y="799"/>
      <point x="494" y="760"/>
      <point x="487" y="735" type="curve"/>
      <point x="481" y="735" type="line"/>
      <point x="473" y="760"/>
      <point x="457" y="801"/>
      <point x="436" y="846" type="curve" smooth="yes"/>
      <point x="373" y="985" type="line" smooth="yes"/>
      <point x="328" y="1085"/>
      <point x="272" y="1135"/>
      <point x="145" y="1135" type="curve" smooth="yes"/>
      <point x="104" y="1135"/>
      <point x="49" y="1124"/>
      <point x="20" y="1108" type="curve"/>
      <point x="20" y="891" type="line"/>
      <point x="39" y="897"/>
      <point x="57" y="901"/>
      <point x="76" y="901" type="curve" smooth="yes"/>
      <point x="129" y="901"/>
      <point x="172" y="868"/>
      <point x="217" y="768" type="curve" smooth="yes"/>
      <point x="311" y="555" type="line"/>
      <point x="250" y="463"/>
      <point x="207" y="356"/>
      <point x="207" y="242" type="curve" smooth="yes"/>
      <point x="207" y="80"/>
      <point x="305" y="-20"/>
      <point x="479" y="-20" type="curve" smooth="yes"/>
      <point x="657" y="-20"/>
      <point x="762" y="72"/>
      <point x="762" y="240" type="curve" smooth="yes"/>
      <point x="762" y="352"/>
      <point x="713" y="459"/>
      <point x="641" y="559" type="curve"/>
      <point x="743" y="770" type="line" smooth="yes"/>
      <point x="793" y="872"/>
      <point x="821" y="897"/>
      <point x="895" y="897" type="curve" smooth="yes"/>
      <point x="909" y="897"/>
      <point x="915" y="895"/>
      <point x="938" y="889" type="curve"/>
      <point x="938" y="1108" type="line"/>
      <point x="911" y="1122"/>
      <point x="850" y="1135"/>
    </contour>
    <contour>
      <point x="483" y="416" type="curve"/>
      <point x="518" y="350"/>
      <point x="535" y="293"/>
      <point x="535" y="240" type="curve" smooth="yes"/>
      <point x="535" y="182"/>
      <point x="516" y="152"/>
      <point x="483" y="152" type="curve" smooth="yes"/>
      <point x="451" y="152"/>
      <point x="434" y="180"/>
      <point x="434" y="244" type="curve" smooth="yes"/>
      <point x="434" y="293"/>
      <point x="444" y="350"/>
    </contour>
  </outline>
</glyph>
<glyph name="uni0268" format="2">
  <advance width="500"/>
  <unicode hex="0268"/>
  <anchor x="254" y="0" name="bottom"/>
  <anchor x="250" y="1561" name="top"/>
  <outline>
    <contour>
      <point x="498" y="694" type="line"/>
      <point x="2" y="694" type="line"/>
      <point x="2" y="500" type="line"/>
      <point x="498" y="500" type="line"/>
    </contour>
    <component base="i"/>
  </outline>
</glyph>
<glyph name="uni026C" format="2">
  <advance width="729"/>
  <unicode hex="026C"/>
  <anchor x="365" y="0" name="bottom"/>
  <anchor x="365" y="1556" name="top"/>
  <outline>
    <contour>
      <point x="279" y="0" type="line"/>
      <point x="545" y="0" type="line"/>
      <point x="545" y="582" type="line"/>
      <point x="719" y="582" type="line"/>
      <point x="719" y="754" type="line"/>
      <point x="545" y="754" type="line"/>
      <point x="545" y="1556" type="line"/>
      <point x="279" y="1556" type="line"/>
      <point x="279" y="1008" type="line"/>
      <point x="252" y="1030"/>
      <point x="219" y="1042"/>
      <point x="182" y="1042" type="curve" smooth="yes"/>
      <point x="53" y="1042"/>
      <point x="-20" y="956"/>
      <point x="-20" y="819" type="curve" smooth="yes"/>
      <point x="-20" y="690"/>
      <point x="49" y="582"/>
      <point x="215" y="582" type="curve" smooth="yes"/>
      <point x="279" y="582" type="line"/>
    </contour>
    <contour>
      <point x="225" y="754" type="line" smooth="yes"/>
      <point x="180" y="754"/>
      <point x="145" y="772"/>
      <point x="145" y="823" type="curve" smooth="yes"/>
      <point x="145" y="864"/>
      <point x="168" y="891"/>
      <point x="205" y="891" type="curve" smooth="yes"/>
      <point x="248" y="891"/>
      <point x="279" y="854"/>
      <point x="279" y="782" type="curve" smooth="yes"/>
      <point x="279" y="754" type="line"/>
    </contour>
  </outline>
</glyph>
<glyph name="uni026D" format="2">
  <advance width="502"/>
  <unicode hex="026D"/>
  <anchor x="252" y="-492" name="bottom"/>
  <anchor x="252" y="1556" name="top"/>
  <outline>
    <contour>
      <point x="383" y="-492" type="curve" smooth="yes"/>
      <point x="461" y="-492"/>
      <point x="528" y="-475"/>
      <point x="586" y="-440" type="curve"/>
      <point x="586" y="-223" type="line"/>
      <point x="547" y="-244"/>
      <point x="504" y="-258"/>
      <point x="461" y="-258" type="curve" smooth="yes"/>
      <point x="408" y="-258"/>
      <point x="381" y="-223"/>
      <point x="381" y="-145" type="curve" smooth="yes"/>
      <point x="381" y="1556" type="line"/>
      <point x="115" y="1556" type="line"/>
      <point x="115" y="-150" type="line" smooth="yes"/>
      <point x="115" y="-393"/>
      <point x="199" y="-492"/>
    </contour>
  </outline>
</glyph>
<glyph name="uni026E" format="2">
  <advance width="1182"/>
  <unicode hex="026E"/>
  <anchor x="590" y="-492" name="bottom"/>
  <anchor x="590" y="1556" name="top"/>
  <outline>
    <contour>
      <point x="618" y="-492" type="curve" smooth="yes"/>
      <point x="934" y="-492"/>
      <point x="1122" y="-287"/>
      <point x="1122" y="41" type="curve" smooth="yes"/>
      <point x="1122" y="334"/>
      <point x="971" y="463"/>
      <point x="764" y="487" type="curve"/>
      <point x="1079" y="940" type="line"/>
      <point x="1079" y="1120" type="line"/>
      <point x="381" y="1120" type="line"/>
      <point x="381" y="1556" type="line"/>
      <point x="115" y="1556" type="line"/>
      <point x="115" y="0" type="line"/>
      <point x="381" y="0" type="line"/>
      <point x="381" y="895" type="line"/>
      <point x="766" y="895" type="line"/>
      <point x="483" y="479" type="line"/>
      <point x="483" y="287" type="line"/>
      <point x="557" y="287" type="line" smooth="yes"/>
      <point x="750" y="287"/>
      <point x="852" y="211"/>
      <point x="852" y="29" type="curve" smooth="yes"/>
      <point x="852" y="-154"/>
      <point x="760" y="-252"/>
      <point x="594" y="-252" type="curve" smooth="yes"/>
      <point x="477" y="-252"/>
      <point x="385" y="-213"/>
      <point x="319" y="-176" type="curve"/>
      <point x="319" y="-424" type="line"/>
      <point x="373" y="-451"/>
      <point x="467" y="-492"/>
    </contour>
  </outline>
</glyph>
<glyph name="uni0270" format="2">
  <advance width="1530"/>
  <unicode hex="0270"/>
  <anchor x="766" y="-492" name="bottom"/>
  <anchor x="766" y="1120" name="top"/>
  <outline>
    <contour>
      <point x="1151" y="-492" type="line"/>
      <point x="1417" y="-492" type="line"/>
      <point x="1417" y="1120" type="line"/>
      <point x="1151" y="1120" type="line"/>
      <point x="1151" y="586" type="line" smooth="yes"/>
      <point x="1151" y="342"/>
      <point x="1114" y="217"/>
      <point x="1006" y="217" type="curve" smooth="yes"/>
      <point x="932" y="217"/>
      <point x="899" y="293"/>
      <point x="899" y="459" type="curve" smooth="yes"/>
      <point x="899" y="1120" type="line"/>
      <point x="631" y="1120" type="line"/>
      <point x="631" y="553" type="line" smooth="yes"/>
      <point x="631" y="326"/>
      <point x="588" y="217"/>
      <point x="487" y="217" type="curve" smooth="yes"/>
      <point x="416" y="217"/>
      <point x="379" y="295"/>
      <point x="379" y="461" type="curve" smooth="yes"/>
      <point x="379" y="1120" type="line"/>
      <point x="113" y="1120" type="line"/>
      <point x="113" y="383" type="line" smooth="yes"/>
      <point x="113" y="111"/>
      <point x="205" y="-20"/>
      <point x="397" y="-20" type="curve" smooth="yes"/>
      <point x="508" y="-20"/>
      <point x="596" y="35"/>
      <point x="647" y="139" type="curve"/>
      <point x="666" y="139" type="line"/>
      <point x="711" y="37"/>
      <point x="797" y="-20"/>
      <point x="922" y="-20" type="curve" smooth="yes"/>
      <point x="1030" y="-20"/>
      <point x="1116" y="35"/>
      <point x="1159" y="143" type="curve"/>
      <point x="1167" y="143" type="line"/>
      <point x="1157" y="94"/>
      <point x="1151" y="47"/>
      <point x="1151" y="0" type="curve" smooth="yes"/>
    </contour>
  </outline>
</glyph>
<glyph name="uni0271" format="2">
  <advance width="1530"/>
  <unicode hex="0271"/>
  <anchor x="766" y="-492" name="bottom"/>
  <anchor x="766" y="1120" name="top"/>
  <anchor x="1464" y="1120" name="topright"/>
  <outline>
    <contour>
      <point x="1135" y="1141" type="curve" smooth="yes"/>
      <point x="1024" y="1141"/>
      <point x="936" y="1085"/>
      <point x="885" y="981" type="curve"/>
      <point x="866" y="981" type="line"/>
      <point x="821" y="1083"/>
      <point x="735" y="1141"/>
      <point x="610" y="1141" type="curve" smooth="yes"/>
      <point x="502" y="1141"/>
      <point x="414" y="1083"/>
      <point x="371" y="977" type="curve"/>
      <point x="354" y="977" type="line"/>
      <point x="326" y="1120" type="line"/>
      <point x="115" y="1120" type="line"/>
      <point x="115" y="0" type="line"/>
      <point x="381" y="0" type="line"/>
      <point x="381" y="535" type="line" smooth="yes"/>
      <point x="381" y="776"/>
      <point x="418" y="903"/>
      <point x="526" y="903" type="curve" smooth="yes"/>
      <point x="600" y="903"/>
      <point x="633" y="827"/>
      <point x="633" y="662" type="curve" smooth="yes"/>
      <point x="633" y="0" type="line"/>
      <point x="901" y="0" type="line"/>
      <point x="901" y="567" type="line" smooth="yes"/>
      <point x="901" y="793"/>
      <point x="944" y="903"/>
      <point x="1042" y="903" type="curve" smooth="yes"/>
      <point x="1116" y="903"/>
      <point x="1153" y="825"/>
      <point x="1153" y="659" type="curve" smooth="yes"/>
      <point x="1153" y="-150" type="line" smooth="yes"/>
      <point x="1153" y="-227"/>
      <point x="1126" y="-258"/>
      <point x="1073" y="-258" type="curve" smooth="yes"/>
      <point x="1030" y="-258"/>
      <point x="987" y="-244"/>
      <point x="948" y="-223" type="curve"/>
      <point x="948" y="-440" type="line"/>
      <point x="1006" y="-475"/>
      <point x="1073" y="-492"/>
      <point x="1149" y="-492" type="curve" smooth="yes"/>
      <point x="1335" y="-492"/>
      <point x="1419" y="-393"/>
      <point x="1419" y="-150" type="curve" smooth="yes"/>
      <point x="1419" y="737" type="line" smooth="yes"/>
      <point x="1419" y="1010"/>
      <point x="1325" y="1141"/>
    </contour>
  </outline>
</glyph>
<glyph name="uni0276" format="2">
  <advance width="1294"/>
  <unicode hex="0276"/>
  <anchor x="647" y="0" name="bottom"/>
  <anchor x="647" y="1120" name="top"/>
  <outline>
    <contour>
      <point x="455" y="1141" type="curve" smooth="yes"/>
      <point x="199" y="1141"/>
      <point x="74" y="901"/>
      <point x="74" y="563" type="curve" smooth="yes"/>
      <point x="74" y="246"/>
      <point x="205" y="-20"/>
      <point x="459" y="-20" type="curve" smooth="yes"/>
      <point x="561" y="-20"/>
      <point x="635" y="8"/>
      <point x="690" y="94" type="curve"/>
      <point x="690" y="0" type="line"/>
      <point x="1223" y="0" type="line"/>
      <point x="1223" y="211" type="line"/>
      <point x="893" y="211" type="line"/>
      <point x="893" y="463" type="line"/>
      <point x="1198" y="463" type="line"/>
      <point x="1198" y="676" type="line"/>
      <point x="893" y="676" type="line"/>
      <point x="893" y="909" type="line"/>
      <point x="1223" y="909" type="line"/>
      <point x="1223" y="1120" type="line"/>
      <point x="690" y="1120" type="line"/>
      <point x="690" y="1024" type="line"/>
      <point x="627" y="1114"/>
      <point x="549" y="1141"/>
    </contour>
    <contour>
      <point x="494" y="915" type="curve" smooth="yes"/>
      <point x="600" y="915"/>
      <point x="643" y="799"/>
      <point x="643" y="563" type="curve" smooth="yes"/>
      <point x="643" y="324"/>
      <point x="600" y="205"/>
      <point x="494" y="205" type="curve" smooth="yes"/>
      <point x="391" y="205"/>
      <point x="344" y="326"/>
      <point x="344" y="559" type="curve" smooth="yes"/>
      <point x="344" y="801"/>
      <point x="389" y="915"/>
    </contour>
  </outline>
</glyph>
<glyph name="uni027A" format="2">
  <advance width="711"/>
  <unicode hex="027A"/>
  <anchor x="356" y="0" name="bottom"/>
  <anchor x="356" y="1556" name="top"/>
  <outline>
    <contour>
      <point x="109" y="-20" type="curve" smooth="yes"/>
      <point x="215" y="-20"/>
      <point x="295" y="78"/>
      <point x="338" y="182" type="curve"/>
      <point x="352" y="182" type="line"/>
      <point x="389" y="0" type="line"/>
      <point x="594" y="0" type="line"/>
      <point x="594" y="1556" type="line"/>
      <point x="328" y="1556" type="line"/>
      <point x="328" y="549" type="line" smooth="yes"/>
      <point x="328" y="375"/>
      <point x="262" y="264"/>
      <point x="137" y="264" type="curve" smooth="yes"/>
      <point x="98" y="264"/>
      <point x="68" y="268"/>
      <point x="41" y="276" type="curve"/>
      <point x="16" y="-8" type="line"/>
      <point x="53" y="-18"/>
      <point x="80" y="-20"/>
    </contour>
  </outline>
</glyph>
<glyph name="uni027D" format="2">
  <advance width="711"/>
  <unicode hex="027D"/>
  <anchor x="356" y="-492" name="bottom"/>
  <anchor x="356" y="1120" name="top"/>
  <outline>
    <contour>
      <point x="602" y="1141" type="curve" smooth="yes"/>
      <point x="496" y="1141"/>
      <point x="416" y="1042"/>
      <point x="373" y="936" type="curve"/>
      <point x="360" y="936" type="line"/>
      <point x="322" y="1120" type="line"/>
      <point x="117" y="1120" type="line"/>
      <point x="117" y="-150" type="line" smooth="yes"/>
      <point x="117" y="-393"/>
      <point x="201" y="-492"/>
      <point x="385" y="-492" type="curve" smooth="yes"/>
      <point x="463" y="-492"/>
      <point x="530" y="-475"/>
      <point x="588" y="-440" type="curve"/>
      <point x="588" y="-223" type="line"/>
      <point x="549" y="-244"/>
      <point x="506" y="-258"/>
      <point x="463" y="-258" type="curve" smooth="yes"/>
      <point x="410" y="-258"/>
      <point x="383" y="-227"/>
      <point x="383" y="-150" type="curve" smooth="yes"/>
      <point x="383" y="571" type="line" smooth="yes"/>
      <point x="383" y="745"/>
      <point x="451" y="856"/>
      <point x="575" y="856" type="curve" smooth="yes"/>
      <point x="612" y="856"/>
      <point x="643" y="852"/>
      <point x="670" y="842" type="curve"/>
      <point x="694" y="1126" type="line"/>
      <point x="657" y="1137"/>
      <point x="631" y="1141"/>
    </contour>
  </outline>
</glyph>
<glyph name="uni027E" format="2">
  <advance width="680"/>
  <unicode hex="027E"/>
  <anchor x="340" y="0" name="bottom"/>
  <anchor x="340" y="1120" name="top"/>
  <outline>
    <contour>
      <point x="530" y="1141" type="curve" smooth="yes"/>
      <point x="188" y="1141"/>
      <point x="117" y="950"/>
      <point x="117" y="641" type="curve" smooth="yes"/>
      <point x="117" y="0" type="line"/>
      <point x="383" y="0" type="line"/>
      <point x="383" y="631" type="line" smooth="yes"/>
      <point x="383" y="823"/>
      <point x="422" y="889"/>
      <point x="545" y="889" type="curve" smooth="yes"/>
      <point x="584" y="889"/>
      <point x="614" y="887"/>
      <point x="639" y="877" type="curve"/>
      <point x="666" y="1126" type="line"/>
      <point x="629" y="1135"/>
      <point x="575" y="1141"/>
    </contour>
  </outline>
</glyph>
<glyph name="uni0283" format="2">
  <advance width="496"/>
  <unicode hex="0283"/>
  <anchor x="248" y="-492" name="bottom"/>
  <anchor x="248" y="1567" name="top"/>
  <outline>
    <contour>
      <point x="420" y="1567" type="curve" smooth="yes"/>
      <point x="227" y="1567"/>
      <point x="115" y="1438"/>
      <point x="115" y="1210" type="curve" smooth="yes"/>
      <point x="115" y="-150" type="line" smooth="yes"/>
      <point x="115" y="-227"/>
      <point x="90" y="-258"/>
      <point x="37" y="-258" type="curve" smooth="yes"/>
      <point x="-8" y="-258"/>
      <point x="-49" y="-244"/>
      <point x="-88" y="-223" type="curve"/>
      <point x="-88" y="-440" type="line"/>
      <point x="-33" y="-475"/>
      <point x="37" y="-492"/>
      <point x="113" y="-492" type="curve" smooth="yes"/>
      <point x="297" y="-492"/>
      <point x="383" y="-393"/>
      <point x="383" y="-150" type="curve" smooth="yes"/>
      <point x="383" y="1206" type="line" smooth="yes"/>
      <point x="383" y="1296"/>
      <point x="412" y="1333"/>
      <point x="477" y="1333" type="curve" smooth="yes"/>
      <point x="506" y="1333"/>
      <point x="535" y="1327"/>
      <point x="567" y="1315" type="curve"/>
      <point x="567" y="1544" type="line"/>
      <point x="535" y="1556"/>
      <point x="465" y="1567"/>
    </contour>
  </outline>
</glyph>
<glyph name="eshsquatreversed" format="2">
  <advance width="555"/>
  <unicode hex="0285"/>
  <anchor x="279" y="-492" name="bottom"/>
  <anchor x="279" y="1120" name="top"/>
  <outline>
    <contour>
      <point x="446" y="-492" type="curve" smooth="yes"/>
      <point x="522" y="-492"/>
      <point x="592" y="-475"/>
      <point x="649" y="-440" type="curve"/>
      <point x="649" y="-223" type="line"/>
      <point x="606" y="-246"/>
      <point x="567" y="-258"/>
      <point x="522" y="-258" type="curve" smooth="yes"/>
      <point x="469" y="-258"/>
      <point x="440" y="-227"/>
      <point x="440" y="-150" type="curve" smooth="yes"/>
      <point x="442" y="784" type="line" smooth="yes"/>
      <point x="442" y="1012"/>
      <point x="330" y="1141"/>
      <point x="137" y="1141" type="curve" smooth="yes"/>
      <point x="92" y="1141"/>
      <point x="20" y="1128"/>
      <point x="-10" y="1118" type="curve"/>
      <point x="-10" y="889" type="line"/>
      <point x="20" y="901"/>
      <point x="51" y="907"/>
      <point x="78" y="907" type="curve" smooth="yes"/>
      <point x="145" y="907"/>
      <point x="174" y="870"/>
      <point x="174" y="778" type="curve" smooth="yes"/>
      <point x="174" y="-150" type="line" smooth="yes"/>
      <point x="174" y="-393"/>
      <point x="262" y="-492"/>
    </contour>
  </outline>
</glyph>
<glyph name="uni0288" format="2">
  <advance width="649"/>
  <unicode hex="0288"/>
  <anchor x="326" y="-492" name="bottom"/>
  <anchor x="326" y="1356" name="top"/>
  <anchor x="600" y="1356" name="topright"/>
  <outline>
    <contour>
      <point x="489" y="-258" type="curve" smooth="yes"/>
      <point x="424" y="-258"/>
      <point x="399" y="-215"/>
      <point x="399" y="-127" type="curve" smooth="yes"/>
      <point x="399" y="899" type="line"/>
      <point x="600" y="899" type="line"/>
      <point x="600" y="1120" type="line"/>
      <point x="399" y="1120" type="line"/>
      <point x="399" y="1356" type="line"/>
      <point x="217" y="1356" type="line"/>
      <point x="154" y="1112" type="line"/>
      <point x="23" y="1042" type="line"/>
      <point x="23" y="899" type="line"/>
      <point x="133" y="899" type="line"/>
      <point x="133" y="-137" type="line" smooth="yes"/>
      <point x="133" y="-377"/>
      <point x="213" y="-492"/>
      <point x="406" y="-492" type="curve" smooth="yes"/>
      <point x="485" y="-492"/>
      <point x="555" y="-473"/>
      <point x="614" y="-440" type="curve"/>
      <point x="614" y="-227" type="line"/>
      <point x="569" y="-248"/>
      <point x="526" y="-258"/>
    </contour>
  </outline>
</glyph>
<glyph name="uni028B" format="2">
  <advance width="1073"/>
  <unicode hex="028B"/>
  <anchor x="537" y="0" name="bottom"/>
  <anchor x="537" y="1120" name="top"/>
  <outline>
    <contour>
      <point x="692" y="1141" type="curve" smooth="yes"/>
      <point x="635" y="1141"/>
      <point x="580" y="1130"/>
      <point x="532" y="1110" type="curve"/>
      <point x="532" y="893" type="line"/>
      <point x="555" y="901"/>
      <point x="586" y="907"/>
      <point x="616" y="907" type="curve" smooth="yes"/>
      <point x="670" y="907"/>
      <point x="694" y="877"/>
      <point x="694" y="797" type="curve" smooth="yes"/>
      <point x="694" y="446" type="line" smooth="yes"/>
      <point x="694" y="279"/>
      <point x="645" y="217"/>
      <point x="537" y="217" type="curve" smooth="yes"/>
      <point x="428" y="217"/>
      <point x="381" y="279"/>
      <point x="381" y="446" type="curve" smooth="yes"/>
      <point x="381" y="1120" type="line"/>
      <point x="113" y="1120" type="line"/>
      <point x="113" y="389" type="line" smooth="yes"/>
      <point x="113" y="133"/>
      <point x="231" y="-20"/>
      <point x="537" y="-20" type="curve" smooth="yes"/>
      <point x="844" y="-20"/>
      <point x="963" y="137"/>
      <point x="963" y="389" type="curve" smooth="yes"/>
      <point x="963" y="797" type="line" smooth="yes"/>
      <point x="963" y="1042"/>
      <point x="877" y="1141"/>
    </contour>
  </outline>
</glyph>
<glyph name="uni028F" format="2">
  <advance width="858"/>
  <unicode hex="028F"/>
  <anchor x="430" y="0" name="bottom"/>
  <anchor x="430" y="1120" name="top"/>
  <outline>
    <contour>
      <point x="854" y="1120" type="line"/>
      <point x="565" y="1120" type="line"/>
      <point x="432" y="803" type="line"/>
      <point x="295" y="1120" type="line"/>
      <point x="6" y="1120" type="line"/>
      <point x="297" y="526" type="line"/>
      <point x="297" y="0" type="line"/>
      <point x="563" y="0" type="line"/>
      <point x="563" y="526" type="line"/>
    </contour>
  </outline>
</glyph>
<glyph name="uni0290" format="2">
  <advance width="739"/>
  <unicode hex="0290"/>
  <anchor x="371" y="-492" name="bottom"/>
  <anchor x="371" y="1120" name="top"/>
  <outline>
    <contour>
      <point x="692" y="-492" type="curve" smooth="yes"/>
      <point x="745" y="-492"/>
      <point x="799" y="-479"/>
      <point x="827" y="-467" type="curve"/>
      <point x="827" y="-303" type="line"/>
      <point x="811" y="-307"/>
      <point x="786" y="-313"/>
      <point x="764" y="-313" type="curve" smooth="yes"/>
      <point x="727" y="-313"/>
      <point x="700" y="-293"/>
      <point x="700" y="-233" type="curve" smooth="yes"/>
      <point x="700" y="223" type="line"/>
      <point x="350" y="223" type="line"/>
      <point x="684" y="940" type="line"/>
      <point x="684" y="1120" type="line"/>
      <point x="61" y="1120" type="line"/>
      <point x="61" y="895" type="line"/>
      <point x="389" y="895" type="line"/>
      <point x="41" y="166" type="line"/>
      <point x="41" y="0" type="line"/>
      <point x="492" y="0" type="line"/>
      <point x="492" y="-285" type="line" smooth="yes"/>
      <point x="492" y="-422"/>
      <point x="563" y="-492"/>
    </contour>
  </outline>
</glyph>
<glyph name="ezhcurl" format="2">
  <advance width="885"/>
  <unicode hex="0293"/>
  <anchor x="442" y="-492" name="bottom"/>
  <anchor x="442" y="1120" name="top"/>
  <outline>
    <contour>
      <point x="352" y="-492" type="curve" smooth="yes"/>
      <point x="498" y="-492"/>
      <point x="612" y="-440"/>
      <point x="690" y="-354" type="curve"/>
      <point x="723" y="-393"/>
      <point x="754" y="-432"/>
      <point x="784" y="-475" type="curve"/>
      <point x="934" y="-326" type="line"/>
      <point x="889" y="-264"/>
      <point x="846" y="-211"/>
      <point x="801" y="-164" type="curve"/>
      <point x="817" y="-106"/>
      <point x="825" y="-45"/>
      <point x="825" y="23" type="curve" smooth="yes"/>
      <point x="825" y="303"/>
      <point x="698" y="473"/>
      <point x="477" y="506" type="curve"/>
      <point x="782" y="940" type="line"/>
      <point x="782" y="1120" type="line"/>
      <point x="55" y="1120" type="line"/>
      <point x="55" y="895" type="line"/>
      <point x="455" y="895" type="line"/>
      <point x="190" y="504" type="line"/>
      <point x="190" y="305" type="line"/>
      <point x="287" y="305" type="line" smooth="yes"/>
      <point x="475" y="305"/>
      <point x="555" y="227"/>
      <point x="555" y="84" type="curve" smooth="yes"/>
      <point x="555" y="61"/>
      <point x="553" y="41"/>
      <point x="551" y="18" type="curve"/>
      <point x="469" y="61"/>
      <point x="389" y="82"/>
      <point x="309" y="82" type="curve" smooth="yes"/>
      <point x="123" y="82"/>
      <point x="12" y="-20"/>
      <point x="12" y="-195" type="curve" smooth="yes"/>
      <point x="12" y="-379"/>
      <point x="139" y="-492"/>
    </contour>
    <contour>
      <point x="334" y="-274" type="curve" smooth="yes"/>
      <point x="260" y="-274"/>
      <point x="219" y="-236"/>
      <point x="219" y="-190" type="curve" smooth="yes"/>
      <point x="219" y="-135"/>
      <point x="254" y="-104"/>
      <point x="315" y="-104" type="curve" smooth="yes"/>
      <point x="373" y="-104"/>
      <point x="432" y="-125"/>
      <point x="502" y="-178" type="curve"/>
      <point x="467" y="-240"/>
      <point x="412" y="-274"/>
    </contour>
  </outline>
</glyph>
<glyph name="uni0294" format="2">
  <advance width="805"/>
  <unicode hex="0294"/>
  <anchor x="403" y="0" name="bottom"/>
  <anchor x="403" y="1567" name="top"/>
  <anchor x="719" y="1571" name="topright"/>
  <outline>
    <contour>
      <point x="348" y="1567" type="curve" smooth="yes"/>
      <point x="231" y="1567"/>
      <point x="115" y="1546"/>
      <point x="2" y="1458" type="curve"/>
      <point x="92" y="1249" type="line"/>
      <point x="170" y="1309"/>
      <point x="242" y="1327"/>
      <point x="311" y="1327" type="curve" smooth="yes"/>
      <point x="395" y="1327"/>
      <point x="465" y="1260"/>
      <point x="465" y="1139" type="curve" smooth="yes"/>
      <point x="465" y="969"/>
      <point x="399" y="842"/>
      <point x="195" y="698" type="curve"/>
      <point x="195" y="0" type="line"/>
      <point x="461" y="0" type="line"/>
      <point x="461" y="598" type="line"/>
      <point x="662" y="768"/>
      <point x="737" y="932"/>
      <point x="737" y="1161" type="curve" smooth="yes"/>
      <point x="737" y="1413"/>
      <point x="598" y="1567"/>
    </contour>
  </outline>
</glyph>
<glyph name="glottalturned" format="2">
  <advance width="805"/>
  <unicode hex="0296"/>
  <anchor x="403" y="0" name="bottom"/>
  <anchor x="403" y="1567" name="top"/>
  <outline>
    <contour>
      <point x="348" y="-16" type="curve" smooth="yes"/>
      <point x="598" y="-16"/>
      <point x="737" y="137"/>
      <point x="737" y="387" type="curve" smooth="yes"/>
      <point x="737" y="618"/>
      <point x="662" y="782"/>
      <point x="461" y="950" type="curve"/>
      <point x="461" y="1567" type="line"/>
      <point x="195" y="1567" type="line"/>
      <point x="195" y="852" type="line"/>
      <point x="399" y="707"/>
      <point x="465" y="580"/>
      <point x="465" y="410" type="curve" smooth="yes"/>
      <point x="465" y="291"/>
      <point x="395" y="221"/>
      <point x="311" y="221" type="curve" smooth="yes"/>
      <point x="242" y="221"/>
      <point x="170" y="240"/>
      <point x="92" y="301" type="curve"/>
      <point x="2" y="90" type="line"/>
      <point x="115" y="2"/>
      <point x="231" y="-16"/>
    </contour>
  </outline>
</glyph>
<glyph name="uni029B" format="2">
  <advance width="930"/>
  <unicode hex="029B"/>
  <anchor x="465" y="0" name="bottom"/>
  <anchor x="465" y="1581" name="top"/>
  <outline>
    <contour>
      <point x="877" y="1581" type="curve" smooth="yes"/>
      <point x="684" y="1581"/>
      <point x="588" y="1450"/>
      <point x="588" y="1227" type="curve" smooth="yes"/>
      <point x="588" y="1137" type="line"/>
      <point x="567" y="1139"/>
      <point x="545" y="1141"/>
      <point x="524" y="1141" type="curve" smooth="yes"/>
      <point x="223" y="1141"/>
      <point x="74" y="895"/>
      <point x="74" y="555" type="curve" smooth="yes"/>
      <point x="74" y="164"/>
      <point x="238" y="-20"/>
      <point x="530" y="-20" type="curve" smooth="yes"/>
      <point x="649" y="-20"/>
      <point x="770" y="16"/>
      <point x="844" y="63" type="curve"/>
      <point x="844" y="627" type="line"/>
      <point x="475" y="627" type="line"/>
      <point x="475" y="432" type="line"/>
      <point x="592" y="432" type="line"/>
      <point x="592" y="213" type="line"/>
      <point x="569" y="209"/>
      <point x="551" y="209"/>
      <point x="530" y="209" type="curve" smooth="yes"/>
      <point x="410" y="209"/>
      <point x="344" y="324"/>
      <point x="344" y="555" type="curve" smooth="yes"/>
      <point x="344" y="786"/>
      <point x="432" y="909"/>
      <point x="565" y="909" type="curve" smooth="yes"/>
      <point x="639" y="909"/>
      <point x="692" y="895"/>
      <point x="766" y="854" type="curve"/>
      <point x="840" y="1067" type="line"/>
      <point x="840" y="1219" type="line" smooth="yes"/>
      <point x="840" y="1313"/>
      <point x="868" y="1350"/>
      <point x="936" y="1350" type="curve" smooth="yes"/>
      <point x="963" y="1350"/>
      <point x="993" y="1343"/>
      <point x="1024" y="1331" type="curve"/>
      <point x="1024" y="1559" type="line"/>
      <point x="991" y="1571"/>
      <point x="922" y="1581"/>
    </contour>
  </outline>
</glyph>
<glyph name="uni029F" format="2">
  <advance width="741"/>
  <unicode hex="029F"/>
  <anchor x="371" y="0" name="bottom"/>
  <anchor x="371" y="1120" name="top"/>
  <outline>
    <contour>
      <point x="115" y="0" type="line"/>
      <point x="717" y="0" type="line"/>
      <point x="717" y="225" type="line"/>
      <point x="381" y="225" type="line"/>
      <point x="381" y="1120" type="line"/>
      <point x="115" y="1120" type="line"/>
    </contour>
  </outline>
</glyph>
<glyph name="uni02A2" format="2">
  <advance width="805"/>
  <unicode hex="02A2"/>
  <anchor x="403" y="0" name="bottom"/>
  <anchor x="403" y="1567" name="top"/>
  <outline>
    <contour>
      <point x="459" y="1567" type="curve" smooth="yes"/>
      <point x="209" y="1567"/>
      <point x="70" y="1413"/>
      <point x="70" y="1161" type="curve" smooth="yes"/>
      <point x="70" y="932"/>
      <point x="143" y="768"/>
      <point x="346" y="598" type="curve"/>
      <point x="346" y="475" type="line"/>
      <point x="156" y="475" type="line"/>
      <point x="156" y="279" type="line"/>
      <point x="346" y="279" type="line"/>
      <point x="346" y="0" type="line"/>
      <point x="612" y="0" type="line"/>
      <point x="612" y="279" type="line"/>
      <point x="760" y="279" type="line"/>
      <point x="760" y="475" type="line"/>
      <point x="612" y="475" type="line"/>
      <point x="612" y="698" type="line"/>
      <point x="406" y="842"/>
      <point x="340" y="969"/>
      <point x="340" y="1139" type="curve" smooth="yes"/>
      <point x="340" y="1260"/>
      <point x="410" y="1327"/>
      <point x="494" y="1327" type="curve" smooth="yes"/>
      <point x="563" y="1327"/>
      <point x="635" y="1309"/>
      <point x="715" y="1249" type="curve"/>
      <point x="805" y="1458" type="line"/>
      <point x="692" y="1546"/>
      <point x="575" y="1567"/>
    </contour>
  </outline>
</glyph>
<glyph name="uni02A4" format="2">
  <advance width="1767"/>
  <unicode hex="02A4"/>
  <anchor x="1292" y="-492" name="bottom"/>
  <anchor x="1292" y="1556" name="top"/>
  <outline>
    <contour>
      <point x="1235" y="-492" type="curve" smooth="yes"/>
      <point x="1544" y="-492"/>
      <point x="1708" y="-299"/>
      <point x="1708" y="23" type="curve" smooth="yes"/>
      <point x="1708" y="303"/>
      <point x="1581" y="473"/>
      <point x="1360" y="506" type="curve"/>
      <point x="1665" y="940" type="line"/>
      <point x="1665" y="1120" type="line"/>
      <point x="909" y="1120" type="line"/>
      <point x="909" y="1556" type="line"/>
      <point x="643" y="1556" type="line"/>
      <point x="643" y="1167" type="line" smooth="yes"/>
      <point x="643" y="1124"/>
      <point x="647" y="1063"/>
      <point x="651" y="977" type="curve"/>
      <point x="641" y="977" type="line"/>
      <point x="584" y="1087"/>
      <point x="500" y="1141"/>
      <point x="397" y="1141" type="curve" smooth="yes"/>
      <point x="193" y="1141"/>
      <point x="74" y="926"/>
      <point x="74" y="561" type="curve" smooth="yes"/>
      <point x="74" y="197"/>
      <point x="190" y="-20"/>
      <point x="406" y="-20" type="curve" smooth="yes"/>
      <point x="514" y="-20"/>
      <point x="578" y="23"/>
      <point x="643" y="123" type="curve"/>
      <point x="659" y="123" type="line"/>
      <point x="696" y="0" type="line"/>
      <point x="909" y="0" type="line"/>
      <point x="909" y="895" type="line"/>
      <point x="1337" y="895" type="line"/>
      <point x="1073" y="504" type="line"/>
      <point x="1073" y="305" type="line"/>
      <point x="1169" y="305" type="line" smooth="yes"/>
      <point x="1358" y="305"/>
      <point x="1438" y="227"/>
      <point x="1438" y="35" type="curve" smooth="yes"/>
      <point x="1438" y="-139"/>
      <point x="1372" y="-256"/>
      <point x="1225" y="-256" type="curve" smooth="yes"/>
      <point x="1112" y="-256"/>
      <point x="995" y="-219"/>
      <point x="905" y="-160" type="curve"/>
      <point x="905" y="-422" type="line"/>
      <point x="997" y="-469"/>
      <point x="1106" y="-492"/>
    </contour>
    <contour>
      <point x="485" y="203" type="curve" smooth="yes"/>
      <point x="393" y="203"/>
      <point x="344" y="322"/>
      <point x="344" y="563" type="curve" smooth="yes"/>
      <point x="344" y="791"/>
      <point x="389" y="909"/>
      <point x="485" y="909" type="curve" smooth="yes"/>
      <point x="596" y="909"/>
      <point x="643" y="811"/>
      <point x="643" y="590" type="curve" smooth="yes"/>
      <point x="643" y="526" type="line" smooth="yes"/>
      <point x="643" y="303"/>
      <point x="592" y="203"/>
    </contour>
  </outline>
</glyph>
